M48
; DRILL file {KiCad 5.1.5+dfsg1-2build2} date 2020. jún. 21., vasárnap, 17:39:14 CEST
; FORMAT={-:-/ absolute / metric / decimal}
; #@! TF.CreationDate,2020-06-21T17:39:14+02:00
; #@! TF.GenerationSoftware,Kicad,Pcbnew,5.1.5+dfsg1-2build2
FMAT,2
METRIC
T1C0.400
T2C0.500
T3C0.600
T4C0.900
T5C1.000
T6C1.016
T7C3.200
%
G90
G05
T1
X86.661Y-68.05
X86.661Y-68.9
X86.661Y-69.75
X86.661Y-70.6
X86.661Y-71.45
X86.661Y-72.3
X86.661Y-73.15
X86.661Y-74.0
X88.011Y-68.05
X88.011Y-68.9
X88.011Y-69.75
X88.011Y-70.6
X88.011Y-71.45
X88.011Y-72.3
X88.011Y-73.15
X88.011Y-74.0
T2
X91.318Y-74.29
X95.758Y-68.326
X97.282Y-64.262
X101.346Y-85.09
X105.156Y-85.09
X107.442Y-73.406
X128.397Y-56.261
X129.659Y-57.793
X132.199Y-72.763
X133.469Y-63.619
X134.62Y-86.614
X134.739Y-63.619
X136.009Y-63.619
X137.279Y-63.619
T4
X85.852Y-57.785
X85.852Y-60.325
X155.094Y-54.725
X155.094Y-57.265
X82.478Y-83.082
X84.328Y-81.582
X84.328Y-84.582
X155.094Y-84.785
X155.094Y-87.325
T5
X124.579Y-86.614
X127.119Y-86.614
X129.659Y-86.614
X132.199Y-86.614
T6
X112.347Y-59.47
X112.347Y-62.01
X112.347Y-64.55
X112.347Y-67.09
X112.347Y-69.63
X112.347Y-72.17
X112.347Y-74.71
X112.347Y-77.25
X112.347Y-79.79
X112.347Y-82.33
X114.887Y-59.47
X114.887Y-62.01
X114.887Y-64.55
X114.887Y-67.09
X114.887Y-69.63
X114.887Y-72.17
X114.887Y-74.71
X114.887Y-77.25
X114.887Y-79.79
X114.887Y-82.33
T7
X145.32Y-52.014
X145.32Y-90.038
X95.62Y-90.038
X95.62Y-52.014
T3
G00X84.051Y-66.7
M15
G01X83.251Y-66.7
M16
G05
G00X84.051Y-75.35
M15
G01X83.251Y-75.35
M16
G05
G00X87.781Y-66.7
M15
G01X86.281Y-66.7
M16
G05
G00X87.781Y-75.35
M15
G01X86.281Y-75.35
M16
G05
T0
M30
