G04 #@! TF.GenerationSoftware,KiCad,Pcbnew,5.1.5+dfsg1-2build2*
G04 #@! TF.CreationDate,2020-06-22T18:13:02+02:00*
G04 #@! TF.ProjectId,zigbeebox,7a696762-6565-4626-9f78-2e6b69636164,rev?*
G04 #@! TF.SameCoordinates,Original*
G04 #@! TF.FileFunction,Profile,NP*
%FSLAX46Y46*%
G04 Gerber Fmt 4.6, Leading zero omitted, Abs format (unit mm)*
G04 Created by KiCad (PCBNEW 5.1.5+dfsg1-2build2) date 2020-06-22 18:13:02*
%MOMM*%
%LPD*%
G04 APERTURE LIST*
%ADD10C,0.100000*%
G04 APERTURE END LIST*
D10*
X159857475Y-93877816D02*
X159809836Y-93933700D01*
X159809836Y-93933700D02*
X159759597Y-93987727D01*
X159759597Y-93987727D02*
X159708784Y-94037922D01*
X159708784Y-94037922D02*
X159656175Y-94085726D01*
X159656175Y-94085726D02*
X159613943Y-94121348D01*
X158319319Y-94583192D02*
X82617058Y-94583192D01*
X80651401Y-92924842D02*
X80638227Y-92836098D01*
X80638227Y-92836098D02*
X80628716Y-92745411D01*
X80628716Y-92745411D02*
X80621061Y-92644931D01*
X80621061Y-92644931D02*
X80617060Y-92583194D01*
X159008878Y-94453998D02*
X158934095Y-94480073D01*
X158934095Y-94480073D02*
X158857891Y-94503931D01*
X158857891Y-94503931D02*
X158777931Y-94525596D01*
X158777931Y-94525596D02*
X158695178Y-94543940D01*
X158695178Y-94543940D02*
X158668782Y-94548851D01*
X160319320Y-49466307D02*
X160319320Y-92583194D01*
X159857475Y-48171685D02*
X159901512Y-48227906D01*
X159901512Y-48227906D02*
X159943611Y-48286421D01*
X159943611Y-48286421D02*
X159984575Y-48348546D01*
X159984575Y-48348546D02*
X160022970Y-48412258D01*
X160022970Y-48412258D02*
X160047024Y-48455346D01*
X158319319Y-47466309D02*
X158413714Y-47472260D01*
X158413714Y-47472260D02*
X158506504Y-47479640D01*
X158506504Y-47479640D02*
X158597121Y-47489784D01*
X158597121Y-47489784D02*
X158667587Y-47500651D01*
X160047024Y-93594156D02*
X160010714Y-93657903D01*
X160010714Y-93657903D02*
X159971280Y-93721386D01*
X159971280Y-93721386D02*
X159930829Y-93781139D01*
X159930829Y-93781139D02*
X159884462Y-93843855D01*
X159884462Y-93843855D02*
X159857475Y-93877816D01*
X158668782Y-94548851D02*
X158580757Y-94561984D01*
X158580757Y-94561984D02*
X158490066Y-94571445D01*
X158490066Y-94571445D02*
X158393463Y-94578635D01*
X158393463Y-94578635D02*
X158319319Y-94583192D01*
X159613943Y-47928154D02*
X159668800Y-47974910D01*
X159668800Y-47974910D02*
X159721160Y-48023475D01*
X159721160Y-48023475D02*
X159771459Y-48074178D01*
X159771459Y-48074178D02*
X159819612Y-48126925D01*
X159819612Y-48126925D02*
X159857475Y-48171685D01*
X158667587Y-47500651D02*
X158752068Y-47517950D01*
X158752068Y-47517950D02*
X158835736Y-47539462D01*
X158835736Y-47539462D02*
X158913274Y-47562870D01*
X158913274Y-47562870D02*
X158988724Y-47588462D01*
X158988724Y-47588462D02*
X159008280Y-47595503D01*
X159008280Y-47595503D02*
X159081797Y-47623394D01*
X159081797Y-47623394D02*
X159153127Y-47652849D01*
X159153127Y-47652849D02*
X159223429Y-47684529D01*
X159223429Y-47684529D02*
X159290880Y-47717756D01*
X159290880Y-47717756D02*
X159330284Y-47738605D01*
X160319320Y-92583194D02*
X160313509Y-92678961D01*
X160313509Y-92678961D02*
X160306271Y-92772401D01*
X160306271Y-92772401D02*
X160296236Y-92863289D01*
X160296236Y-92863289D02*
X160284978Y-92936469D01*
X80889355Y-93594156D02*
X80854325Y-93526302D01*
X80854325Y-93526302D02*
X80822114Y-93457833D01*
X80822114Y-93457833D02*
X80791920Y-93387640D01*
X80791920Y-93387640D02*
X80763094Y-93314550D01*
X80763094Y-93314550D02*
X80746253Y-93268844D01*
X82617058Y-47466309D02*
X158319319Y-47466309D01*
X159613943Y-94121348D02*
X159556887Y-94165934D01*
X159556887Y-94165934D02*
X159498048Y-94208144D01*
X159498048Y-94208144D02*
X159436735Y-94248508D01*
X159436735Y-94248508D02*
X159373328Y-94286766D01*
X159373328Y-94286766D02*
X159330283Y-94310897D01*
X160190125Y-93274657D02*
X160162174Y-93347603D01*
X160162174Y-93347603D02*
X160132673Y-93418365D01*
X160132673Y-93418365D02*
X160101272Y-93487491D01*
X160101272Y-93487491D02*
X160067880Y-93554892D01*
X160067880Y-93554892D02*
X160047024Y-93594156D01*
X160284978Y-49125290D02*
X160298124Y-49213866D01*
X160298124Y-49213866D02*
X160307867Y-49307057D01*
X160307867Y-49307057D02*
X160315300Y-49404680D01*
X160315300Y-49404680D02*
X160319320Y-49466307D01*
X159330283Y-94310897D02*
X159263207Y-94345770D01*
X159263207Y-94345770D02*
X159193686Y-94378801D01*
X159193686Y-94378801D02*
X159123694Y-94409247D01*
X159123694Y-94409247D02*
X159051465Y-94438086D01*
X159051465Y-94438086D02*
X159008878Y-94453998D01*
X159330284Y-47738605D02*
X159394636Y-47775189D01*
X159394636Y-47775189D02*
X159457555Y-47814270D01*
X159457555Y-47814270D02*
X159517777Y-47855074D01*
X159517777Y-47855074D02*
X159576825Y-47898694D01*
X159576825Y-47898694D02*
X159613943Y-47928154D01*
X160190125Y-48780973D02*
X160216043Y-48856398D01*
X160216043Y-48856398D02*
X160239993Y-48933897D01*
X160239993Y-48933897D02*
X160261670Y-49014833D01*
X160261670Y-49014833D02*
X160280774Y-49102337D01*
X160280774Y-49102337D02*
X160284978Y-49125290D01*
X80746253Y-93268844D02*
X80720325Y-93193485D01*
X80720325Y-93193485D02*
X80696375Y-93116059D01*
X80696375Y-93116059D02*
X80674201Y-93033164D01*
X80674201Y-93033164D02*
X80655664Y-92948111D01*
X80655664Y-92948111D02*
X80651401Y-92924842D01*
X160047024Y-48455346D02*
X160081137Y-48521388D01*
X160081137Y-48521388D02*
X160113987Y-48591159D01*
X160113987Y-48591159D02*
X160144462Y-48662053D01*
X160144462Y-48662053D02*
X160173036Y-48734567D01*
X160173036Y-48734567D02*
X160190125Y-48780973D01*
X160284978Y-92936469D02*
X160267072Y-93023026D01*
X160267072Y-93023026D02*
X160246384Y-93102760D01*
X160246384Y-93102760D02*
X160222997Y-93179730D01*
X160222997Y-93179730D02*
X160197170Y-93255255D01*
X160197170Y-93255255D02*
X160190125Y-93274657D01*
X81322435Y-47928154D02*
X81378691Y-47884182D01*
X81378691Y-47884182D02*
X81438341Y-47841400D01*
X81438341Y-47841400D02*
X81499663Y-47801045D01*
X81499663Y-47801045D02*
X81562486Y-47763101D01*
X81562486Y-47763101D02*
X81606096Y-47738605D01*
X80889355Y-48455345D02*
X80925941Y-48390991D01*
X80925941Y-48390991D02*
X80965025Y-48328078D01*
X80965025Y-48328078D02*
X81005445Y-48268400D01*
X81005445Y-48268400D02*
X81048633Y-48209861D01*
X81048633Y-48209861D02*
X81078904Y-48171685D01*
X80617060Y-49466307D02*
X80623108Y-49370563D01*
X80623108Y-49370563D02*
X80630647Y-49276438D01*
X80630647Y-49276438D02*
X80640854Y-49186197D01*
X80640854Y-49186197D02*
X80651401Y-49118121D01*
X81078905Y-93877816D02*
X81034865Y-93821585D01*
X81034865Y-93821585D02*
X80992767Y-93763067D01*
X80992767Y-93763067D02*
X80952518Y-93702072D01*
X80952518Y-93702072D02*
X80913741Y-93637812D01*
X80913741Y-93637812D02*
X80889355Y-93594156D01*
X81322436Y-94121348D02*
X81267566Y-94074592D01*
X81267566Y-94074592D02*
X81215205Y-94026029D01*
X81215205Y-94026029D02*
X81164908Y-93975326D01*
X81164908Y-93975326D02*
X81116760Y-93922573D01*
X81116760Y-93922573D02*
X81078905Y-93877816D01*
X81606096Y-94310897D02*
X81540606Y-94273591D01*
X81540606Y-94273591D02*
X81478838Y-94235188D01*
X81478838Y-94235188D02*
X81419153Y-94194778D01*
X81419153Y-94194778D02*
X81360608Y-94151606D01*
X81360608Y-94151606D02*
X81322436Y-94121348D01*
X81926740Y-94453998D02*
X81854168Y-94426326D01*
X81854168Y-94426326D02*
X81782507Y-94396591D01*
X81782507Y-94396591D02*
X81712507Y-94364903D01*
X81712507Y-94364903D02*
X81644498Y-94331271D01*
X81644498Y-94331271D02*
X81606096Y-94310897D01*
X82617058Y-94583192D02*
X82516400Y-94576940D01*
X82516400Y-94576940D02*
X82423420Y-94569512D01*
X82423420Y-94569512D02*
X82333326Y-94559300D01*
X82333326Y-94559300D02*
X82266073Y-94548851D01*
X81078904Y-48171685D02*
X81125763Y-48116676D01*
X81125763Y-48116676D02*
X81174909Y-48063695D01*
X81174909Y-48063695D02*
X81225882Y-48013189D01*
X81225882Y-48013189D02*
X81278799Y-47964977D01*
X81278799Y-47964977D02*
X81322435Y-47928154D01*
X82263270Y-47500651D02*
X82351676Y-47487430D01*
X82351676Y-47487430D02*
X82443484Y-47477922D01*
X82443484Y-47477922D02*
X82537118Y-47471064D01*
X82537118Y-47471064D02*
X82617058Y-47466309D01*
X82266073Y-94548851D02*
X82182915Y-94531793D01*
X82182915Y-94531793D02*
X82102383Y-94511126D01*
X82102383Y-94511126D02*
X82024625Y-94487700D01*
X82024625Y-94487700D02*
X81949782Y-94462314D01*
X81949782Y-94462314D02*
X81926740Y-94453998D01*
X80617060Y-92583194D02*
X80617060Y-49466307D01*
X80746253Y-48777389D02*
X80774142Y-48703857D01*
X80774142Y-48703857D02*
X80803596Y-48632515D01*
X80803596Y-48632515D02*
X80834982Y-48562825D01*
X80834982Y-48562825D02*
X80868503Y-48494746D01*
X80868503Y-48494746D02*
X80889355Y-48455345D01*
X81606096Y-47738605D02*
X81671818Y-47704266D01*
X81671818Y-47704266D02*
X81739923Y-47671648D01*
X81739923Y-47671648D02*
X81809403Y-47641117D01*
X81809403Y-47641117D02*
X81881114Y-47612177D01*
X81881114Y-47612177D02*
X81925338Y-47595504D01*
X81925338Y-47595504D02*
X81999936Y-47569287D01*
X81999936Y-47569287D02*
X82076311Y-47545240D01*
X82076311Y-47545240D02*
X82156778Y-47523378D01*
X82156778Y-47523378D02*
X82241060Y-47504765D01*
X82241060Y-47504765D02*
X82263270Y-47500651D01*
X80651401Y-49118121D02*
X80668700Y-49033626D01*
X80668700Y-49033626D02*
X80689279Y-48953279D01*
X80689279Y-48953279D02*
X80712774Y-48875039D01*
X80712774Y-48875039D02*
X80738110Y-48800043D01*
X80738110Y-48800043D02*
X80746253Y-48777389D01*
M02*
