G04 #@! TF.GenerationSoftware,KiCad,Pcbnew,5.1.5+dfsg1-2build2*
G04 #@! TF.CreationDate,2020-06-21T17:38:59+02:00*
G04 #@! TF.ProjectId,zigbeebox,7a696762-6565-4626-9f78-2e6b69636164,rev?*
G04 #@! TF.SameCoordinates,Original*
G04 #@! TF.FileFunction,Copper,L1,Top*
G04 #@! TF.FilePolarity,Positive*
%FSLAX46Y46*%
G04 Gerber Fmt 4.6, Leading zero omitted, Abs format (unit mm)*
G04 Created by KiCad (PCBNEW 5.1.5+dfsg1-2build2) date 2020-06-21 17:38:59*
%MOMM*%
%LPD*%
G04 APERTURE LIST*
%ADD10C,0.100000*%
%ADD11O,1.727200X1.727200*%
%ADD12C,1.727200*%
%ADD13C,0.700000*%
%ADD14O,2.400000X0.900000*%
%ADD15O,1.700000X0.900000*%
%ADD16R,1.500000X2.000000*%
%ADD17R,3.800000X2.000000*%
%ADD18C,1.800000*%
%ADD19O,1.700000X1.700000*%
%ADD20C,1.700000*%
%ADD21R,0.700000X2.600000*%
%ADD22R,2.600000X0.700000*%
%ADD23C,5.700000*%
%ADD24C,1.000000*%
%ADD25C,0.700000*%
%ADD26C,0.800000*%
%ADD27C,0.600000*%
%ADD28C,0.450000*%
%ADD29C,0.254000*%
G04 APERTURE END LIST*
G04 #@! TA.AperFunction,ComponentPad*
D10*
G36*
X112821124Y-58608229D02*
G01*
X112863040Y-58614447D01*
X112904145Y-58624743D01*
X112944043Y-58639019D01*
X112982349Y-58657136D01*
X113018695Y-58678921D01*
X113052731Y-58704164D01*
X113084129Y-58732621D01*
X113112586Y-58764019D01*
X113137829Y-58798055D01*
X113159614Y-58834401D01*
X113177731Y-58872707D01*
X113192007Y-58912605D01*
X113202303Y-58953710D01*
X113208521Y-58995626D01*
X113210600Y-59037950D01*
X113210600Y-59901550D01*
X113208521Y-59943874D01*
X113202303Y-59985790D01*
X113192007Y-60026895D01*
X113177731Y-60066793D01*
X113159614Y-60105099D01*
X113137829Y-60141445D01*
X113112586Y-60175481D01*
X113084129Y-60206879D01*
X113052731Y-60235336D01*
X113018695Y-60260579D01*
X112982349Y-60282364D01*
X112944043Y-60300481D01*
X112904145Y-60314757D01*
X112863040Y-60325053D01*
X112821124Y-60331271D01*
X112778800Y-60333350D01*
X111915200Y-60333350D01*
X111872876Y-60331271D01*
X111830960Y-60325053D01*
X111789855Y-60314757D01*
X111749957Y-60300481D01*
X111711651Y-60282364D01*
X111675305Y-60260579D01*
X111641269Y-60235336D01*
X111609871Y-60206879D01*
X111581414Y-60175481D01*
X111556171Y-60141445D01*
X111534386Y-60105099D01*
X111516269Y-60066793D01*
X111501993Y-60026895D01*
X111491697Y-59985790D01*
X111485479Y-59943874D01*
X111483400Y-59901550D01*
X111483400Y-59037950D01*
X111485479Y-58995626D01*
X111491697Y-58953710D01*
X111501993Y-58912605D01*
X111516269Y-58872707D01*
X111534386Y-58834401D01*
X111556171Y-58798055D01*
X111581414Y-58764019D01*
X111609871Y-58732621D01*
X111641269Y-58704164D01*
X111675305Y-58678921D01*
X111711651Y-58657136D01*
X111749957Y-58639019D01*
X111789855Y-58624743D01*
X111830960Y-58614447D01*
X111872876Y-58608229D01*
X111915200Y-58606150D01*
X112778800Y-58606150D01*
X112821124Y-58608229D01*
G37*
G04 #@! TD.AperFunction*
D11*
X114887000Y-59469750D03*
G04 #@! TA.AperFunction,ComponentPad*
D10*
G36*
X112821124Y-61148229D02*
G01*
X112863040Y-61154447D01*
X112904145Y-61164743D01*
X112944043Y-61179019D01*
X112982349Y-61197136D01*
X113018695Y-61218921D01*
X113052731Y-61244164D01*
X113084129Y-61272621D01*
X113112586Y-61304019D01*
X113137829Y-61338055D01*
X113159614Y-61374401D01*
X113177731Y-61412707D01*
X113192007Y-61452605D01*
X113202303Y-61493710D01*
X113208521Y-61535626D01*
X113210600Y-61577950D01*
X113210600Y-62441550D01*
X113208521Y-62483874D01*
X113202303Y-62525790D01*
X113192007Y-62566895D01*
X113177731Y-62606793D01*
X113159614Y-62645099D01*
X113137829Y-62681445D01*
X113112586Y-62715481D01*
X113084129Y-62746879D01*
X113052731Y-62775336D01*
X113018695Y-62800579D01*
X112982349Y-62822364D01*
X112944043Y-62840481D01*
X112904145Y-62854757D01*
X112863040Y-62865053D01*
X112821124Y-62871271D01*
X112778800Y-62873350D01*
X111915200Y-62873350D01*
X111872876Y-62871271D01*
X111830960Y-62865053D01*
X111789855Y-62854757D01*
X111749957Y-62840481D01*
X111711651Y-62822364D01*
X111675305Y-62800579D01*
X111641269Y-62775336D01*
X111609871Y-62746879D01*
X111581414Y-62715481D01*
X111556171Y-62681445D01*
X111534386Y-62645099D01*
X111516269Y-62606793D01*
X111501993Y-62566895D01*
X111491697Y-62525790D01*
X111485479Y-62483874D01*
X111483400Y-62441550D01*
X111483400Y-61577950D01*
X111485479Y-61535626D01*
X111491697Y-61493710D01*
X111501993Y-61452605D01*
X111516269Y-61412707D01*
X111534386Y-61374401D01*
X111556171Y-61338055D01*
X111581414Y-61304019D01*
X111609871Y-61272621D01*
X111641269Y-61244164D01*
X111675305Y-61218921D01*
X111711651Y-61197136D01*
X111749957Y-61179019D01*
X111789855Y-61164743D01*
X111830960Y-61154447D01*
X111872876Y-61148229D01*
X111915200Y-61146150D01*
X112778800Y-61146150D01*
X112821124Y-61148229D01*
G37*
G04 #@! TD.AperFunction*
D11*
X114887000Y-62009750D03*
G04 #@! TA.AperFunction,ComponentPad*
D10*
G36*
X112821124Y-63688229D02*
G01*
X112863040Y-63694447D01*
X112904145Y-63704743D01*
X112944043Y-63719019D01*
X112982349Y-63737136D01*
X113018695Y-63758921D01*
X113052731Y-63784164D01*
X113084129Y-63812621D01*
X113112586Y-63844019D01*
X113137829Y-63878055D01*
X113159614Y-63914401D01*
X113177731Y-63952707D01*
X113192007Y-63992605D01*
X113202303Y-64033710D01*
X113208521Y-64075626D01*
X113210600Y-64117950D01*
X113210600Y-64981550D01*
X113208521Y-65023874D01*
X113202303Y-65065790D01*
X113192007Y-65106895D01*
X113177731Y-65146793D01*
X113159614Y-65185099D01*
X113137829Y-65221445D01*
X113112586Y-65255481D01*
X113084129Y-65286879D01*
X113052731Y-65315336D01*
X113018695Y-65340579D01*
X112982349Y-65362364D01*
X112944043Y-65380481D01*
X112904145Y-65394757D01*
X112863040Y-65405053D01*
X112821124Y-65411271D01*
X112778800Y-65413350D01*
X111915200Y-65413350D01*
X111872876Y-65411271D01*
X111830960Y-65405053D01*
X111789855Y-65394757D01*
X111749957Y-65380481D01*
X111711651Y-65362364D01*
X111675305Y-65340579D01*
X111641269Y-65315336D01*
X111609871Y-65286879D01*
X111581414Y-65255481D01*
X111556171Y-65221445D01*
X111534386Y-65185099D01*
X111516269Y-65146793D01*
X111501993Y-65106895D01*
X111491697Y-65065790D01*
X111485479Y-65023874D01*
X111483400Y-64981550D01*
X111483400Y-64117950D01*
X111485479Y-64075626D01*
X111491697Y-64033710D01*
X111501993Y-63992605D01*
X111516269Y-63952707D01*
X111534386Y-63914401D01*
X111556171Y-63878055D01*
X111581414Y-63844019D01*
X111609871Y-63812621D01*
X111641269Y-63784164D01*
X111675305Y-63758921D01*
X111711651Y-63737136D01*
X111749957Y-63719019D01*
X111789855Y-63704743D01*
X111830960Y-63694447D01*
X111872876Y-63688229D01*
X111915200Y-63686150D01*
X112778800Y-63686150D01*
X112821124Y-63688229D01*
G37*
G04 #@! TD.AperFunction*
D11*
X114887000Y-64549750D03*
G04 #@! TA.AperFunction,ComponentPad*
D10*
G36*
X112821124Y-66228229D02*
G01*
X112863040Y-66234447D01*
X112904145Y-66244743D01*
X112944043Y-66259019D01*
X112982349Y-66277136D01*
X113018695Y-66298921D01*
X113052731Y-66324164D01*
X113084129Y-66352621D01*
X113112586Y-66384019D01*
X113137829Y-66418055D01*
X113159614Y-66454401D01*
X113177731Y-66492707D01*
X113192007Y-66532605D01*
X113202303Y-66573710D01*
X113208521Y-66615626D01*
X113210600Y-66657950D01*
X113210600Y-67521550D01*
X113208521Y-67563874D01*
X113202303Y-67605790D01*
X113192007Y-67646895D01*
X113177731Y-67686793D01*
X113159614Y-67725099D01*
X113137829Y-67761445D01*
X113112586Y-67795481D01*
X113084129Y-67826879D01*
X113052731Y-67855336D01*
X113018695Y-67880579D01*
X112982349Y-67902364D01*
X112944043Y-67920481D01*
X112904145Y-67934757D01*
X112863040Y-67945053D01*
X112821124Y-67951271D01*
X112778800Y-67953350D01*
X111915200Y-67953350D01*
X111872876Y-67951271D01*
X111830960Y-67945053D01*
X111789855Y-67934757D01*
X111749957Y-67920481D01*
X111711651Y-67902364D01*
X111675305Y-67880579D01*
X111641269Y-67855336D01*
X111609871Y-67826879D01*
X111581414Y-67795481D01*
X111556171Y-67761445D01*
X111534386Y-67725099D01*
X111516269Y-67686793D01*
X111501993Y-67646895D01*
X111491697Y-67605790D01*
X111485479Y-67563874D01*
X111483400Y-67521550D01*
X111483400Y-66657950D01*
X111485479Y-66615626D01*
X111491697Y-66573710D01*
X111501993Y-66532605D01*
X111516269Y-66492707D01*
X111534386Y-66454401D01*
X111556171Y-66418055D01*
X111581414Y-66384019D01*
X111609871Y-66352621D01*
X111641269Y-66324164D01*
X111675305Y-66298921D01*
X111711651Y-66277136D01*
X111749957Y-66259019D01*
X111789855Y-66244743D01*
X111830960Y-66234447D01*
X111872876Y-66228229D01*
X111915200Y-66226150D01*
X112778800Y-66226150D01*
X112821124Y-66228229D01*
G37*
G04 #@! TD.AperFunction*
D11*
X114887000Y-67089750D03*
G04 #@! TA.AperFunction,ComponentPad*
D10*
G36*
X112821124Y-68768229D02*
G01*
X112863040Y-68774447D01*
X112904145Y-68784743D01*
X112944043Y-68799019D01*
X112982349Y-68817136D01*
X113018695Y-68838921D01*
X113052731Y-68864164D01*
X113084129Y-68892621D01*
X113112586Y-68924019D01*
X113137829Y-68958055D01*
X113159614Y-68994401D01*
X113177731Y-69032707D01*
X113192007Y-69072605D01*
X113202303Y-69113710D01*
X113208521Y-69155626D01*
X113210600Y-69197950D01*
X113210600Y-70061550D01*
X113208521Y-70103874D01*
X113202303Y-70145790D01*
X113192007Y-70186895D01*
X113177731Y-70226793D01*
X113159614Y-70265099D01*
X113137829Y-70301445D01*
X113112586Y-70335481D01*
X113084129Y-70366879D01*
X113052731Y-70395336D01*
X113018695Y-70420579D01*
X112982349Y-70442364D01*
X112944043Y-70460481D01*
X112904145Y-70474757D01*
X112863040Y-70485053D01*
X112821124Y-70491271D01*
X112778800Y-70493350D01*
X111915200Y-70493350D01*
X111872876Y-70491271D01*
X111830960Y-70485053D01*
X111789855Y-70474757D01*
X111749957Y-70460481D01*
X111711651Y-70442364D01*
X111675305Y-70420579D01*
X111641269Y-70395336D01*
X111609871Y-70366879D01*
X111581414Y-70335481D01*
X111556171Y-70301445D01*
X111534386Y-70265099D01*
X111516269Y-70226793D01*
X111501993Y-70186895D01*
X111491697Y-70145790D01*
X111485479Y-70103874D01*
X111483400Y-70061550D01*
X111483400Y-69197950D01*
X111485479Y-69155626D01*
X111491697Y-69113710D01*
X111501993Y-69072605D01*
X111516269Y-69032707D01*
X111534386Y-68994401D01*
X111556171Y-68958055D01*
X111581414Y-68924019D01*
X111609871Y-68892621D01*
X111641269Y-68864164D01*
X111675305Y-68838921D01*
X111711651Y-68817136D01*
X111749957Y-68799019D01*
X111789855Y-68784743D01*
X111830960Y-68774447D01*
X111872876Y-68768229D01*
X111915200Y-68766150D01*
X112778800Y-68766150D01*
X112821124Y-68768229D01*
G37*
G04 #@! TD.AperFunction*
D11*
X114887000Y-69629750D03*
G04 #@! TA.AperFunction,ComponentPad*
D10*
G36*
X112821124Y-71308229D02*
G01*
X112863040Y-71314447D01*
X112904145Y-71324743D01*
X112944043Y-71339019D01*
X112982349Y-71357136D01*
X113018695Y-71378921D01*
X113052731Y-71404164D01*
X113084129Y-71432621D01*
X113112586Y-71464019D01*
X113137829Y-71498055D01*
X113159614Y-71534401D01*
X113177731Y-71572707D01*
X113192007Y-71612605D01*
X113202303Y-71653710D01*
X113208521Y-71695626D01*
X113210600Y-71737950D01*
X113210600Y-72601550D01*
X113208521Y-72643874D01*
X113202303Y-72685790D01*
X113192007Y-72726895D01*
X113177731Y-72766793D01*
X113159614Y-72805099D01*
X113137829Y-72841445D01*
X113112586Y-72875481D01*
X113084129Y-72906879D01*
X113052731Y-72935336D01*
X113018695Y-72960579D01*
X112982349Y-72982364D01*
X112944043Y-73000481D01*
X112904145Y-73014757D01*
X112863040Y-73025053D01*
X112821124Y-73031271D01*
X112778800Y-73033350D01*
X111915200Y-73033350D01*
X111872876Y-73031271D01*
X111830960Y-73025053D01*
X111789855Y-73014757D01*
X111749957Y-73000481D01*
X111711651Y-72982364D01*
X111675305Y-72960579D01*
X111641269Y-72935336D01*
X111609871Y-72906879D01*
X111581414Y-72875481D01*
X111556171Y-72841445D01*
X111534386Y-72805099D01*
X111516269Y-72766793D01*
X111501993Y-72726895D01*
X111491697Y-72685790D01*
X111485479Y-72643874D01*
X111483400Y-72601550D01*
X111483400Y-71737950D01*
X111485479Y-71695626D01*
X111491697Y-71653710D01*
X111501993Y-71612605D01*
X111516269Y-71572707D01*
X111534386Y-71534401D01*
X111556171Y-71498055D01*
X111581414Y-71464019D01*
X111609871Y-71432621D01*
X111641269Y-71404164D01*
X111675305Y-71378921D01*
X111711651Y-71357136D01*
X111749957Y-71339019D01*
X111789855Y-71324743D01*
X111830960Y-71314447D01*
X111872876Y-71308229D01*
X111915200Y-71306150D01*
X112778800Y-71306150D01*
X112821124Y-71308229D01*
G37*
G04 #@! TD.AperFunction*
D11*
X114887000Y-72169750D03*
G04 #@! TA.AperFunction,ComponentPad*
D10*
G36*
X112821124Y-73848229D02*
G01*
X112863040Y-73854447D01*
X112904145Y-73864743D01*
X112944043Y-73879019D01*
X112982349Y-73897136D01*
X113018695Y-73918921D01*
X113052731Y-73944164D01*
X113084129Y-73972621D01*
X113112586Y-74004019D01*
X113137829Y-74038055D01*
X113159614Y-74074401D01*
X113177731Y-74112707D01*
X113192007Y-74152605D01*
X113202303Y-74193710D01*
X113208521Y-74235626D01*
X113210600Y-74277950D01*
X113210600Y-75141550D01*
X113208521Y-75183874D01*
X113202303Y-75225790D01*
X113192007Y-75266895D01*
X113177731Y-75306793D01*
X113159614Y-75345099D01*
X113137829Y-75381445D01*
X113112586Y-75415481D01*
X113084129Y-75446879D01*
X113052731Y-75475336D01*
X113018695Y-75500579D01*
X112982349Y-75522364D01*
X112944043Y-75540481D01*
X112904145Y-75554757D01*
X112863040Y-75565053D01*
X112821124Y-75571271D01*
X112778800Y-75573350D01*
X111915200Y-75573350D01*
X111872876Y-75571271D01*
X111830960Y-75565053D01*
X111789855Y-75554757D01*
X111749957Y-75540481D01*
X111711651Y-75522364D01*
X111675305Y-75500579D01*
X111641269Y-75475336D01*
X111609871Y-75446879D01*
X111581414Y-75415481D01*
X111556171Y-75381445D01*
X111534386Y-75345099D01*
X111516269Y-75306793D01*
X111501993Y-75266895D01*
X111491697Y-75225790D01*
X111485479Y-75183874D01*
X111483400Y-75141550D01*
X111483400Y-74277950D01*
X111485479Y-74235626D01*
X111491697Y-74193710D01*
X111501993Y-74152605D01*
X111516269Y-74112707D01*
X111534386Y-74074401D01*
X111556171Y-74038055D01*
X111581414Y-74004019D01*
X111609871Y-73972621D01*
X111641269Y-73944164D01*
X111675305Y-73918921D01*
X111711651Y-73897136D01*
X111749957Y-73879019D01*
X111789855Y-73864743D01*
X111830960Y-73854447D01*
X111872876Y-73848229D01*
X111915200Y-73846150D01*
X112778800Y-73846150D01*
X112821124Y-73848229D01*
G37*
G04 #@! TD.AperFunction*
D11*
X114887000Y-74709750D03*
G04 #@! TA.AperFunction,ComponentPad*
D10*
G36*
X112821124Y-76388229D02*
G01*
X112863040Y-76394447D01*
X112904145Y-76404743D01*
X112944043Y-76419019D01*
X112982349Y-76437136D01*
X113018695Y-76458921D01*
X113052731Y-76484164D01*
X113084129Y-76512621D01*
X113112586Y-76544019D01*
X113137829Y-76578055D01*
X113159614Y-76614401D01*
X113177731Y-76652707D01*
X113192007Y-76692605D01*
X113202303Y-76733710D01*
X113208521Y-76775626D01*
X113210600Y-76817950D01*
X113210600Y-77681550D01*
X113208521Y-77723874D01*
X113202303Y-77765790D01*
X113192007Y-77806895D01*
X113177731Y-77846793D01*
X113159614Y-77885099D01*
X113137829Y-77921445D01*
X113112586Y-77955481D01*
X113084129Y-77986879D01*
X113052731Y-78015336D01*
X113018695Y-78040579D01*
X112982349Y-78062364D01*
X112944043Y-78080481D01*
X112904145Y-78094757D01*
X112863040Y-78105053D01*
X112821124Y-78111271D01*
X112778800Y-78113350D01*
X111915200Y-78113350D01*
X111872876Y-78111271D01*
X111830960Y-78105053D01*
X111789855Y-78094757D01*
X111749957Y-78080481D01*
X111711651Y-78062364D01*
X111675305Y-78040579D01*
X111641269Y-78015336D01*
X111609871Y-77986879D01*
X111581414Y-77955481D01*
X111556171Y-77921445D01*
X111534386Y-77885099D01*
X111516269Y-77846793D01*
X111501993Y-77806895D01*
X111491697Y-77765790D01*
X111485479Y-77723874D01*
X111483400Y-77681550D01*
X111483400Y-76817950D01*
X111485479Y-76775626D01*
X111491697Y-76733710D01*
X111501993Y-76692605D01*
X111516269Y-76652707D01*
X111534386Y-76614401D01*
X111556171Y-76578055D01*
X111581414Y-76544019D01*
X111609871Y-76512621D01*
X111641269Y-76484164D01*
X111675305Y-76458921D01*
X111711651Y-76437136D01*
X111749957Y-76419019D01*
X111789855Y-76404743D01*
X111830960Y-76394447D01*
X111872876Y-76388229D01*
X111915200Y-76386150D01*
X112778800Y-76386150D01*
X112821124Y-76388229D01*
G37*
G04 #@! TD.AperFunction*
D11*
X114887000Y-77249750D03*
G04 #@! TA.AperFunction,ComponentPad*
D10*
G36*
X112821124Y-78928229D02*
G01*
X112863040Y-78934447D01*
X112904145Y-78944743D01*
X112944043Y-78959019D01*
X112982349Y-78977136D01*
X113018695Y-78998921D01*
X113052731Y-79024164D01*
X113084129Y-79052621D01*
X113112586Y-79084019D01*
X113137829Y-79118055D01*
X113159614Y-79154401D01*
X113177731Y-79192707D01*
X113192007Y-79232605D01*
X113202303Y-79273710D01*
X113208521Y-79315626D01*
X113210600Y-79357950D01*
X113210600Y-80221550D01*
X113208521Y-80263874D01*
X113202303Y-80305790D01*
X113192007Y-80346895D01*
X113177731Y-80386793D01*
X113159614Y-80425099D01*
X113137829Y-80461445D01*
X113112586Y-80495481D01*
X113084129Y-80526879D01*
X113052731Y-80555336D01*
X113018695Y-80580579D01*
X112982349Y-80602364D01*
X112944043Y-80620481D01*
X112904145Y-80634757D01*
X112863040Y-80645053D01*
X112821124Y-80651271D01*
X112778800Y-80653350D01*
X111915200Y-80653350D01*
X111872876Y-80651271D01*
X111830960Y-80645053D01*
X111789855Y-80634757D01*
X111749957Y-80620481D01*
X111711651Y-80602364D01*
X111675305Y-80580579D01*
X111641269Y-80555336D01*
X111609871Y-80526879D01*
X111581414Y-80495481D01*
X111556171Y-80461445D01*
X111534386Y-80425099D01*
X111516269Y-80386793D01*
X111501993Y-80346895D01*
X111491697Y-80305790D01*
X111485479Y-80263874D01*
X111483400Y-80221550D01*
X111483400Y-79357950D01*
X111485479Y-79315626D01*
X111491697Y-79273710D01*
X111501993Y-79232605D01*
X111516269Y-79192707D01*
X111534386Y-79154401D01*
X111556171Y-79118055D01*
X111581414Y-79084019D01*
X111609871Y-79052621D01*
X111641269Y-79024164D01*
X111675305Y-78998921D01*
X111711651Y-78977136D01*
X111749957Y-78959019D01*
X111789855Y-78944743D01*
X111830960Y-78934447D01*
X111872876Y-78928229D01*
X111915200Y-78926150D01*
X112778800Y-78926150D01*
X112821124Y-78928229D01*
G37*
G04 #@! TD.AperFunction*
D11*
X114887000Y-79789750D03*
X112347000Y-82329750D03*
D12*
X114887000Y-82329750D03*
D13*
X88011000Y-68049750D03*
X88011000Y-68899750D03*
X88011000Y-69749750D03*
X88011000Y-70599750D03*
X88011000Y-71449750D03*
X88011000Y-72299750D03*
X88011000Y-73149750D03*
X88011000Y-73999750D03*
X86661000Y-68899750D03*
X86661000Y-70599750D03*
X86661000Y-69749750D03*
X86661000Y-68049750D03*
X86661000Y-72299750D03*
X86661000Y-73149750D03*
X86661000Y-73999750D03*
X86661000Y-71449750D03*
D14*
X87031000Y-66699750D03*
X87031000Y-75349750D03*
D15*
X83651000Y-66699750D03*
X83651000Y-75349750D03*
G04 #@! TA.AperFunction,SMDPad,CuDef*
D10*
G36*
X101995504Y-82067954D02*
G01*
X102019773Y-82071554D01*
X102043571Y-82077515D01*
X102066671Y-82085780D01*
X102088849Y-82096270D01*
X102109893Y-82108883D01*
X102129598Y-82123497D01*
X102147777Y-82139973D01*
X102164253Y-82158152D01*
X102178867Y-82177857D01*
X102191480Y-82198901D01*
X102201970Y-82221079D01*
X102210235Y-82244179D01*
X102216196Y-82267977D01*
X102219796Y-82292246D01*
X102221000Y-82316750D01*
X102221000Y-83241750D01*
X102219796Y-83266254D01*
X102216196Y-83290523D01*
X102210235Y-83314321D01*
X102201970Y-83337421D01*
X102191480Y-83359599D01*
X102178867Y-83380643D01*
X102164253Y-83400348D01*
X102147777Y-83418527D01*
X102129598Y-83435003D01*
X102109893Y-83449617D01*
X102088849Y-83462230D01*
X102066671Y-83472720D01*
X102043571Y-83480985D01*
X102019773Y-83486946D01*
X101995504Y-83490546D01*
X101971000Y-83491750D01*
X100721000Y-83491750D01*
X100696496Y-83490546D01*
X100672227Y-83486946D01*
X100648429Y-83480985D01*
X100625329Y-83472720D01*
X100603151Y-83462230D01*
X100582107Y-83449617D01*
X100562402Y-83435003D01*
X100544223Y-83418527D01*
X100527747Y-83400348D01*
X100513133Y-83380643D01*
X100500520Y-83359599D01*
X100490030Y-83337421D01*
X100481765Y-83314321D01*
X100475804Y-83290523D01*
X100472204Y-83266254D01*
X100471000Y-83241750D01*
X100471000Y-82316750D01*
X100472204Y-82292246D01*
X100475804Y-82267977D01*
X100481765Y-82244179D01*
X100490030Y-82221079D01*
X100500520Y-82198901D01*
X100513133Y-82177857D01*
X100527747Y-82158152D01*
X100544223Y-82139973D01*
X100562402Y-82123497D01*
X100582107Y-82108883D01*
X100603151Y-82096270D01*
X100625329Y-82085780D01*
X100648429Y-82077515D01*
X100672227Y-82071554D01*
X100696496Y-82067954D01*
X100721000Y-82066750D01*
X101971000Y-82066750D01*
X101995504Y-82067954D01*
G37*
G04 #@! TD.AperFunction*
G04 #@! TA.AperFunction,SMDPad,CuDef*
G36*
X101995504Y-79092954D02*
G01*
X102019773Y-79096554D01*
X102043571Y-79102515D01*
X102066671Y-79110780D01*
X102088849Y-79121270D01*
X102109893Y-79133883D01*
X102129598Y-79148497D01*
X102147777Y-79164973D01*
X102164253Y-79183152D01*
X102178867Y-79202857D01*
X102191480Y-79223901D01*
X102201970Y-79246079D01*
X102210235Y-79269179D01*
X102216196Y-79292977D01*
X102219796Y-79317246D01*
X102221000Y-79341750D01*
X102221000Y-80266750D01*
X102219796Y-80291254D01*
X102216196Y-80315523D01*
X102210235Y-80339321D01*
X102201970Y-80362421D01*
X102191480Y-80384599D01*
X102178867Y-80405643D01*
X102164253Y-80425348D01*
X102147777Y-80443527D01*
X102129598Y-80460003D01*
X102109893Y-80474617D01*
X102088849Y-80487230D01*
X102066671Y-80497720D01*
X102043571Y-80505985D01*
X102019773Y-80511946D01*
X101995504Y-80515546D01*
X101971000Y-80516750D01*
X100721000Y-80516750D01*
X100696496Y-80515546D01*
X100672227Y-80511946D01*
X100648429Y-80505985D01*
X100625329Y-80497720D01*
X100603151Y-80487230D01*
X100582107Y-80474617D01*
X100562402Y-80460003D01*
X100544223Y-80443527D01*
X100527747Y-80425348D01*
X100513133Y-80405643D01*
X100500520Y-80384599D01*
X100490030Y-80362421D01*
X100481765Y-80339321D01*
X100475804Y-80315523D01*
X100472204Y-80291254D01*
X100471000Y-80266750D01*
X100471000Y-79341750D01*
X100472204Y-79317246D01*
X100475804Y-79292977D01*
X100481765Y-79269179D01*
X100490030Y-79246079D01*
X100500520Y-79223901D01*
X100513133Y-79202857D01*
X100527747Y-79183152D01*
X100544223Y-79164973D01*
X100562402Y-79148497D01*
X100582107Y-79133883D01*
X100603151Y-79121270D01*
X100625329Y-79110780D01*
X100648429Y-79102515D01*
X100672227Y-79096554D01*
X100696496Y-79092954D01*
X100721000Y-79091750D01*
X101971000Y-79091750D01*
X101995504Y-79092954D01*
G37*
G04 #@! TD.AperFunction*
G04 #@! TA.AperFunction,SMDPad,CuDef*
G36*
X95483004Y-65166204D02*
G01*
X95507273Y-65169804D01*
X95531071Y-65175765D01*
X95554171Y-65184030D01*
X95576349Y-65194520D01*
X95597393Y-65207133D01*
X95617098Y-65221747D01*
X95635277Y-65238223D01*
X95651753Y-65256402D01*
X95666367Y-65276107D01*
X95678980Y-65297151D01*
X95689470Y-65319329D01*
X95697735Y-65342429D01*
X95703696Y-65366227D01*
X95707296Y-65390496D01*
X95708500Y-65415000D01*
X95708500Y-66665000D01*
X95707296Y-66689504D01*
X95703696Y-66713773D01*
X95697735Y-66737571D01*
X95689470Y-66760671D01*
X95678980Y-66782849D01*
X95666367Y-66803893D01*
X95651753Y-66823598D01*
X95635277Y-66841777D01*
X95617098Y-66858253D01*
X95597393Y-66872867D01*
X95576349Y-66885480D01*
X95554171Y-66895970D01*
X95531071Y-66904235D01*
X95507273Y-66910196D01*
X95483004Y-66913796D01*
X95458500Y-66915000D01*
X94533500Y-66915000D01*
X94508996Y-66913796D01*
X94484727Y-66910196D01*
X94460929Y-66904235D01*
X94437829Y-66895970D01*
X94415651Y-66885480D01*
X94394607Y-66872867D01*
X94374902Y-66858253D01*
X94356723Y-66841777D01*
X94340247Y-66823598D01*
X94325633Y-66803893D01*
X94313020Y-66782849D01*
X94302530Y-66760671D01*
X94294265Y-66737571D01*
X94288304Y-66713773D01*
X94284704Y-66689504D01*
X94283500Y-66665000D01*
X94283500Y-65415000D01*
X94284704Y-65390496D01*
X94288304Y-65366227D01*
X94294265Y-65342429D01*
X94302530Y-65319329D01*
X94313020Y-65297151D01*
X94325633Y-65276107D01*
X94340247Y-65256402D01*
X94356723Y-65238223D01*
X94374902Y-65221747D01*
X94394607Y-65207133D01*
X94415651Y-65194520D01*
X94437829Y-65184030D01*
X94460929Y-65175765D01*
X94484727Y-65169804D01*
X94508996Y-65166204D01*
X94533500Y-65165000D01*
X95458500Y-65165000D01*
X95483004Y-65166204D01*
G37*
G04 #@! TD.AperFunction*
G04 #@! TA.AperFunction,SMDPad,CuDef*
G36*
X92508004Y-65166204D02*
G01*
X92532273Y-65169804D01*
X92556071Y-65175765D01*
X92579171Y-65184030D01*
X92601349Y-65194520D01*
X92622393Y-65207133D01*
X92642098Y-65221747D01*
X92660277Y-65238223D01*
X92676753Y-65256402D01*
X92691367Y-65276107D01*
X92703980Y-65297151D01*
X92714470Y-65319329D01*
X92722735Y-65342429D01*
X92728696Y-65366227D01*
X92732296Y-65390496D01*
X92733500Y-65415000D01*
X92733500Y-66665000D01*
X92732296Y-66689504D01*
X92728696Y-66713773D01*
X92722735Y-66737571D01*
X92714470Y-66760671D01*
X92703980Y-66782849D01*
X92691367Y-66803893D01*
X92676753Y-66823598D01*
X92660277Y-66841777D01*
X92642098Y-66858253D01*
X92622393Y-66872867D01*
X92601349Y-66885480D01*
X92579171Y-66895970D01*
X92556071Y-66904235D01*
X92532273Y-66910196D01*
X92508004Y-66913796D01*
X92483500Y-66915000D01*
X91558500Y-66915000D01*
X91533996Y-66913796D01*
X91509727Y-66910196D01*
X91485929Y-66904235D01*
X91462829Y-66895970D01*
X91440651Y-66885480D01*
X91419607Y-66872867D01*
X91399902Y-66858253D01*
X91381723Y-66841777D01*
X91365247Y-66823598D01*
X91350633Y-66803893D01*
X91338020Y-66782849D01*
X91327530Y-66760671D01*
X91319265Y-66737571D01*
X91313304Y-66713773D01*
X91309704Y-66689504D01*
X91308500Y-66665000D01*
X91308500Y-65415000D01*
X91309704Y-65390496D01*
X91313304Y-65366227D01*
X91319265Y-65342429D01*
X91327530Y-65319329D01*
X91338020Y-65297151D01*
X91350633Y-65276107D01*
X91365247Y-65256402D01*
X91381723Y-65238223D01*
X91399902Y-65221747D01*
X91419607Y-65207133D01*
X91440651Y-65194520D01*
X91462829Y-65184030D01*
X91485929Y-65175765D01*
X91509727Y-65169804D01*
X91533996Y-65166204D01*
X91558500Y-65165000D01*
X92483500Y-65165000D01*
X92508004Y-65166204D01*
G37*
G04 #@! TD.AperFunction*
G04 #@! TA.AperFunction,SMDPad,CuDef*
G36*
X137331324Y-85740204D02*
G01*
X137355593Y-85743804D01*
X137379391Y-85749765D01*
X137402491Y-85758030D01*
X137424669Y-85768520D01*
X137445713Y-85781133D01*
X137465418Y-85795747D01*
X137483597Y-85812223D01*
X137500073Y-85830402D01*
X137514687Y-85850107D01*
X137527300Y-85871151D01*
X137537790Y-85893329D01*
X137546055Y-85916429D01*
X137552016Y-85940227D01*
X137555616Y-85964496D01*
X137556820Y-85989000D01*
X137556820Y-87239000D01*
X137555616Y-87263504D01*
X137552016Y-87287773D01*
X137546055Y-87311571D01*
X137537790Y-87334671D01*
X137527300Y-87356849D01*
X137514687Y-87377893D01*
X137500073Y-87397598D01*
X137483597Y-87415777D01*
X137465418Y-87432253D01*
X137445713Y-87446867D01*
X137424669Y-87459480D01*
X137402491Y-87469970D01*
X137379391Y-87478235D01*
X137355593Y-87484196D01*
X137331324Y-87487796D01*
X137306820Y-87489000D01*
X136381820Y-87489000D01*
X136357316Y-87487796D01*
X136333047Y-87484196D01*
X136309249Y-87478235D01*
X136286149Y-87469970D01*
X136263971Y-87459480D01*
X136242927Y-87446867D01*
X136223222Y-87432253D01*
X136205043Y-87415777D01*
X136188567Y-87397598D01*
X136173953Y-87377893D01*
X136161340Y-87356849D01*
X136150850Y-87334671D01*
X136142585Y-87311571D01*
X136136624Y-87287773D01*
X136133024Y-87263504D01*
X136131820Y-87239000D01*
X136131820Y-85989000D01*
X136133024Y-85964496D01*
X136136624Y-85940227D01*
X136142585Y-85916429D01*
X136150850Y-85893329D01*
X136161340Y-85871151D01*
X136173953Y-85850107D01*
X136188567Y-85830402D01*
X136205043Y-85812223D01*
X136223222Y-85795747D01*
X136242927Y-85781133D01*
X136263971Y-85768520D01*
X136286149Y-85758030D01*
X136309249Y-85749765D01*
X136333047Y-85743804D01*
X136357316Y-85740204D01*
X136381820Y-85739000D01*
X137306820Y-85739000D01*
X137331324Y-85740204D01*
G37*
G04 #@! TD.AperFunction*
G04 #@! TA.AperFunction,SMDPad,CuDef*
G36*
X140306324Y-85740204D02*
G01*
X140330593Y-85743804D01*
X140354391Y-85749765D01*
X140377491Y-85758030D01*
X140399669Y-85768520D01*
X140420713Y-85781133D01*
X140440418Y-85795747D01*
X140458597Y-85812223D01*
X140475073Y-85830402D01*
X140489687Y-85850107D01*
X140502300Y-85871151D01*
X140512790Y-85893329D01*
X140521055Y-85916429D01*
X140527016Y-85940227D01*
X140530616Y-85964496D01*
X140531820Y-85989000D01*
X140531820Y-87239000D01*
X140530616Y-87263504D01*
X140527016Y-87287773D01*
X140521055Y-87311571D01*
X140512790Y-87334671D01*
X140502300Y-87356849D01*
X140489687Y-87377893D01*
X140475073Y-87397598D01*
X140458597Y-87415777D01*
X140440418Y-87432253D01*
X140420713Y-87446867D01*
X140399669Y-87459480D01*
X140377491Y-87469970D01*
X140354391Y-87478235D01*
X140330593Y-87484196D01*
X140306324Y-87487796D01*
X140281820Y-87489000D01*
X139356820Y-87489000D01*
X139332316Y-87487796D01*
X139308047Y-87484196D01*
X139284249Y-87478235D01*
X139261149Y-87469970D01*
X139238971Y-87459480D01*
X139217927Y-87446867D01*
X139198222Y-87432253D01*
X139180043Y-87415777D01*
X139163567Y-87397598D01*
X139148953Y-87377893D01*
X139136340Y-87356849D01*
X139125850Y-87334671D01*
X139117585Y-87311571D01*
X139111624Y-87287773D01*
X139108024Y-87263504D01*
X139106820Y-87239000D01*
X139106820Y-85989000D01*
X139108024Y-85964496D01*
X139111624Y-85940227D01*
X139117585Y-85916429D01*
X139125850Y-85893329D01*
X139136340Y-85871151D01*
X139148953Y-85850107D01*
X139163567Y-85830402D01*
X139180043Y-85812223D01*
X139198222Y-85795747D01*
X139217927Y-85781133D01*
X139238971Y-85768520D01*
X139261149Y-85758030D01*
X139284249Y-85749765D01*
X139308047Y-85743804D01*
X139332316Y-85740204D01*
X139356820Y-85739000D01*
X140281820Y-85739000D01*
X140306324Y-85740204D01*
G37*
G04 #@! TD.AperFunction*
G04 #@! TA.AperFunction,SMDPad,CuDef*
G36*
X92508004Y-57546204D02*
G01*
X92532273Y-57549804D01*
X92556071Y-57555765D01*
X92579171Y-57564030D01*
X92601349Y-57574520D01*
X92622393Y-57587133D01*
X92642098Y-57601747D01*
X92660277Y-57618223D01*
X92676753Y-57636402D01*
X92691367Y-57656107D01*
X92703980Y-57677151D01*
X92714470Y-57699329D01*
X92722735Y-57722429D01*
X92728696Y-57746227D01*
X92732296Y-57770496D01*
X92733500Y-57795000D01*
X92733500Y-59045000D01*
X92732296Y-59069504D01*
X92728696Y-59093773D01*
X92722735Y-59117571D01*
X92714470Y-59140671D01*
X92703980Y-59162849D01*
X92691367Y-59183893D01*
X92676753Y-59203598D01*
X92660277Y-59221777D01*
X92642098Y-59238253D01*
X92622393Y-59252867D01*
X92601349Y-59265480D01*
X92579171Y-59275970D01*
X92556071Y-59284235D01*
X92532273Y-59290196D01*
X92508004Y-59293796D01*
X92483500Y-59295000D01*
X91558500Y-59295000D01*
X91533996Y-59293796D01*
X91509727Y-59290196D01*
X91485929Y-59284235D01*
X91462829Y-59275970D01*
X91440651Y-59265480D01*
X91419607Y-59252867D01*
X91399902Y-59238253D01*
X91381723Y-59221777D01*
X91365247Y-59203598D01*
X91350633Y-59183893D01*
X91338020Y-59162849D01*
X91327530Y-59140671D01*
X91319265Y-59117571D01*
X91313304Y-59093773D01*
X91309704Y-59069504D01*
X91308500Y-59045000D01*
X91308500Y-57795000D01*
X91309704Y-57770496D01*
X91313304Y-57746227D01*
X91319265Y-57722429D01*
X91327530Y-57699329D01*
X91338020Y-57677151D01*
X91350633Y-57656107D01*
X91365247Y-57636402D01*
X91381723Y-57618223D01*
X91399902Y-57601747D01*
X91419607Y-57587133D01*
X91440651Y-57574520D01*
X91462829Y-57564030D01*
X91485929Y-57555765D01*
X91509727Y-57549804D01*
X91533996Y-57546204D01*
X91558500Y-57545000D01*
X92483500Y-57545000D01*
X92508004Y-57546204D01*
G37*
G04 #@! TD.AperFunction*
G04 #@! TA.AperFunction,SMDPad,CuDef*
G36*
X95483004Y-57546204D02*
G01*
X95507273Y-57549804D01*
X95531071Y-57555765D01*
X95554171Y-57564030D01*
X95576349Y-57574520D01*
X95597393Y-57587133D01*
X95617098Y-57601747D01*
X95635277Y-57618223D01*
X95651753Y-57636402D01*
X95666367Y-57656107D01*
X95678980Y-57677151D01*
X95689470Y-57699329D01*
X95697735Y-57722429D01*
X95703696Y-57746227D01*
X95707296Y-57770496D01*
X95708500Y-57795000D01*
X95708500Y-59045000D01*
X95707296Y-59069504D01*
X95703696Y-59093773D01*
X95697735Y-59117571D01*
X95689470Y-59140671D01*
X95678980Y-59162849D01*
X95666367Y-59183893D01*
X95651753Y-59203598D01*
X95635277Y-59221777D01*
X95617098Y-59238253D01*
X95597393Y-59252867D01*
X95576349Y-59265480D01*
X95554171Y-59275970D01*
X95531071Y-59284235D01*
X95507273Y-59290196D01*
X95483004Y-59293796D01*
X95458500Y-59295000D01*
X94533500Y-59295000D01*
X94508996Y-59293796D01*
X94484727Y-59290196D01*
X94460929Y-59284235D01*
X94437829Y-59275970D01*
X94415651Y-59265480D01*
X94394607Y-59252867D01*
X94374902Y-59238253D01*
X94356723Y-59221777D01*
X94340247Y-59203598D01*
X94325633Y-59183893D01*
X94313020Y-59162849D01*
X94302530Y-59140671D01*
X94294265Y-59117571D01*
X94288304Y-59093773D01*
X94284704Y-59069504D01*
X94283500Y-59045000D01*
X94283500Y-57795000D01*
X94284704Y-57770496D01*
X94288304Y-57746227D01*
X94294265Y-57722429D01*
X94302530Y-57699329D01*
X94313020Y-57677151D01*
X94325633Y-57656107D01*
X94340247Y-57636402D01*
X94356723Y-57618223D01*
X94374902Y-57601747D01*
X94394607Y-57587133D01*
X94415651Y-57574520D01*
X94437829Y-57564030D01*
X94460929Y-57555765D01*
X94484727Y-57549804D01*
X94508996Y-57546204D01*
X94533500Y-57545000D01*
X95458500Y-57545000D01*
X95483004Y-57546204D01*
G37*
G04 #@! TD.AperFunction*
G04 #@! TA.AperFunction,SMDPad,CuDef*
G36*
X147294104Y-56960954D02*
G01*
X147318373Y-56964554D01*
X147342171Y-56970515D01*
X147365271Y-56978780D01*
X147387449Y-56989270D01*
X147408493Y-57001883D01*
X147428198Y-57016497D01*
X147446377Y-57032973D01*
X147462853Y-57051152D01*
X147477467Y-57070857D01*
X147490080Y-57091901D01*
X147500570Y-57114079D01*
X147508835Y-57137179D01*
X147514796Y-57160977D01*
X147518396Y-57185246D01*
X147519600Y-57209750D01*
X147519600Y-58459750D01*
X147518396Y-58484254D01*
X147514796Y-58508523D01*
X147508835Y-58532321D01*
X147500570Y-58555421D01*
X147490080Y-58577599D01*
X147477467Y-58598643D01*
X147462853Y-58618348D01*
X147446377Y-58636527D01*
X147428198Y-58653003D01*
X147408493Y-58667617D01*
X147387449Y-58680230D01*
X147365271Y-58690720D01*
X147342171Y-58698985D01*
X147318373Y-58704946D01*
X147294104Y-58708546D01*
X147269600Y-58709750D01*
X146344600Y-58709750D01*
X146320096Y-58708546D01*
X146295827Y-58704946D01*
X146272029Y-58698985D01*
X146248929Y-58690720D01*
X146226751Y-58680230D01*
X146205707Y-58667617D01*
X146186002Y-58653003D01*
X146167823Y-58636527D01*
X146151347Y-58618348D01*
X146136733Y-58598643D01*
X146124120Y-58577599D01*
X146113630Y-58555421D01*
X146105365Y-58532321D01*
X146099404Y-58508523D01*
X146095804Y-58484254D01*
X146094600Y-58459750D01*
X146094600Y-57209750D01*
X146095804Y-57185246D01*
X146099404Y-57160977D01*
X146105365Y-57137179D01*
X146113630Y-57114079D01*
X146124120Y-57091901D01*
X146136733Y-57070857D01*
X146151347Y-57051152D01*
X146167823Y-57032973D01*
X146186002Y-57016497D01*
X146205707Y-57001883D01*
X146226751Y-56989270D01*
X146248929Y-56978780D01*
X146272029Y-56970515D01*
X146295827Y-56964554D01*
X146320096Y-56960954D01*
X146344600Y-56959750D01*
X147269600Y-56959750D01*
X147294104Y-56960954D01*
G37*
G04 #@! TD.AperFunction*
G04 #@! TA.AperFunction,SMDPad,CuDef*
G36*
X144319104Y-56960954D02*
G01*
X144343373Y-56964554D01*
X144367171Y-56970515D01*
X144390271Y-56978780D01*
X144412449Y-56989270D01*
X144433493Y-57001883D01*
X144453198Y-57016497D01*
X144471377Y-57032973D01*
X144487853Y-57051152D01*
X144502467Y-57070857D01*
X144515080Y-57091901D01*
X144525570Y-57114079D01*
X144533835Y-57137179D01*
X144539796Y-57160977D01*
X144543396Y-57185246D01*
X144544600Y-57209750D01*
X144544600Y-58459750D01*
X144543396Y-58484254D01*
X144539796Y-58508523D01*
X144533835Y-58532321D01*
X144525570Y-58555421D01*
X144515080Y-58577599D01*
X144502467Y-58598643D01*
X144487853Y-58618348D01*
X144471377Y-58636527D01*
X144453198Y-58653003D01*
X144433493Y-58667617D01*
X144412449Y-58680230D01*
X144390271Y-58690720D01*
X144367171Y-58698985D01*
X144343373Y-58704946D01*
X144319104Y-58708546D01*
X144294600Y-58709750D01*
X143369600Y-58709750D01*
X143345096Y-58708546D01*
X143320827Y-58704946D01*
X143297029Y-58698985D01*
X143273929Y-58690720D01*
X143251751Y-58680230D01*
X143230707Y-58667617D01*
X143211002Y-58653003D01*
X143192823Y-58636527D01*
X143176347Y-58618348D01*
X143161733Y-58598643D01*
X143149120Y-58577599D01*
X143138630Y-58555421D01*
X143130365Y-58532321D01*
X143124404Y-58508523D01*
X143120804Y-58484254D01*
X143119600Y-58459750D01*
X143119600Y-57209750D01*
X143120804Y-57185246D01*
X143124404Y-57160977D01*
X143130365Y-57137179D01*
X143138630Y-57114079D01*
X143149120Y-57091901D01*
X143161733Y-57070857D01*
X143176347Y-57051152D01*
X143192823Y-57032973D01*
X143211002Y-57016497D01*
X143230707Y-57001883D01*
X143251751Y-56989270D01*
X143273929Y-56978780D01*
X143297029Y-56970515D01*
X143320827Y-56964554D01*
X143345096Y-56960954D01*
X143369600Y-56959750D01*
X144294600Y-56959750D01*
X144319104Y-56960954D01*
G37*
G04 #@! TD.AperFunction*
G04 #@! TA.AperFunction,SMDPad,CuDef*
G36*
X147294104Y-83340954D02*
G01*
X147318373Y-83344554D01*
X147342171Y-83350515D01*
X147365271Y-83358780D01*
X147387449Y-83369270D01*
X147408493Y-83381883D01*
X147428198Y-83396497D01*
X147446377Y-83412973D01*
X147462853Y-83431152D01*
X147477467Y-83450857D01*
X147490080Y-83471901D01*
X147500570Y-83494079D01*
X147508835Y-83517179D01*
X147514796Y-83540977D01*
X147518396Y-83565246D01*
X147519600Y-83589750D01*
X147519600Y-84839750D01*
X147518396Y-84864254D01*
X147514796Y-84888523D01*
X147508835Y-84912321D01*
X147500570Y-84935421D01*
X147490080Y-84957599D01*
X147477467Y-84978643D01*
X147462853Y-84998348D01*
X147446377Y-85016527D01*
X147428198Y-85033003D01*
X147408493Y-85047617D01*
X147387449Y-85060230D01*
X147365271Y-85070720D01*
X147342171Y-85078985D01*
X147318373Y-85084946D01*
X147294104Y-85088546D01*
X147269600Y-85089750D01*
X146344600Y-85089750D01*
X146320096Y-85088546D01*
X146295827Y-85084946D01*
X146272029Y-85078985D01*
X146248929Y-85070720D01*
X146226751Y-85060230D01*
X146205707Y-85047617D01*
X146186002Y-85033003D01*
X146167823Y-85016527D01*
X146151347Y-84998348D01*
X146136733Y-84978643D01*
X146124120Y-84957599D01*
X146113630Y-84935421D01*
X146105365Y-84912321D01*
X146099404Y-84888523D01*
X146095804Y-84864254D01*
X146094600Y-84839750D01*
X146094600Y-83589750D01*
X146095804Y-83565246D01*
X146099404Y-83540977D01*
X146105365Y-83517179D01*
X146113630Y-83494079D01*
X146124120Y-83471901D01*
X146136733Y-83450857D01*
X146151347Y-83431152D01*
X146167823Y-83412973D01*
X146186002Y-83396497D01*
X146205707Y-83381883D01*
X146226751Y-83369270D01*
X146248929Y-83358780D01*
X146272029Y-83350515D01*
X146295827Y-83344554D01*
X146320096Y-83340954D01*
X146344600Y-83339750D01*
X147269600Y-83339750D01*
X147294104Y-83340954D01*
G37*
G04 #@! TD.AperFunction*
G04 #@! TA.AperFunction,SMDPad,CuDef*
G36*
X144319104Y-83340954D02*
G01*
X144343373Y-83344554D01*
X144367171Y-83350515D01*
X144390271Y-83358780D01*
X144412449Y-83369270D01*
X144433493Y-83381883D01*
X144453198Y-83396497D01*
X144471377Y-83412973D01*
X144487853Y-83431152D01*
X144502467Y-83450857D01*
X144515080Y-83471901D01*
X144525570Y-83494079D01*
X144533835Y-83517179D01*
X144539796Y-83540977D01*
X144543396Y-83565246D01*
X144544600Y-83589750D01*
X144544600Y-84839750D01*
X144543396Y-84864254D01*
X144539796Y-84888523D01*
X144533835Y-84912321D01*
X144525570Y-84935421D01*
X144515080Y-84957599D01*
X144502467Y-84978643D01*
X144487853Y-84998348D01*
X144471377Y-85016527D01*
X144453198Y-85033003D01*
X144433493Y-85047617D01*
X144412449Y-85060230D01*
X144390271Y-85070720D01*
X144367171Y-85078985D01*
X144343373Y-85084946D01*
X144319104Y-85088546D01*
X144294600Y-85089750D01*
X143369600Y-85089750D01*
X143345096Y-85088546D01*
X143320827Y-85084946D01*
X143297029Y-85078985D01*
X143273929Y-85070720D01*
X143251751Y-85060230D01*
X143230707Y-85047617D01*
X143211002Y-85033003D01*
X143192823Y-85016527D01*
X143176347Y-84998348D01*
X143161733Y-84978643D01*
X143149120Y-84957599D01*
X143138630Y-84935421D01*
X143130365Y-84912321D01*
X143124404Y-84888523D01*
X143120804Y-84864254D01*
X143119600Y-84839750D01*
X143119600Y-83589750D01*
X143120804Y-83565246D01*
X143124404Y-83540977D01*
X143130365Y-83517179D01*
X143138630Y-83494079D01*
X143149120Y-83471901D01*
X143161733Y-83450857D01*
X143176347Y-83431152D01*
X143192823Y-83412973D01*
X143211002Y-83396497D01*
X143230707Y-83381883D01*
X143251751Y-83369270D01*
X143273929Y-83358780D01*
X143297029Y-83350515D01*
X143320827Y-83344554D01*
X143345096Y-83340954D01*
X143369600Y-83339750D01*
X144294600Y-83339750D01*
X144319104Y-83340954D01*
G37*
G04 #@! TD.AperFunction*
G04 #@! TA.AperFunction,SMDPad,CuDef*
G36*
X90565504Y-82067954D02*
G01*
X90589773Y-82071554D01*
X90613571Y-82077515D01*
X90636671Y-82085780D01*
X90658849Y-82096270D01*
X90679893Y-82108883D01*
X90699598Y-82123497D01*
X90717777Y-82139973D01*
X90734253Y-82158152D01*
X90748867Y-82177857D01*
X90761480Y-82198901D01*
X90771970Y-82221079D01*
X90780235Y-82244179D01*
X90786196Y-82267977D01*
X90789796Y-82292246D01*
X90791000Y-82316750D01*
X90791000Y-83241750D01*
X90789796Y-83266254D01*
X90786196Y-83290523D01*
X90780235Y-83314321D01*
X90771970Y-83337421D01*
X90761480Y-83359599D01*
X90748867Y-83380643D01*
X90734253Y-83400348D01*
X90717777Y-83418527D01*
X90699598Y-83435003D01*
X90679893Y-83449617D01*
X90658849Y-83462230D01*
X90636671Y-83472720D01*
X90613571Y-83480985D01*
X90589773Y-83486946D01*
X90565504Y-83490546D01*
X90541000Y-83491750D01*
X89291000Y-83491750D01*
X89266496Y-83490546D01*
X89242227Y-83486946D01*
X89218429Y-83480985D01*
X89195329Y-83472720D01*
X89173151Y-83462230D01*
X89152107Y-83449617D01*
X89132402Y-83435003D01*
X89114223Y-83418527D01*
X89097747Y-83400348D01*
X89083133Y-83380643D01*
X89070520Y-83359599D01*
X89060030Y-83337421D01*
X89051765Y-83314321D01*
X89045804Y-83290523D01*
X89042204Y-83266254D01*
X89041000Y-83241750D01*
X89041000Y-82316750D01*
X89042204Y-82292246D01*
X89045804Y-82267977D01*
X89051765Y-82244179D01*
X89060030Y-82221079D01*
X89070520Y-82198901D01*
X89083133Y-82177857D01*
X89097747Y-82158152D01*
X89114223Y-82139973D01*
X89132402Y-82123497D01*
X89152107Y-82108883D01*
X89173151Y-82096270D01*
X89195329Y-82085780D01*
X89218429Y-82077515D01*
X89242227Y-82071554D01*
X89266496Y-82067954D01*
X89291000Y-82066750D01*
X90541000Y-82066750D01*
X90565504Y-82067954D01*
G37*
G04 #@! TD.AperFunction*
G04 #@! TA.AperFunction,SMDPad,CuDef*
G36*
X90565504Y-79092954D02*
G01*
X90589773Y-79096554D01*
X90613571Y-79102515D01*
X90636671Y-79110780D01*
X90658849Y-79121270D01*
X90679893Y-79133883D01*
X90699598Y-79148497D01*
X90717777Y-79164973D01*
X90734253Y-79183152D01*
X90748867Y-79202857D01*
X90761480Y-79223901D01*
X90771970Y-79246079D01*
X90780235Y-79269179D01*
X90786196Y-79292977D01*
X90789796Y-79317246D01*
X90791000Y-79341750D01*
X90791000Y-80266750D01*
X90789796Y-80291254D01*
X90786196Y-80315523D01*
X90780235Y-80339321D01*
X90771970Y-80362421D01*
X90761480Y-80384599D01*
X90748867Y-80405643D01*
X90734253Y-80425348D01*
X90717777Y-80443527D01*
X90699598Y-80460003D01*
X90679893Y-80474617D01*
X90658849Y-80487230D01*
X90636671Y-80497720D01*
X90613571Y-80505985D01*
X90589773Y-80511946D01*
X90565504Y-80515546D01*
X90541000Y-80516750D01*
X89291000Y-80516750D01*
X89266496Y-80515546D01*
X89242227Y-80511946D01*
X89218429Y-80505985D01*
X89195329Y-80497720D01*
X89173151Y-80487230D01*
X89152107Y-80474617D01*
X89132402Y-80460003D01*
X89114223Y-80443527D01*
X89097747Y-80425348D01*
X89083133Y-80405643D01*
X89070520Y-80384599D01*
X89060030Y-80362421D01*
X89051765Y-80339321D01*
X89045804Y-80315523D01*
X89042204Y-80291254D01*
X89041000Y-80266750D01*
X89041000Y-79341750D01*
X89042204Y-79317246D01*
X89045804Y-79292977D01*
X89051765Y-79269179D01*
X89060030Y-79246079D01*
X89070520Y-79223901D01*
X89083133Y-79202857D01*
X89097747Y-79183152D01*
X89114223Y-79164973D01*
X89132402Y-79148497D01*
X89152107Y-79133883D01*
X89173151Y-79121270D01*
X89195329Y-79110780D01*
X89218429Y-79102515D01*
X89242227Y-79096554D01*
X89266496Y-79092954D01*
X89291000Y-79091750D01*
X90541000Y-79091750D01*
X90565504Y-79092954D01*
G37*
G04 #@! TD.AperFunction*
G04 #@! TA.AperFunction,SMDPad,CuDef*
G36*
X94375504Y-82067954D02*
G01*
X94399773Y-82071554D01*
X94423571Y-82077515D01*
X94446671Y-82085780D01*
X94468849Y-82096270D01*
X94489893Y-82108883D01*
X94509598Y-82123497D01*
X94527777Y-82139973D01*
X94544253Y-82158152D01*
X94558867Y-82177857D01*
X94571480Y-82198901D01*
X94581970Y-82221079D01*
X94590235Y-82244179D01*
X94596196Y-82267977D01*
X94599796Y-82292246D01*
X94601000Y-82316750D01*
X94601000Y-83241750D01*
X94599796Y-83266254D01*
X94596196Y-83290523D01*
X94590235Y-83314321D01*
X94581970Y-83337421D01*
X94571480Y-83359599D01*
X94558867Y-83380643D01*
X94544253Y-83400348D01*
X94527777Y-83418527D01*
X94509598Y-83435003D01*
X94489893Y-83449617D01*
X94468849Y-83462230D01*
X94446671Y-83472720D01*
X94423571Y-83480985D01*
X94399773Y-83486946D01*
X94375504Y-83490546D01*
X94351000Y-83491750D01*
X93101000Y-83491750D01*
X93076496Y-83490546D01*
X93052227Y-83486946D01*
X93028429Y-83480985D01*
X93005329Y-83472720D01*
X92983151Y-83462230D01*
X92962107Y-83449617D01*
X92942402Y-83435003D01*
X92924223Y-83418527D01*
X92907747Y-83400348D01*
X92893133Y-83380643D01*
X92880520Y-83359599D01*
X92870030Y-83337421D01*
X92861765Y-83314321D01*
X92855804Y-83290523D01*
X92852204Y-83266254D01*
X92851000Y-83241750D01*
X92851000Y-82316750D01*
X92852204Y-82292246D01*
X92855804Y-82267977D01*
X92861765Y-82244179D01*
X92870030Y-82221079D01*
X92880520Y-82198901D01*
X92893133Y-82177857D01*
X92907747Y-82158152D01*
X92924223Y-82139973D01*
X92942402Y-82123497D01*
X92962107Y-82108883D01*
X92983151Y-82096270D01*
X93005329Y-82085780D01*
X93028429Y-82077515D01*
X93052227Y-82071554D01*
X93076496Y-82067954D01*
X93101000Y-82066750D01*
X94351000Y-82066750D01*
X94375504Y-82067954D01*
G37*
G04 #@! TD.AperFunction*
G04 #@! TA.AperFunction,SMDPad,CuDef*
G36*
X94375504Y-79092954D02*
G01*
X94399773Y-79096554D01*
X94423571Y-79102515D01*
X94446671Y-79110780D01*
X94468849Y-79121270D01*
X94489893Y-79133883D01*
X94509598Y-79148497D01*
X94527777Y-79164973D01*
X94544253Y-79183152D01*
X94558867Y-79202857D01*
X94571480Y-79223901D01*
X94581970Y-79246079D01*
X94590235Y-79269179D01*
X94596196Y-79292977D01*
X94599796Y-79317246D01*
X94601000Y-79341750D01*
X94601000Y-80266750D01*
X94599796Y-80291254D01*
X94596196Y-80315523D01*
X94590235Y-80339321D01*
X94581970Y-80362421D01*
X94571480Y-80384599D01*
X94558867Y-80405643D01*
X94544253Y-80425348D01*
X94527777Y-80443527D01*
X94509598Y-80460003D01*
X94489893Y-80474617D01*
X94468849Y-80487230D01*
X94446671Y-80497720D01*
X94423571Y-80505985D01*
X94399773Y-80511946D01*
X94375504Y-80515546D01*
X94351000Y-80516750D01*
X93101000Y-80516750D01*
X93076496Y-80515546D01*
X93052227Y-80511946D01*
X93028429Y-80505985D01*
X93005329Y-80497720D01*
X92983151Y-80487230D01*
X92962107Y-80474617D01*
X92942402Y-80460003D01*
X92924223Y-80443527D01*
X92907747Y-80425348D01*
X92893133Y-80405643D01*
X92880520Y-80384599D01*
X92870030Y-80362421D01*
X92861765Y-80339321D01*
X92855804Y-80315523D01*
X92852204Y-80291254D01*
X92851000Y-80266750D01*
X92851000Y-79341750D01*
X92852204Y-79317246D01*
X92855804Y-79292977D01*
X92861765Y-79269179D01*
X92870030Y-79246079D01*
X92880520Y-79223901D01*
X92893133Y-79202857D01*
X92907747Y-79183152D01*
X92924223Y-79164973D01*
X92942402Y-79148497D01*
X92962107Y-79133883D01*
X92983151Y-79121270D01*
X93005329Y-79110780D01*
X93028429Y-79102515D01*
X93052227Y-79096554D01*
X93076496Y-79092954D01*
X93101000Y-79091750D01*
X94351000Y-79091750D01*
X94375504Y-79092954D01*
G37*
G04 #@! TD.AperFunction*
G04 #@! TA.AperFunction,SMDPad,CuDef*
G36*
X95483004Y-61356204D02*
G01*
X95507273Y-61359804D01*
X95531071Y-61365765D01*
X95554171Y-61374030D01*
X95576349Y-61384520D01*
X95597393Y-61397133D01*
X95617098Y-61411747D01*
X95635277Y-61428223D01*
X95651753Y-61446402D01*
X95666367Y-61466107D01*
X95678980Y-61487151D01*
X95689470Y-61509329D01*
X95697735Y-61532429D01*
X95703696Y-61556227D01*
X95707296Y-61580496D01*
X95708500Y-61605000D01*
X95708500Y-62855000D01*
X95707296Y-62879504D01*
X95703696Y-62903773D01*
X95697735Y-62927571D01*
X95689470Y-62950671D01*
X95678980Y-62972849D01*
X95666367Y-62993893D01*
X95651753Y-63013598D01*
X95635277Y-63031777D01*
X95617098Y-63048253D01*
X95597393Y-63062867D01*
X95576349Y-63075480D01*
X95554171Y-63085970D01*
X95531071Y-63094235D01*
X95507273Y-63100196D01*
X95483004Y-63103796D01*
X95458500Y-63105000D01*
X94533500Y-63105000D01*
X94508996Y-63103796D01*
X94484727Y-63100196D01*
X94460929Y-63094235D01*
X94437829Y-63085970D01*
X94415651Y-63075480D01*
X94394607Y-63062867D01*
X94374902Y-63048253D01*
X94356723Y-63031777D01*
X94340247Y-63013598D01*
X94325633Y-62993893D01*
X94313020Y-62972849D01*
X94302530Y-62950671D01*
X94294265Y-62927571D01*
X94288304Y-62903773D01*
X94284704Y-62879504D01*
X94283500Y-62855000D01*
X94283500Y-61605000D01*
X94284704Y-61580496D01*
X94288304Y-61556227D01*
X94294265Y-61532429D01*
X94302530Y-61509329D01*
X94313020Y-61487151D01*
X94325633Y-61466107D01*
X94340247Y-61446402D01*
X94356723Y-61428223D01*
X94374902Y-61411747D01*
X94394607Y-61397133D01*
X94415651Y-61384520D01*
X94437829Y-61374030D01*
X94460929Y-61365765D01*
X94484727Y-61359804D01*
X94508996Y-61356204D01*
X94533500Y-61355000D01*
X95458500Y-61355000D01*
X95483004Y-61356204D01*
G37*
G04 #@! TD.AperFunction*
G04 #@! TA.AperFunction,SMDPad,CuDef*
G36*
X92508004Y-61356204D02*
G01*
X92532273Y-61359804D01*
X92556071Y-61365765D01*
X92579171Y-61374030D01*
X92601349Y-61384520D01*
X92622393Y-61397133D01*
X92642098Y-61411747D01*
X92660277Y-61428223D01*
X92676753Y-61446402D01*
X92691367Y-61466107D01*
X92703980Y-61487151D01*
X92714470Y-61509329D01*
X92722735Y-61532429D01*
X92728696Y-61556227D01*
X92732296Y-61580496D01*
X92733500Y-61605000D01*
X92733500Y-62855000D01*
X92732296Y-62879504D01*
X92728696Y-62903773D01*
X92722735Y-62927571D01*
X92714470Y-62950671D01*
X92703980Y-62972849D01*
X92691367Y-62993893D01*
X92676753Y-63013598D01*
X92660277Y-63031777D01*
X92642098Y-63048253D01*
X92622393Y-63062867D01*
X92601349Y-63075480D01*
X92579171Y-63085970D01*
X92556071Y-63094235D01*
X92532273Y-63100196D01*
X92508004Y-63103796D01*
X92483500Y-63105000D01*
X91558500Y-63105000D01*
X91533996Y-63103796D01*
X91509727Y-63100196D01*
X91485929Y-63094235D01*
X91462829Y-63085970D01*
X91440651Y-63075480D01*
X91419607Y-63062867D01*
X91399902Y-63048253D01*
X91381723Y-63031777D01*
X91365247Y-63013598D01*
X91350633Y-62993893D01*
X91338020Y-62972849D01*
X91327530Y-62950671D01*
X91319265Y-62927571D01*
X91313304Y-62903773D01*
X91309704Y-62879504D01*
X91308500Y-62855000D01*
X91308500Y-61605000D01*
X91309704Y-61580496D01*
X91313304Y-61556227D01*
X91319265Y-61532429D01*
X91327530Y-61509329D01*
X91338020Y-61487151D01*
X91350633Y-61466107D01*
X91365247Y-61446402D01*
X91381723Y-61428223D01*
X91399902Y-61411747D01*
X91419607Y-61397133D01*
X91440651Y-61384520D01*
X91462829Y-61374030D01*
X91485929Y-61365765D01*
X91509727Y-61359804D01*
X91533996Y-61356204D01*
X91558500Y-61355000D01*
X92483500Y-61355000D01*
X92508004Y-61356204D01*
G37*
G04 #@! TD.AperFunction*
G04 #@! TA.AperFunction,SMDPad,CuDef*
G36*
X97985505Y-73473954D02*
G01*
X98009773Y-73477554D01*
X98033572Y-73483515D01*
X98056671Y-73491780D01*
X98078850Y-73502270D01*
X98099893Y-73514882D01*
X98119599Y-73529497D01*
X98137777Y-73545973D01*
X98154253Y-73564151D01*
X98168868Y-73583857D01*
X98181480Y-73604900D01*
X98191970Y-73627079D01*
X98200235Y-73650178D01*
X98206196Y-73673977D01*
X98209796Y-73698245D01*
X98211000Y-73722749D01*
X98211000Y-74797751D01*
X98209796Y-74822255D01*
X98206196Y-74846523D01*
X98200235Y-74870322D01*
X98191970Y-74893421D01*
X98181480Y-74915600D01*
X98168868Y-74936643D01*
X98154253Y-74956349D01*
X98137777Y-74974527D01*
X98119599Y-74991003D01*
X98099893Y-75005618D01*
X98078850Y-75018230D01*
X98056671Y-75028720D01*
X98033572Y-75036985D01*
X98009773Y-75042946D01*
X97985505Y-75046546D01*
X97961001Y-75047750D01*
X97110999Y-75047750D01*
X97086495Y-75046546D01*
X97062227Y-75042946D01*
X97038428Y-75036985D01*
X97015329Y-75028720D01*
X96993150Y-75018230D01*
X96972107Y-75005618D01*
X96952401Y-74991003D01*
X96934223Y-74974527D01*
X96917747Y-74956349D01*
X96903132Y-74936643D01*
X96890520Y-74915600D01*
X96880030Y-74893421D01*
X96871765Y-74870322D01*
X96865804Y-74846523D01*
X96862204Y-74822255D01*
X96861000Y-74797751D01*
X96861000Y-73722749D01*
X96862204Y-73698245D01*
X96865804Y-73673977D01*
X96871765Y-73650178D01*
X96880030Y-73627079D01*
X96890520Y-73604900D01*
X96903132Y-73583857D01*
X96917747Y-73564151D01*
X96934223Y-73545973D01*
X96952401Y-73529497D01*
X96972107Y-73514882D01*
X96993150Y-73502270D01*
X97015329Y-73491780D01*
X97038428Y-73483515D01*
X97062227Y-73477554D01*
X97086495Y-73473954D01*
X97110999Y-73472750D01*
X97961001Y-73472750D01*
X97985505Y-73473954D01*
G37*
G04 #@! TD.AperFunction*
G04 #@! TA.AperFunction,SMDPad,CuDef*
G36*
X97985505Y-70598954D02*
G01*
X98009773Y-70602554D01*
X98033572Y-70608515D01*
X98056671Y-70616780D01*
X98078850Y-70627270D01*
X98099893Y-70639882D01*
X98119599Y-70654497D01*
X98137777Y-70670973D01*
X98154253Y-70689151D01*
X98168868Y-70708857D01*
X98181480Y-70729900D01*
X98191970Y-70752079D01*
X98200235Y-70775178D01*
X98206196Y-70798977D01*
X98209796Y-70823245D01*
X98211000Y-70847749D01*
X98211000Y-71922751D01*
X98209796Y-71947255D01*
X98206196Y-71971523D01*
X98200235Y-71995322D01*
X98191970Y-72018421D01*
X98181480Y-72040600D01*
X98168868Y-72061643D01*
X98154253Y-72081349D01*
X98137777Y-72099527D01*
X98119599Y-72116003D01*
X98099893Y-72130618D01*
X98078850Y-72143230D01*
X98056671Y-72153720D01*
X98033572Y-72161985D01*
X98009773Y-72167946D01*
X97985505Y-72171546D01*
X97961001Y-72172750D01*
X97110999Y-72172750D01*
X97086495Y-72171546D01*
X97062227Y-72167946D01*
X97038428Y-72161985D01*
X97015329Y-72153720D01*
X96993150Y-72143230D01*
X96972107Y-72130618D01*
X96952401Y-72116003D01*
X96934223Y-72099527D01*
X96917747Y-72081349D01*
X96903132Y-72061643D01*
X96890520Y-72040600D01*
X96880030Y-72018421D01*
X96871765Y-71995322D01*
X96865804Y-71971523D01*
X96862204Y-71947255D01*
X96861000Y-71922751D01*
X96861000Y-70847749D01*
X96862204Y-70823245D01*
X96865804Y-70798977D01*
X96871765Y-70775178D01*
X96880030Y-70752079D01*
X96890520Y-70729900D01*
X96903132Y-70708857D01*
X96917747Y-70689151D01*
X96934223Y-70670973D01*
X96952401Y-70654497D01*
X96972107Y-70639882D01*
X96993150Y-70627270D01*
X97015329Y-70616780D01*
X97038428Y-70608515D01*
X97062227Y-70602554D01*
X97086495Y-70598954D01*
X97110999Y-70597750D01*
X97961001Y-70597750D01*
X97985505Y-70598954D01*
G37*
G04 #@! TD.AperFunction*
G04 #@! TA.AperFunction,SMDPad,CuDef*
G36*
X101795505Y-73473954D02*
G01*
X101819773Y-73477554D01*
X101843572Y-73483515D01*
X101866671Y-73491780D01*
X101888850Y-73502270D01*
X101909893Y-73514882D01*
X101929599Y-73529497D01*
X101947777Y-73545973D01*
X101964253Y-73564151D01*
X101978868Y-73583857D01*
X101991480Y-73604900D01*
X102001970Y-73627079D01*
X102010235Y-73650178D01*
X102016196Y-73673977D01*
X102019796Y-73698245D01*
X102021000Y-73722749D01*
X102021000Y-74797751D01*
X102019796Y-74822255D01*
X102016196Y-74846523D01*
X102010235Y-74870322D01*
X102001970Y-74893421D01*
X101991480Y-74915600D01*
X101978868Y-74936643D01*
X101964253Y-74956349D01*
X101947777Y-74974527D01*
X101929599Y-74991003D01*
X101909893Y-75005618D01*
X101888850Y-75018230D01*
X101866671Y-75028720D01*
X101843572Y-75036985D01*
X101819773Y-75042946D01*
X101795505Y-75046546D01*
X101771001Y-75047750D01*
X100920999Y-75047750D01*
X100896495Y-75046546D01*
X100872227Y-75042946D01*
X100848428Y-75036985D01*
X100825329Y-75028720D01*
X100803150Y-75018230D01*
X100782107Y-75005618D01*
X100762401Y-74991003D01*
X100744223Y-74974527D01*
X100727747Y-74956349D01*
X100713132Y-74936643D01*
X100700520Y-74915600D01*
X100690030Y-74893421D01*
X100681765Y-74870322D01*
X100675804Y-74846523D01*
X100672204Y-74822255D01*
X100671000Y-74797751D01*
X100671000Y-73722749D01*
X100672204Y-73698245D01*
X100675804Y-73673977D01*
X100681765Y-73650178D01*
X100690030Y-73627079D01*
X100700520Y-73604900D01*
X100713132Y-73583857D01*
X100727747Y-73564151D01*
X100744223Y-73545973D01*
X100762401Y-73529497D01*
X100782107Y-73514882D01*
X100803150Y-73502270D01*
X100825329Y-73491780D01*
X100848428Y-73483515D01*
X100872227Y-73477554D01*
X100896495Y-73473954D01*
X100920999Y-73472750D01*
X101771001Y-73472750D01*
X101795505Y-73473954D01*
G37*
G04 #@! TD.AperFunction*
G04 #@! TA.AperFunction,SMDPad,CuDef*
G36*
X101795505Y-70598954D02*
G01*
X101819773Y-70602554D01*
X101843572Y-70608515D01*
X101866671Y-70616780D01*
X101888850Y-70627270D01*
X101909893Y-70639882D01*
X101929599Y-70654497D01*
X101947777Y-70670973D01*
X101964253Y-70689151D01*
X101978868Y-70708857D01*
X101991480Y-70729900D01*
X102001970Y-70752079D01*
X102010235Y-70775178D01*
X102016196Y-70798977D01*
X102019796Y-70823245D01*
X102021000Y-70847749D01*
X102021000Y-71922751D01*
X102019796Y-71947255D01*
X102016196Y-71971523D01*
X102010235Y-71995322D01*
X102001970Y-72018421D01*
X101991480Y-72040600D01*
X101978868Y-72061643D01*
X101964253Y-72081349D01*
X101947777Y-72099527D01*
X101929599Y-72116003D01*
X101909893Y-72130618D01*
X101888850Y-72143230D01*
X101866671Y-72153720D01*
X101843572Y-72161985D01*
X101819773Y-72167946D01*
X101795505Y-72171546D01*
X101771001Y-72172750D01*
X100920999Y-72172750D01*
X100896495Y-72171546D01*
X100872227Y-72167946D01*
X100848428Y-72161985D01*
X100825329Y-72153720D01*
X100803150Y-72143230D01*
X100782107Y-72130618D01*
X100762401Y-72116003D01*
X100744223Y-72099527D01*
X100727747Y-72081349D01*
X100713132Y-72061643D01*
X100700520Y-72040600D01*
X100690030Y-72018421D01*
X100681765Y-71995322D01*
X100675804Y-71971523D01*
X100672204Y-71947255D01*
X100671000Y-71922751D01*
X100671000Y-70847749D01*
X100672204Y-70823245D01*
X100675804Y-70798977D01*
X100681765Y-70775178D01*
X100690030Y-70752079D01*
X100700520Y-70729900D01*
X100713132Y-70708857D01*
X100727747Y-70689151D01*
X100744223Y-70670973D01*
X100762401Y-70654497D01*
X100782107Y-70639882D01*
X100803150Y-70627270D01*
X100825329Y-70616780D01*
X100848428Y-70608515D01*
X100872227Y-70602554D01*
X100896495Y-70598954D01*
X100920999Y-70597750D01*
X101771001Y-70597750D01*
X101795505Y-70598954D01*
G37*
G04 #@! TD.AperFunction*
G04 #@! TA.AperFunction,SMDPad,CuDef*
G36*
X105805504Y-73578954D02*
G01*
X105829773Y-73582554D01*
X105853571Y-73588515D01*
X105876671Y-73596780D01*
X105898849Y-73607270D01*
X105919893Y-73619883D01*
X105939598Y-73634497D01*
X105957777Y-73650973D01*
X105974253Y-73669152D01*
X105988867Y-73688857D01*
X106001480Y-73709901D01*
X106011970Y-73732079D01*
X106020235Y-73755179D01*
X106026196Y-73778977D01*
X106029796Y-73803246D01*
X106031000Y-73827750D01*
X106031000Y-74752750D01*
X106029796Y-74777254D01*
X106026196Y-74801523D01*
X106020235Y-74825321D01*
X106011970Y-74848421D01*
X106001480Y-74870599D01*
X105988867Y-74891643D01*
X105974253Y-74911348D01*
X105957777Y-74929527D01*
X105939598Y-74946003D01*
X105919893Y-74960617D01*
X105898849Y-74973230D01*
X105876671Y-74983720D01*
X105853571Y-74991985D01*
X105829773Y-74997946D01*
X105805504Y-75001546D01*
X105781000Y-75002750D01*
X104531000Y-75002750D01*
X104506496Y-75001546D01*
X104482227Y-74997946D01*
X104458429Y-74991985D01*
X104435329Y-74983720D01*
X104413151Y-74973230D01*
X104392107Y-74960617D01*
X104372402Y-74946003D01*
X104354223Y-74929527D01*
X104337747Y-74911348D01*
X104323133Y-74891643D01*
X104310520Y-74870599D01*
X104300030Y-74848421D01*
X104291765Y-74825321D01*
X104285804Y-74801523D01*
X104282204Y-74777254D01*
X104281000Y-74752750D01*
X104281000Y-73827750D01*
X104282204Y-73803246D01*
X104285804Y-73778977D01*
X104291765Y-73755179D01*
X104300030Y-73732079D01*
X104310520Y-73709901D01*
X104323133Y-73688857D01*
X104337747Y-73669152D01*
X104354223Y-73650973D01*
X104372402Y-73634497D01*
X104392107Y-73619883D01*
X104413151Y-73607270D01*
X104435329Y-73596780D01*
X104458429Y-73588515D01*
X104482227Y-73582554D01*
X104506496Y-73578954D01*
X104531000Y-73577750D01*
X105781000Y-73577750D01*
X105805504Y-73578954D01*
G37*
G04 #@! TD.AperFunction*
G04 #@! TA.AperFunction,SMDPad,CuDef*
G36*
X105805504Y-70603954D02*
G01*
X105829773Y-70607554D01*
X105853571Y-70613515D01*
X105876671Y-70621780D01*
X105898849Y-70632270D01*
X105919893Y-70644883D01*
X105939598Y-70659497D01*
X105957777Y-70675973D01*
X105974253Y-70694152D01*
X105988867Y-70713857D01*
X106001480Y-70734901D01*
X106011970Y-70757079D01*
X106020235Y-70780179D01*
X106026196Y-70803977D01*
X106029796Y-70828246D01*
X106031000Y-70852750D01*
X106031000Y-71777750D01*
X106029796Y-71802254D01*
X106026196Y-71826523D01*
X106020235Y-71850321D01*
X106011970Y-71873421D01*
X106001480Y-71895599D01*
X105988867Y-71916643D01*
X105974253Y-71936348D01*
X105957777Y-71954527D01*
X105939598Y-71971003D01*
X105919893Y-71985617D01*
X105898849Y-71998230D01*
X105876671Y-72008720D01*
X105853571Y-72016985D01*
X105829773Y-72022946D01*
X105805504Y-72026546D01*
X105781000Y-72027750D01*
X104531000Y-72027750D01*
X104506496Y-72026546D01*
X104482227Y-72022946D01*
X104458429Y-72016985D01*
X104435329Y-72008720D01*
X104413151Y-71998230D01*
X104392107Y-71985617D01*
X104372402Y-71971003D01*
X104354223Y-71954527D01*
X104337747Y-71936348D01*
X104323133Y-71916643D01*
X104310520Y-71895599D01*
X104300030Y-71873421D01*
X104291765Y-71850321D01*
X104285804Y-71826523D01*
X104282204Y-71802254D01*
X104281000Y-71777750D01*
X104281000Y-70852750D01*
X104282204Y-70828246D01*
X104285804Y-70803977D01*
X104291765Y-70780179D01*
X104300030Y-70757079D01*
X104310520Y-70734901D01*
X104323133Y-70713857D01*
X104337747Y-70694152D01*
X104354223Y-70675973D01*
X104372402Y-70659497D01*
X104392107Y-70644883D01*
X104413151Y-70632270D01*
X104435329Y-70621780D01*
X104458429Y-70613515D01*
X104482227Y-70607554D01*
X104506496Y-70603954D01*
X104531000Y-70602750D01*
X105781000Y-70602750D01*
X105805504Y-70603954D01*
G37*
G04 #@! TD.AperFunction*
G04 #@! TA.AperFunction,SMDPad,CuDef*
G36*
X94375504Y-73578954D02*
G01*
X94399773Y-73582554D01*
X94423571Y-73588515D01*
X94446671Y-73596780D01*
X94468849Y-73607270D01*
X94489893Y-73619883D01*
X94509598Y-73634497D01*
X94527777Y-73650973D01*
X94544253Y-73669152D01*
X94558867Y-73688857D01*
X94571480Y-73709901D01*
X94581970Y-73732079D01*
X94590235Y-73755179D01*
X94596196Y-73778977D01*
X94599796Y-73803246D01*
X94601000Y-73827750D01*
X94601000Y-74752750D01*
X94599796Y-74777254D01*
X94596196Y-74801523D01*
X94590235Y-74825321D01*
X94581970Y-74848421D01*
X94571480Y-74870599D01*
X94558867Y-74891643D01*
X94544253Y-74911348D01*
X94527777Y-74929527D01*
X94509598Y-74946003D01*
X94489893Y-74960617D01*
X94468849Y-74973230D01*
X94446671Y-74983720D01*
X94423571Y-74991985D01*
X94399773Y-74997946D01*
X94375504Y-75001546D01*
X94351000Y-75002750D01*
X93101000Y-75002750D01*
X93076496Y-75001546D01*
X93052227Y-74997946D01*
X93028429Y-74991985D01*
X93005329Y-74983720D01*
X92983151Y-74973230D01*
X92962107Y-74960617D01*
X92942402Y-74946003D01*
X92924223Y-74929527D01*
X92907747Y-74911348D01*
X92893133Y-74891643D01*
X92880520Y-74870599D01*
X92870030Y-74848421D01*
X92861765Y-74825321D01*
X92855804Y-74801523D01*
X92852204Y-74777254D01*
X92851000Y-74752750D01*
X92851000Y-73827750D01*
X92852204Y-73803246D01*
X92855804Y-73778977D01*
X92861765Y-73755179D01*
X92870030Y-73732079D01*
X92880520Y-73709901D01*
X92893133Y-73688857D01*
X92907747Y-73669152D01*
X92924223Y-73650973D01*
X92942402Y-73634497D01*
X92962107Y-73619883D01*
X92983151Y-73607270D01*
X93005329Y-73596780D01*
X93028429Y-73588515D01*
X93052227Y-73582554D01*
X93076496Y-73578954D01*
X93101000Y-73577750D01*
X94351000Y-73577750D01*
X94375504Y-73578954D01*
G37*
G04 #@! TD.AperFunction*
G04 #@! TA.AperFunction,SMDPad,CuDef*
G36*
X94375504Y-70603954D02*
G01*
X94399773Y-70607554D01*
X94423571Y-70613515D01*
X94446671Y-70621780D01*
X94468849Y-70632270D01*
X94489893Y-70644883D01*
X94509598Y-70659497D01*
X94527777Y-70675973D01*
X94544253Y-70694152D01*
X94558867Y-70713857D01*
X94571480Y-70734901D01*
X94581970Y-70757079D01*
X94590235Y-70780179D01*
X94596196Y-70803977D01*
X94599796Y-70828246D01*
X94601000Y-70852750D01*
X94601000Y-71777750D01*
X94599796Y-71802254D01*
X94596196Y-71826523D01*
X94590235Y-71850321D01*
X94581970Y-71873421D01*
X94571480Y-71895599D01*
X94558867Y-71916643D01*
X94544253Y-71936348D01*
X94527777Y-71954527D01*
X94509598Y-71971003D01*
X94489893Y-71985617D01*
X94468849Y-71998230D01*
X94446671Y-72008720D01*
X94423571Y-72016985D01*
X94399773Y-72022946D01*
X94375504Y-72026546D01*
X94351000Y-72027750D01*
X93101000Y-72027750D01*
X93076496Y-72026546D01*
X93052227Y-72022946D01*
X93028429Y-72016985D01*
X93005329Y-72008720D01*
X92983151Y-71998230D01*
X92962107Y-71985617D01*
X92942402Y-71971003D01*
X92924223Y-71954527D01*
X92907747Y-71936348D01*
X92893133Y-71916643D01*
X92880520Y-71895599D01*
X92870030Y-71873421D01*
X92861765Y-71850321D01*
X92855804Y-71826523D01*
X92852204Y-71802254D01*
X92851000Y-71777750D01*
X92851000Y-70852750D01*
X92852204Y-70828246D01*
X92855804Y-70803977D01*
X92861765Y-70780179D01*
X92870030Y-70757079D01*
X92880520Y-70734901D01*
X92893133Y-70713857D01*
X92907747Y-70694152D01*
X92924223Y-70675973D01*
X92942402Y-70659497D01*
X92962107Y-70644883D01*
X92983151Y-70632270D01*
X93005329Y-70621780D01*
X93028429Y-70613515D01*
X93052227Y-70607554D01*
X93076496Y-70603954D01*
X93101000Y-70602750D01*
X94351000Y-70602750D01*
X94375504Y-70603954D01*
G37*
G04 #@! TD.AperFunction*
G04 #@! TA.AperFunction,SMDPad,CuDef*
G36*
X98185504Y-79092954D02*
G01*
X98209773Y-79096554D01*
X98233571Y-79102515D01*
X98256671Y-79110780D01*
X98278849Y-79121270D01*
X98299893Y-79133883D01*
X98319598Y-79148497D01*
X98337777Y-79164973D01*
X98354253Y-79183152D01*
X98368867Y-79202857D01*
X98381480Y-79223901D01*
X98391970Y-79246079D01*
X98400235Y-79269179D01*
X98406196Y-79292977D01*
X98409796Y-79317246D01*
X98411000Y-79341750D01*
X98411000Y-80266750D01*
X98409796Y-80291254D01*
X98406196Y-80315523D01*
X98400235Y-80339321D01*
X98391970Y-80362421D01*
X98381480Y-80384599D01*
X98368867Y-80405643D01*
X98354253Y-80425348D01*
X98337777Y-80443527D01*
X98319598Y-80460003D01*
X98299893Y-80474617D01*
X98278849Y-80487230D01*
X98256671Y-80497720D01*
X98233571Y-80505985D01*
X98209773Y-80511946D01*
X98185504Y-80515546D01*
X98161000Y-80516750D01*
X96911000Y-80516750D01*
X96886496Y-80515546D01*
X96862227Y-80511946D01*
X96838429Y-80505985D01*
X96815329Y-80497720D01*
X96793151Y-80487230D01*
X96772107Y-80474617D01*
X96752402Y-80460003D01*
X96734223Y-80443527D01*
X96717747Y-80425348D01*
X96703133Y-80405643D01*
X96690520Y-80384599D01*
X96680030Y-80362421D01*
X96671765Y-80339321D01*
X96665804Y-80315523D01*
X96662204Y-80291254D01*
X96661000Y-80266750D01*
X96661000Y-79341750D01*
X96662204Y-79317246D01*
X96665804Y-79292977D01*
X96671765Y-79269179D01*
X96680030Y-79246079D01*
X96690520Y-79223901D01*
X96703133Y-79202857D01*
X96717747Y-79183152D01*
X96734223Y-79164973D01*
X96752402Y-79148497D01*
X96772107Y-79133883D01*
X96793151Y-79121270D01*
X96815329Y-79110780D01*
X96838429Y-79102515D01*
X96862227Y-79096554D01*
X96886496Y-79092954D01*
X96911000Y-79091750D01*
X98161000Y-79091750D01*
X98185504Y-79092954D01*
G37*
G04 #@! TD.AperFunction*
G04 #@! TA.AperFunction,SMDPad,CuDef*
G36*
X98185504Y-82067954D02*
G01*
X98209773Y-82071554D01*
X98233571Y-82077515D01*
X98256671Y-82085780D01*
X98278849Y-82096270D01*
X98299893Y-82108883D01*
X98319598Y-82123497D01*
X98337777Y-82139973D01*
X98354253Y-82158152D01*
X98368867Y-82177857D01*
X98381480Y-82198901D01*
X98391970Y-82221079D01*
X98400235Y-82244179D01*
X98406196Y-82267977D01*
X98409796Y-82292246D01*
X98411000Y-82316750D01*
X98411000Y-83241750D01*
X98409796Y-83266254D01*
X98406196Y-83290523D01*
X98400235Y-83314321D01*
X98391970Y-83337421D01*
X98381480Y-83359599D01*
X98368867Y-83380643D01*
X98354253Y-83400348D01*
X98337777Y-83418527D01*
X98319598Y-83435003D01*
X98299893Y-83449617D01*
X98278849Y-83462230D01*
X98256671Y-83472720D01*
X98233571Y-83480985D01*
X98209773Y-83486946D01*
X98185504Y-83490546D01*
X98161000Y-83491750D01*
X96911000Y-83491750D01*
X96886496Y-83490546D01*
X96862227Y-83486946D01*
X96838429Y-83480985D01*
X96815329Y-83472720D01*
X96793151Y-83462230D01*
X96772107Y-83449617D01*
X96752402Y-83435003D01*
X96734223Y-83418527D01*
X96717747Y-83400348D01*
X96703133Y-83380643D01*
X96690520Y-83359599D01*
X96680030Y-83337421D01*
X96671765Y-83314321D01*
X96665804Y-83290523D01*
X96662204Y-83266254D01*
X96661000Y-83241750D01*
X96661000Y-82316750D01*
X96662204Y-82292246D01*
X96665804Y-82267977D01*
X96671765Y-82244179D01*
X96680030Y-82221079D01*
X96690520Y-82198901D01*
X96703133Y-82177857D01*
X96717747Y-82158152D01*
X96734223Y-82139973D01*
X96752402Y-82123497D01*
X96772107Y-82108883D01*
X96793151Y-82096270D01*
X96815329Y-82085780D01*
X96838429Y-82077515D01*
X96862227Y-82071554D01*
X96886496Y-82067954D01*
X96911000Y-82066750D01*
X98161000Y-82066750D01*
X98185504Y-82067954D01*
G37*
G04 #@! TD.AperFunction*
G04 #@! TA.AperFunction,SMDPad,CuDef*
G36*
X105805504Y-82067954D02*
G01*
X105829773Y-82071554D01*
X105853571Y-82077515D01*
X105876671Y-82085780D01*
X105898849Y-82096270D01*
X105919893Y-82108883D01*
X105939598Y-82123497D01*
X105957777Y-82139973D01*
X105974253Y-82158152D01*
X105988867Y-82177857D01*
X106001480Y-82198901D01*
X106011970Y-82221079D01*
X106020235Y-82244179D01*
X106026196Y-82267977D01*
X106029796Y-82292246D01*
X106031000Y-82316750D01*
X106031000Y-83241750D01*
X106029796Y-83266254D01*
X106026196Y-83290523D01*
X106020235Y-83314321D01*
X106011970Y-83337421D01*
X106001480Y-83359599D01*
X105988867Y-83380643D01*
X105974253Y-83400348D01*
X105957777Y-83418527D01*
X105939598Y-83435003D01*
X105919893Y-83449617D01*
X105898849Y-83462230D01*
X105876671Y-83472720D01*
X105853571Y-83480985D01*
X105829773Y-83486946D01*
X105805504Y-83490546D01*
X105781000Y-83491750D01*
X104531000Y-83491750D01*
X104506496Y-83490546D01*
X104482227Y-83486946D01*
X104458429Y-83480985D01*
X104435329Y-83472720D01*
X104413151Y-83462230D01*
X104392107Y-83449617D01*
X104372402Y-83435003D01*
X104354223Y-83418527D01*
X104337747Y-83400348D01*
X104323133Y-83380643D01*
X104310520Y-83359599D01*
X104300030Y-83337421D01*
X104291765Y-83314321D01*
X104285804Y-83290523D01*
X104282204Y-83266254D01*
X104281000Y-83241750D01*
X104281000Y-82316750D01*
X104282204Y-82292246D01*
X104285804Y-82267977D01*
X104291765Y-82244179D01*
X104300030Y-82221079D01*
X104310520Y-82198901D01*
X104323133Y-82177857D01*
X104337747Y-82158152D01*
X104354223Y-82139973D01*
X104372402Y-82123497D01*
X104392107Y-82108883D01*
X104413151Y-82096270D01*
X104435329Y-82085780D01*
X104458429Y-82077515D01*
X104482227Y-82071554D01*
X104506496Y-82067954D01*
X104531000Y-82066750D01*
X105781000Y-82066750D01*
X105805504Y-82067954D01*
G37*
G04 #@! TD.AperFunction*
G04 #@! TA.AperFunction,SMDPad,CuDef*
G36*
X105805504Y-79092954D02*
G01*
X105829773Y-79096554D01*
X105853571Y-79102515D01*
X105876671Y-79110780D01*
X105898849Y-79121270D01*
X105919893Y-79133883D01*
X105939598Y-79148497D01*
X105957777Y-79164973D01*
X105974253Y-79183152D01*
X105988867Y-79202857D01*
X106001480Y-79223901D01*
X106011970Y-79246079D01*
X106020235Y-79269179D01*
X106026196Y-79292977D01*
X106029796Y-79317246D01*
X106031000Y-79341750D01*
X106031000Y-80266750D01*
X106029796Y-80291254D01*
X106026196Y-80315523D01*
X106020235Y-80339321D01*
X106011970Y-80362421D01*
X106001480Y-80384599D01*
X105988867Y-80405643D01*
X105974253Y-80425348D01*
X105957777Y-80443527D01*
X105939598Y-80460003D01*
X105919893Y-80474617D01*
X105898849Y-80487230D01*
X105876671Y-80497720D01*
X105853571Y-80505985D01*
X105829773Y-80511946D01*
X105805504Y-80515546D01*
X105781000Y-80516750D01*
X104531000Y-80516750D01*
X104506496Y-80515546D01*
X104482227Y-80511946D01*
X104458429Y-80505985D01*
X104435329Y-80497720D01*
X104413151Y-80487230D01*
X104392107Y-80474617D01*
X104372402Y-80460003D01*
X104354223Y-80443527D01*
X104337747Y-80425348D01*
X104323133Y-80405643D01*
X104310520Y-80384599D01*
X104300030Y-80362421D01*
X104291765Y-80339321D01*
X104285804Y-80315523D01*
X104282204Y-80291254D01*
X104281000Y-80266750D01*
X104281000Y-79341750D01*
X104282204Y-79317246D01*
X104285804Y-79292977D01*
X104291765Y-79269179D01*
X104300030Y-79246079D01*
X104310520Y-79223901D01*
X104323133Y-79202857D01*
X104337747Y-79183152D01*
X104354223Y-79164973D01*
X104372402Y-79148497D01*
X104392107Y-79133883D01*
X104413151Y-79121270D01*
X104435329Y-79110780D01*
X104458429Y-79102515D01*
X104482227Y-79096554D01*
X104506496Y-79092954D01*
X104531000Y-79091750D01*
X105781000Y-79091750D01*
X105805504Y-79092954D01*
G37*
G04 #@! TD.AperFunction*
D16*
X100570000Y-65431750D03*
X105170000Y-65431750D03*
X102870000Y-65431750D03*
D17*
X102870000Y-59131750D03*
D18*
X85852000Y-57785000D03*
G04 #@! TA.AperFunction,ComponentPad*
D10*
G36*
X86346108Y-59427167D02*
G01*
X86389791Y-59433647D01*
X86432628Y-59444377D01*
X86474208Y-59459254D01*
X86514129Y-59478135D01*
X86552007Y-59500839D01*
X86587477Y-59527145D01*
X86620198Y-59556802D01*
X86649855Y-59589523D01*
X86676161Y-59624993D01*
X86698865Y-59662871D01*
X86717746Y-59702792D01*
X86732623Y-59744372D01*
X86743353Y-59787209D01*
X86749833Y-59830892D01*
X86752000Y-59875000D01*
X86752000Y-60775000D01*
X86749833Y-60819108D01*
X86743353Y-60862791D01*
X86732623Y-60905628D01*
X86717746Y-60947208D01*
X86698865Y-60987129D01*
X86676161Y-61025007D01*
X86649855Y-61060477D01*
X86620198Y-61093198D01*
X86587477Y-61122855D01*
X86552007Y-61149161D01*
X86514129Y-61171865D01*
X86474208Y-61190746D01*
X86432628Y-61205623D01*
X86389791Y-61216353D01*
X86346108Y-61222833D01*
X86302000Y-61225000D01*
X85402000Y-61225000D01*
X85357892Y-61222833D01*
X85314209Y-61216353D01*
X85271372Y-61205623D01*
X85229792Y-61190746D01*
X85189871Y-61171865D01*
X85151993Y-61149161D01*
X85116523Y-61122855D01*
X85083802Y-61093198D01*
X85054145Y-61060477D01*
X85027839Y-61025007D01*
X85005135Y-60987129D01*
X84986254Y-60947208D01*
X84971377Y-60905628D01*
X84960647Y-60862791D01*
X84954167Y-60819108D01*
X84952000Y-60775000D01*
X84952000Y-59875000D01*
X84954167Y-59830892D01*
X84960647Y-59787209D01*
X84971377Y-59744372D01*
X84986254Y-59702792D01*
X85005135Y-59662871D01*
X85027839Y-59624993D01*
X85054145Y-59589523D01*
X85083802Y-59556802D01*
X85116523Y-59527145D01*
X85151993Y-59500839D01*
X85189871Y-59478135D01*
X85229792Y-59459254D01*
X85271372Y-59444377D01*
X85314209Y-59433647D01*
X85357892Y-59427167D01*
X85402000Y-59425000D01*
X86302000Y-59425000D01*
X86346108Y-59427167D01*
G37*
G04 #@! TD.AperFunction*
D18*
X155094320Y-54724750D03*
G04 #@! TA.AperFunction,ComponentPad*
D10*
G36*
X155588428Y-56366917D02*
G01*
X155632111Y-56373397D01*
X155674948Y-56384127D01*
X155716528Y-56399004D01*
X155756449Y-56417885D01*
X155794327Y-56440589D01*
X155829797Y-56466895D01*
X155862518Y-56496552D01*
X155892175Y-56529273D01*
X155918481Y-56564743D01*
X155941185Y-56602621D01*
X155960066Y-56642542D01*
X155974943Y-56684122D01*
X155985673Y-56726959D01*
X155992153Y-56770642D01*
X155994320Y-56814750D01*
X155994320Y-57714750D01*
X155992153Y-57758858D01*
X155985673Y-57802541D01*
X155974943Y-57845378D01*
X155960066Y-57886958D01*
X155941185Y-57926879D01*
X155918481Y-57964757D01*
X155892175Y-58000227D01*
X155862518Y-58032948D01*
X155829797Y-58062605D01*
X155794327Y-58088911D01*
X155756449Y-58111615D01*
X155716528Y-58130496D01*
X155674948Y-58145373D01*
X155632111Y-58156103D01*
X155588428Y-58162583D01*
X155544320Y-58164750D01*
X154644320Y-58164750D01*
X154600212Y-58162583D01*
X154556529Y-58156103D01*
X154513692Y-58145373D01*
X154472112Y-58130496D01*
X154432191Y-58111615D01*
X154394313Y-58088911D01*
X154358843Y-58062605D01*
X154326122Y-58032948D01*
X154296465Y-58000227D01*
X154270159Y-57964757D01*
X154247455Y-57926879D01*
X154228574Y-57886958D01*
X154213697Y-57845378D01*
X154202967Y-57802541D01*
X154196487Y-57758858D01*
X154194320Y-57714750D01*
X154194320Y-56814750D01*
X154196487Y-56770642D01*
X154202967Y-56726959D01*
X154213697Y-56684122D01*
X154228574Y-56642542D01*
X154247455Y-56602621D01*
X154270159Y-56564743D01*
X154296465Y-56529273D01*
X154326122Y-56496552D01*
X154358843Y-56466895D01*
X154394313Y-56440589D01*
X154432191Y-56417885D01*
X154472112Y-56399004D01*
X154513692Y-56384127D01*
X154556529Y-56373397D01*
X154600212Y-56366917D01*
X154644320Y-56364750D01*
X155544320Y-56364750D01*
X155588428Y-56366917D01*
G37*
G04 #@! TD.AperFunction*
D18*
X155094320Y-87324750D03*
G04 #@! TA.AperFunction,ComponentPad*
D10*
G36*
X155588428Y-83886917D02*
G01*
X155632111Y-83893397D01*
X155674948Y-83904127D01*
X155716528Y-83919004D01*
X155756449Y-83937885D01*
X155794327Y-83960589D01*
X155829797Y-83986895D01*
X155862518Y-84016552D01*
X155892175Y-84049273D01*
X155918481Y-84084743D01*
X155941185Y-84122621D01*
X155960066Y-84162542D01*
X155974943Y-84204122D01*
X155985673Y-84246959D01*
X155992153Y-84290642D01*
X155994320Y-84334750D01*
X155994320Y-85234750D01*
X155992153Y-85278858D01*
X155985673Y-85322541D01*
X155974943Y-85365378D01*
X155960066Y-85406958D01*
X155941185Y-85446879D01*
X155918481Y-85484757D01*
X155892175Y-85520227D01*
X155862518Y-85552948D01*
X155829797Y-85582605D01*
X155794327Y-85608911D01*
X155756449Y-85631615D01*
X155716528Y-85650496D01*
X155674948Y-85665373D01*
X155632111Y-85676103D01*
X155588428Y-85682583D01*
X155544320Y-85684750D01*
X154644320Y-85684750D01*
X154600212Y-85682583D01*
X154556529Y-85676103D01*
X154513692Y-85665373D01*
X154472112Y-85650496D01*
X154432191Y-85631615D01*
X154394313Y-85608911D01*
X154358843Y-85582605D01*
X154326122Y-85552948D01*
X154296465Y-85520227D01*
X154270159Y-85484757D01*
X154247455Y-85446879D01*
X154228574Y-85406958D01*
X154213697Y-85365378D01*
X154202967Y-85322541D01*
X154196487Y-85278858D01*
X154194320Y-85234750D01*
X154194320Y-84334750D01*
X154196487Y-84290642D01*
X154202967Y-84246959D01*
X154213697Y-84204122D01*
X154228574Y-84162542D01*
X154247455Y-84122621D01*
X154270159Y-84084743D01*
X154296465Y-84049273D01*
X154326122Y-84016552D01*
X154358843Y-83986895D01*
X154394313Y-83960589D01*
X154432191Y-83937885D01*
X154472112Y-83919004D01*
X154513692Y-83904127D01*
X154556529Y-83893397D01*
X154600212Y-83886917D01*
X154644320Y-83884750D01*
X155544320Y-83884750D01*
X155588428Y-83886917D01*
G37*
G04 #@! TD.AperFunction*
D19*
X132199320Y-86614000D03*
X129659320Y-86614000D03*
X127119320Y-86614000D03*
D20*
X124579320Y-86614000D03*
D21*
X125849320Y-60774750D03*
X125849320Y-81274750D03*
D22*
X123309320Y-71024750D03*
D21*
X127119320Y-60774750D03*
X128389320Y-60774750D03*
X129659320Y-60774750D03*
X130929320Y-60774750D03*
X132199320Y-60774750D03*
X133469320Y-60774750D03*
X134739320Y-60774750D03*
X136009320Y-60774750D03*
X137279320Y-60774750D03*
X138549320Y-60774750D03*
X139819320Y-60774750D03*
X127119320Y-81274750D03*
X128389320Y-81274750D03*
X129659320Y-81274750D03*
X130929320Y-81274750D03*
X132199320Y-81274750D03*
X133469320Y-81274750D03*
X134739320Y-81274750D03*
X136009320Y-81274750D03*
X137279320Y-81274750D03*
X138549320Y-81274750D03*
X139819320Y-81274750D03*
D22*
X123309320Y-72294750D03*
X123309320Y-73564750D03*
X123309320Y-74834750D03*
X123309320Y-76104750D03*
X123309320Y-69754750D03*
X123309320Y-68484750D03*
X123309320Y-67214750D03*
X123309320Y-65944750D03*
D18*
X84328000Y-81582000D03*
X84328000Y-84582000D03*
G04 #@! TA.AperFunction,ComponentPad*
D10*
G36*
X82972108Y-82184167D02*
G01*
X83015791Y-82190647D01*
X83058628Y-82201377D01*
X83100208Y-82216254D01*
X83140129Y-82235135D01*
X83178007Y-82257839D01*
X83213477Y-82284145D01*
X83246198Y-82313802D01*
X83275855Y-82346523D01*
X83302161Y-82381993D01*
X83324865Y-82419871D01*
X83343746Y-82459792D01*
X83358623Y-82501372D01*
X83369353Y-82544209D01*
X83375833Y-82587892D01*
X83378000Y-82632000D01*
X83378000Y-83532000D01*
X83375833Y-83576108D01*
X83369353Y-83619791D01*
X83358623Y-83662628D01*
X83343746Y-83704208D01*
X83324865Y-83744129D01*
X83302161Y-83782007D01*
X83275855Y-83817477D01*
X83246198Y-83850198D01*
X83213477Y-83879855D01*
X83178007Y-83906161D01*
X83140129Y-83928865D01*
X83100208Y-83947746D01*
X83058628Y-83962623D01*
X83015791Y-83973353D01*
X82972108Y-83979833D01*
X82928000Y-83982000D01*
X82028000Y-83982000D01*
X81983892Y-83979833D01*
X81940209Y-83973353D01*
X81897372Y-83962623D01*
X81855792Y-83947746D01*
X81815871Y-83928865D01*
X81777993Y-83906161D01*
X81742523Y-83879855D01*
X81709802Y-83850198D01*
X81680145Y-83817477D01*
X81653839Y-83782007D01*
X81631135Y-83744129D01*
X81612254Y-83704208D01*
X81597377Y-83662628D01*
X81586647Y-83619791D01*
X81580167Y-83576108D01*
X81578000Y-83532000D01*
X81578000Y-82632000D01*
X81580167Y-82587892D01*
X81586647Y-82544209D01*
X81597377Y-82501372D01*
X81612254Y-82459792D01*
X81631135Y-82419871D01*
X81653839Y-82381993D01*
X81680145Y-82346523D01*
X81709802Y-82313802D01*
X81742523Y-82284145D01*
X81777993Y-82257839D01*
X81815871Y-82235135D01*
X81855792Y-82216254D01*
X81897372Y-82201377D01*
X81940209Y-82190647D01*
X81983892Y-82184167D01*
X82028000Y-82182000D01*
X82928000Y-82182000D01*
X82972108Y-82184167D01*
G37*
G04 #@! TD.AperFunction*
D23*
X145319600Y-90037920D03*
X145319600Y-52014120D03*
X95619600Y-90037920D03*
X95619600Y-52014120D03*
D24*
X105156000Y-85090000D03*
X101346000Y-85090000D03*
X91317750Y-74290250D03*
X97282000Y-64262000D03*
X95758000Y-68326000D03*
X137279320Y-63619320D03*
X134620000Y-86614000D03*
X133469320Y-63619320D03*
X134739320Y-63619320D03*
X136009320Y-63619320D03*
X132199320Y-72763320D03*
X129659320Y-57792680D03*
X128397000Y-56261000D03*
X107442000Y-73406000D03*
D25*
X101346000Y-82779250D02*
X101346000Y-85090000D01*
X105156000Y-82779250D02*
X105156000Y-85090000D01*
D26*
X101346000Y-82779250D02*
X101067250Y-82779250D01*
D25*
X101346000Y-74260250D02*
X97536000Y-74260250D01*
D26*
X93756000Y-74260250D02*
X93726000Y-74290250D01*
D25*
X97536000Y-74260250D02*
X93756000Y-74260250D01*
X93726000Y-74290250D02*
X91317750Y-74290250D01*
D26*
X91317750Y-74290250D02*
X91317750Y-74290250D01*
D25*
X98981250Y-79804250D02*
X97536000Y-79804250D01*
X99441000Y-80264000D02*
X98981250Y-79804250D01*
X99441000Y-80264000D02*
X99441000Y-82296000D01*
X99924250Y-82779250D02*
X101346000Y-82779250D01*
X99441000Y-82296000D02*
X99924250Y-82779250D01*
X100570000Y-65431750D02*
X98451750Y-65431750D01*
X98451750Y-65431750D02*
X97282000Y-64262000D01*
X97282000Y-64262000D02*
X97282000Y-64262000D01*
X94996000Y-67564000D02*
X95758000Y-68326000D01*
X94996000Y-66040000D02*
X94996000Y-67564000D01*
X143832100Y-84214750D02*
X140575250Y-84214750D01*
X139819320Y-84970680D02*
X139819320Y-86614000D01*
X140575250Y-84214750D02*
X139819320Y-84970680D01*
X94996000Y-58420000D02*
X97790000Y-58420000D01*
X98501750Y-59131750D02*
X102870000Y-59131750D01*
X97790000Y-58420000D02*
X98501750Y-59131750D01*
D26*
X97466000Y-71315250D02*
X97536000Y-71385250D01*
D25*
X93726000Y-71315250D02*
X97466000Y-71315250D01*
X97536000Y-69342000D02*
X97536000Y-71385250D01*
X101981000Y-68580000D02*
X98298000Y-68580000D01*
X98298000Y-68580000D02*
X97536000Y-69342000D01*
X102870000Y-67691000D02*
X101981000Y-68580000D01*
X102870000Y-65431750D02*
X102870000Y-67691000D01*
D26*
X137279320Y-63619320D02*
X137279320Y-63619320D01*
D25*
X137279320Y-63619320D02*
X137279320Y-60774750D01*
X142748000Y-78486000D02*
X143832100Y-79570100D01*
X138430000Y-78486000D02*
X142748000Y-78486000D01*
X137279320Y-77335320D02*
X138430000Y-78486000D01*
X143832100Y-79570100D02*
X143832100Y-84214750D01*
X137279320Y-63619320D02*
X137279320Y-77335320D01*
X97790000Y-62230000D02*
X94996000Y-62230000D01*
X98552000Y-62992000D02*
X97790000Y-62230000D01*
X107442000Y-62992000D02*
X98552000Y-62992000D01*
X125444250Y-67214750D02*
X123309320Y-67214750D01*
X125984000Y-65151000D02*
X125984000Y-66675000D01*
X125476000Y-64643000D02*
X125984000Y-65151000D01*
X119380000Y-64643000D02*
X125476000Y-64643000D01*
X118364000Y-63627000D02*
X119380000Y-64643000D01*
X118364000Y-56896000D02*
X118364000Y-63627000D01*
X117475000Y-56007000D02*
X118364000Y-56896000D01*
X109728000Y-56007000D02*
X117475000Y-56007000D01*
X108966000Y-56769000D02*
X109728000Y-56007000D01*
X108966000Y-78867000D02*
X108966000Y-56769000D01*
X125984000Y-66675000D02*
X125444250Y-67214750D01*
X108028750Y-79804250D02*
X108966000Y-78867000D01*
X105156000Y-79804250D02*
X108028750Y-79804250D01*
X107442000Y-62992000D02*
X108966000Y-62992000D01*
X93726000Y-82779250D02*
X97536000Y-82779250D01*
X119475250Y-65944750D02*
X123309320Y-65944750D01*
X118364000Y-67056000D02*
X119475250Y-65944750D01*
X118364000Y-85725000D02*
X118364000Y-67056000D01*
X117348000Y-86741000D02*
X118364000Y-85725000D01*
X97536000Y-84074000D02*
X100203000Y-86741000D01*
X100203000Y-86741000D02*
X117348000Y-86741000D01*
X97536000Y-82779250D02*
X97536000Y-84074000D01*
X137279320Y-81274750D02*
X137279320Y-82938680D01*
X137279320Y-82938680D02*
X136271000Y-83947000D01*
X136271000Y-83947000D02*
X132842000Y-83947000D01*
X132199320Y-84589680D02*
X132199320Y-86614000D01*
X132842000Y-83947000D02*
X132199320Y-84589680D01*
X129659320Y-84828320D02*
X129659320Y-86614000D01*
X128778000Y-83947000D02*
X129659320Y-84828320D01*
X127691570Y-83947000D02*
X128778000Y-83947000D01*
X127119320Y-83374750D02*
X127691570Y-83947000D01*
X127119320Y-81274750D02*
X127119320Y-83374750D01*
X125849320Y-81274750D02*
X125849320Y-83685320D01*
X127119320Y-84955320D02*
X127119320Y-86614000D01*
X125849320Y-83685320D02*
X127119320Y-84955320D01*
X125409320Y-68484750D02*
X125984000Y-69059430D01*
X123309320Y-68484750D02*
X125409320Y-68484750D01*
X125984000Y-69059430D02*
X125984000Y-77343000D01*
X124579320Y-78747680D02*
X124579320Y-86614000D01*
X125984000Y-77343000D02*
X124579320Y-78747680D01*
X136844320Y-85024680D02*
X136844320Y-86614000D01*
X138549320Y-83319680D02*
X136844320Y-85024680D01*
X138549320Y-81274750D02*
X138549320Y-83319680D01*
X136844320Y-86614000D02*
X134620000Y-86614000D01*
D26*
X134620000Y-86614000D02*
X134620000Y-86614000D01*
D25*
X133469320Y-60774750D02*
X133469320Y-63619320D01*
D26*
X133469320Y-63619320D02*
X133469320Y-63619320D01*
D25*
X134739320Y-60774750D02*
X134739320Y-63619320D01*
D26*
X134739320Y-63619320D02*
X134739320Y-63619320D01*
D25*
X136009320Y-60774750D02*
X136009320Y-63619320D01*
D26*
X136009320Y-63619320D02*
X136009320Y-63619320D01*
D25*
X132199320Y-60774750D02*
X132199320Y-72763320D01*
D26*
X132199320Y-72763320D02*
X132199320Y-72763320D01*
D25*
X129659320Y-60774750D02*
X129659320Y-57792680D01*
D26*
X129659320Y-57792680D02*
X129659320Y-57792680D01*
D25*
X128397000Y-56261000D02*
X128397000Y-60767070D01*
X106680000Y-61595000D02*
X99060000Y-61595000D01*
X97790000Y-60325000D02*
X85852000Y-60325000D01*
X107569000Y-60706000D02*
X106680000Y-61595000D01*
X99060000Y-61595000D02*
X97790000Y-60325000D01*
X108966000Y-54737000D02*
X107569000Y-56134000D01*
X124714000Y-54737000D02*
X108966000Y-54737000D01*
X107569000Y-56134000D02*
X107569000Y-60706000D01*
X125849320Y-55872320D02*
X124714000Y-54737000D01*
X125849320Y-60774750D02*
X125849320Y-55872320D01*
X120618250Y-76104750D02*
X123309320Y-76104750D01*
X119634000Y-77089000D02*
X120618250Y-76104750D01*
X117983000Y-87884000D02*
X119634000Y-86233000D01*
X99695000Y-87884000D02*
X117983000Y-87884000D01*
X97536000Y-85725000D02*
X99695000Y-87884000D01*
X90551000Y-85725000D02*
X97536000Y-85725000D01*
X119634000Y-86233000D02*
X119634000Y-77089000D01*
X89916000Y-85090000D02*
X90551000Y-85725000D01*
X89916000Y-82779250D02*
X89916000Y-85090000D01*
D26*
X105170000Y-71301250D02*
X105156000Y-71315250D01*
D25*
X105170000Y-65431750D02*
X105170000Y-71301250D01*
D26*
X105086000Y-71385250D02*
X105156000Y-71315250D01*
D25*
X101346000Y-71385250D02*
X105086000Y-71385250D01*
D27*
X105156000Y-74290250D02*
X105156000Y-75819000D01*
X89535000Y-75819000D02*
X89535000Y-73787000D01*
X104521000Y-76454000D02*
X90170000Y-76454000D01*
X90170000Y-76454000D02*
X89535000Y-75819000D01*
X89535000Y-73787000D02*
X88897750Y-73149750D01*
X88897750Y-73149750D02*
X88011000Y-73149750D01*
X105156000Y-75819000D02*
X104521000Y-76454000D01*
D25*
X106557750Y-74290250D02*
X107442000Y-73406000D01*
X105156000Y-74290250D02*
X106557750Y-74290250D01*
X151384000Y-85090000D02*
X150508750Y-84214750D01*
X151384000Y-86487000D02*
X151384000Y-85090000D01*
X152221750Y-87324750D02*
X151384000Y-86487000D01*
X152221750Y-87324750D02*
X155094320Y-87324750D01*
X150508750Y-84214750D02*
X146807100Y-84214750D01*
X150572250Y-57834750D02*
X151384000Y-57023000D01*
X151384000Y-57023000D02*
X151384000Y-55626000D01*
X151384000Y-55626000D02*
X152285250Y-54724750D01*
X152285250Y-54724750D02*
X155094320Y-54724750D01*
X150572250Y-57834750D02*
X146807100Y-57834750D01*
X85852000Y-57785000D02*
X88646000Y-57785000D01*
X89281000Y-58420000D02*
X92021000Y-58420000D01*
X88646000Y-57785000D02*
X89281000Y-58420000D01*
D27*
X85636550Y-70599750D02*
X86661000Y-70599750D01*
X85191600Y-70154800D02*
X85636550Y-70599750D01*
X85191600Y-63398400D02*
X85191600Y-70154800D01*
X86360000Y-62230000D02*
X85191600Y-63398400D01*
X92021000Y-62230000D02*
X86360000Y-62230000D01*
D25*
X89916000Y-79804250D02*
X93726000Y-79804250D01*
D28*
X87734002Y-70599750D02*
X86884002Y-71449750D01*
D27*
X87551250Y-79804250D02*
X86614000Y-78867000D01*
X89916000Y-79804250D02*
X87551250Y-79804250D01*
D28*
X86661000Y-71449750D02*
X86884002Y-71449750D01*
X88011000Y-70599750D02*
X87734002Y-70599750D01*
D27*
X83566000Y-78867000D02*
X86614000Y-78867000D01*
X82042000Y-77343000D02*
X83566000Y-78867000D01*
X86661000Y-71449750D02*
X83490250Y-71449750D01*
X82042000Y-72898000D02*
X82042000Y-77343000D01*
X83490250Y-71449750D02*
X82042000Y-72898000D01*
X92021000Y-69015000D02*
X92021000Y-66040000D01*
X91286250Y-69749750D02*
X92021000Y-69015000D01*
X88011000Y-69749750D02*
X91286250Y-69749750D01*
X85688250Y-72299750D02*
X86661000Y-72299750D01*
X85153500Y-72834500D02*
X85688250Y-72299750D01*
X101346000Y-78232000D02*
X100838000Y-77724000D01*
X101346000Y-79804250D02*
X101346000Y-78232000D01*
X100838000Y-77724000D02*
X86233000Y-77724000D01*
X85153500Y-76644500D02*
X85153500Y-72834500D01*
X86233000Y-77724000D02*
X85153500Y-76644500D01*
D29*
G36*
X158351350Y-48347069D02*
G01*
X158422929Y-48352762D01*
X158481447Y-48359313D01*
X158512708Y-48364134D01*
X158554775Y-48372748D01*
X158599730Y-48384306D01*
X158645601Y-48398154D01*
X158699304Y-48416370D01*
X158704188Y-48418128D01*
X158758806Y-48438849D01*
X158805531Y-48458144D01*
X158849374Y-48477901D01*
X158891961Y-48498880D01*
X158908381Y-48507567D01*
X158946390Y-48529175D01*
X158980038Y-48550075D01*
X159011065Y-48571098D01*
X159043506Y-48595063D01*
X159056729Y-48605558D01*
X159085893Y-48630415D01*
X159111399Y-48654072D01*
X159136038Y-48678909D01*
X159160732Y-48705959D01*
X159177238Y-48725471D01*
X159200064Y-48754613D01*
X159221280Y-48784102D01*
X159242617Y-48816462D01*
X159264315Y-48852466D01*
X159274350Y-48870444D01*
X159294552Y-48909554D01*
X159314168Y-48951217D01*
X159333448Y-48996068D01*
X159353474Y-49046889D01*
X159363834Y-49075019D01*
X159382192Y-49128445D01*
X159397168Y-49176905D01*
X159409222Y-49221913D01*
X159420120Y-49271830D01*
X159427847Y-49323889D01*
X159434336Y-49385957D01*
X159440471Y-49466535D01*
X159442320Y-49494879D01*
X159442321Y-92556594D01*
X159438564Y-92618514D01*
X159432996Y-92690398D01*
X159426587Y-92748437D01*
X159421599Y-92780864D01*
X159412685Y-92823951D01*
X159402022Y-92865051D01*
X159388280Y-92910277D01*
X159370019Y-92963677D01*
X159368422Y-92968075D01*
X159347794Y-93021910D01*
X159328503Y-93068179D01*
X159308882Y-93111374D01*
X159287545Y-93154441D01*
X159278573Y-93171333D01*
X159256939Y-93209315D01*
X159235383Y-93244017D01*
X159214810Y-93274407D01*
X159188332Y-93310221D01*
X159180269Y-93320368D01*
X159154704Y-93350357D01*
X159130037Y-93376884D01*
X159105471Y-93401151D01*
X159078367Y-93425779D01*
X159061022Y-93440410D01*
X159031054Y-93463828D01*
X159001132Y-93485294D01*
X158968901Y-93506513D01*
X158932245Y-93528630D01*
X158913487Y-93539145D01*
X158872632Y-93560386D01*
X158830496Y-93580406D01*
X158786088Y-93599723D01*
X158735379Y-93619970D01*
X158710977Y-93629087D01*
X158658633Y-93647338D01*
X158612118Y-93661901D01*
X158568248Y-93673788D01*
X158521948Y-93684051D01*
X158470493Y-93691728D01*
X158412021Y-93697828D01*
X158333987Y-93703636D01*
X158292398Y-93706192D01*
X82644264Y-93706192D01*
X82578532Y-93702109D01*
X82507746Y-93696454D01*
X82450089Y-93689919D01*
X82421601Y-93685493D01*
X82380137Y-93676987D01*
X82337978Y-93666168D01*
X82292051Y-93652332D01*
X82239552Y-93634525D01*
X82231852Y-93631746D01*
X82178502Y-93611404D01*
X82131491Y-93591897D01*
X82087832Y-93572133D01*
X82044488Y-93550698D01*
X82028727Y-93542336D01*
X81989348Y-93519905D01*
X81956397Y-93499418D01*
X81925441Y-93478459D01*
X81893413Y-93454841D01*
X81879406Y-93443738D01*
X81850414Y-93419033D01*
X81824963Y-93395428D01*
X81800369Y-93370635D01*
X81775685Y-93343591D01*
X81759174Y-93324070D01*
X81736335Y-93294908D01*
X81715019Y-93265278D01*
X81694253Y-93233808D01*
X81672217Y-93197290D01*
X81662021Y-93179036D01*
X81641014Y-93138346D01*
X81621940Y-93097800D01*
X81602851Y-93053425D01*
X81582574Y-93002011D01*
X81572443Y-92974514D01*
X81554088Y-92921168D01*
X81539213Y-92873077D01*
X81526718Y-92826366D01*
X81516292Y-92778531D01*
X81508480Y-92725904D01*
X81502235Y-92666358D01*
X81495903Y-92583240D01*
X81494060Y-92554808D01*
X81494060Y-85734215D01*
X83561865Y-85734215D01*
X83656560Y-85970613D01*
X83940366Y-86074924D01*
X84239069Y-86121861D01*
X84541191Y-86109623D01*
X84835119Y-86038678D01*
X84999440Y-85970613D01*
X85094135Y-85734215D01*
X84328000Y-84968080D01*
X83561865Y-85734215D01*
X81494060Y-85734215D01*
X81494060Y-84611805D01*
X81578000Y-84620072D01*
X82046250Y-84617000D01*
X82205000Y-84458250D01*
X82205000Y-83355000D01*
X82185000Y-83355000D01*
X82185000Y-82809000D01*
X82205000Y-82809000D01*
X82205000Y-82789000D01*
X82751000Y-82789000D01*
X82751000Y-82809000D01*
X82771000Y-82809000D01*
X82771000Y-83355000D01*
X82751000Y-83355000D01*
X82751000Y-84458250D01*
X82788237Y-84495487D01*
X82800377Y-84795191D01*
X82871322Y-85089119D01*
X82939387Y-85253440D01*
X83175785Y-85348135D01*
X83941920Y-84582000D01*
X84714080Y-84582000D01*
X85480215Y-85348135D01*
X85716613Y-85253440D01*
X85820924Y-84969634D01*
X85867861Y-84670931D01*
X85855623Y-84368809D01*
X85784678Y-84074881D01*
X85716613Y-83910560D01*
X85480215Y-83815865D01*
X84714080Y-84582000D01*
X83941920Y-84582000D01*
X83927778Y-84567858D01*
X84313858Y-84181778D01*
X84328000Y-84195920D01*
X85094135Y-83429785D01*
X84999440Y-83193387D01*
X84973581Y-83183883D01*
X85146041Y-83112447D01*
X85428898Y-82923448D01*
X85669448Y-82682898D01*
X85858447Y-82400041D01*
X85988632Y-82085747D01*
X86055000Y-81752095D01*
X86055000Y-81411905D01*
X85988632Y-81078253D01*
X85858447Y-80763959D01*
X85669448Y-80481102D01*
X85428898Y-80240552D01*
X85146041Y-80051553D01*
X85007096Y-79994000D01*
X86147182Y-79994000D01*
X86715195Y-80562014D01*
X86750485Y-80605015D01*
X86793486Y-80640305D01*
X86793489Y-80640308D01*
X86902864Y-80730069D01*
X86922093Y-80745850D01*
X87117879Y-80850500D01*
X87330319Y-80914943D01*
X87495885Y-80931250D01*
X87495893Y-80931250D01*
X87551250Y-80936702D01*
X87606607Y-80931250D01*
X88444645Y-80931250D01*
X88526617Y-81031133D01*
X88646000Y-81129108D01*
X88646000Y-81454392D01*
X88526617Y-81552367D01*
X88392181Y-81716178D01*
X88292285Y-81903069D01*
X88230770Y-82105857D01*
X88209999Y-82316750D01*
X88209999Y-83241750D01*
X88230770Y-83452643D01*
X88292285Y-83655431D01*
X88392181Y-83842322D01*
X88526617Y-84006133D01*
X88690428Y-84140569D01*
X88739001Y-84166532D01*
X88739001Y-85032178D01*
X88733306Y-85090000D01*
X88756031Y-85320731D01*
X88823334Y-85542597D01*
X88932626Y-85747069D01*
X88941290Y-85757626D01*
X89079710Y-85926291D01*
X89124618Y-85963146D01*
X89677853Y-86516382D01*
X89714709Y-86561291D01*
X89893930Y-86708374D01*
X90098403Y-86817667D01*
X90320268Y-86884969D01*
X90551000Y-86907694D01*
X90608812Y-86902000D01*
X97048472Y-86902000D01*
X98821853Y-88675382D01*
X98858709Y-88720291D01*
X99037930Y-88867374D01*
X99242403Y-88976667D01*
X99464268Y-89043969D01*
X99694999Y-89066694D01*
X99752811Y-89061000D01*
X117925188Y-89061000D01*
X117983000Y-89066694D01*
X118040812Y-89061000D01*
X118213732Y-89043969D01*
X118435597Y-88976667D01*
X118640070Y-88867374D01*
X118819291Y-88720291D01*
X118856151Y-88675378D01*
X120425389Y-87106141D01*
X120470291Y-87069291D01*
X120550357Y-86971731D01*
X120617374Y-86890070D01*
X120695077Y-86744698D01*
X120726667Y-86685597D01*
X120793969Y-86463732D01*
X120811000Y-86290812D01*
X120811000Y-86290811D01*
X120816694Y-86233000D01*
X120811000Y-86175188D01*
X120811000Y-77576529D01*
X121105779Y-77281750D01*
X121968696Y-77281750D01*
X122009320Y-77285751D01*
X124376720Y-77285751D01*
X123787942Y-77874530D01*
X123743029Y-77911389D01*
X123595946Y-78090611D01*
X123486653Y-78295084D01*
X123423592Y-78502969D01*
X123419351Y-78516949D01*
X123396626Y-78747680D01*
X123402320Y-78805492D01*
X123402321Y-85419363D01*
X123276709Y-85544975D01*
X123093182Y-85819643D01*
X122966766Y-86124837D01*
X122902320Y-86448830D01*
X122902320Y-86779170D01*
X122966766Y-87103163D01*
X123093182Y-87408357D01*
X123276709Y-87683025D01*
X123510295Y-87916611D01*
X123784963Y-88100138D01*
X124090157Y-88226554D01*
X124414150Y-88291000D01*
X124744490Y-88291000D01*
X125068483Y-88226554D01*
X125373677Y-88100138D01*
X125648345Y-87916611D01*
X125849320Y-87715636D01*
X126050295Y-87916611D01*
X126324963Y-88100138D01*
X126630157Y-88226554D01*
X126954150Y-88291000D01*
X127284490Y-88291000D01*
X127608483Y-88226554D01*
X127913677Y-88100138D01*
X128188345Y-87916611D01*
X128389320Y-87715636D01*
X128590295Y-87916611D01*
X128864963Y-88100138D01*
X129170157Y-88226554D01*
X129494150Y-88291000D01*
X129824490Y-88291000D01*
X130148483Y-88226554D01*
X130453677Y-88100138D01*
X130728345Y-87916611D01*
X130929320Y-87715636D01*
X131130295Y-87916611D01*
X131404963Y-88100138D01*
X131710157Y-88226554D01*
X132034150Y-88291000D01*
X132364490Y-88291000D01*
X132688483Y-88226554D01*
X132993677Y-88100138D01*
X133268345Y-87916611D01*
X133501931Y-87683025D01*
X133626273Y-87496934D01*
X133774087Y-87644748D01*
X133991430Y-87789972D01*
X134232928Y-87890004D01*
X134489302Y-87941000D01*
X134750698Y-87941000D01*
X135007072Y-87890004D01*
X135246088Y-87791000D01*
X135457039Y-87791000D01*
X135483001Y-87839572D01*
X135617437Y-88003383D01*
X135781248Y-88137819D01*
X135968139Y-88237715D01*
X136170927Y-88299230D01*
X136381820Y-88320001D01*
X137306820Y-88320001D01*
X137517713Y-88299230D01*
X137720501Y-88237715D01*
X137907392Y-88137819D01*
X138071203Y-88003383D01*
X138205639Y-87839572D01*
X138305535Y-87652681D01*
X138331820Y-87566031D01*
X138358105Y-87652681D01*
X138458001Y-87839572D01*
X138592437Y-88003383D01*
X138756248Y-88137819D01*
X138943139Y-88237715D01*
X139145927Y-88299230D01*
X139356820Y-88320001D01*
X140281820Y-88320001D01*
X140492713Y-88299230D01*
X140695501Y-88237715D01*
X140882392Y-88137819D01*
X141046203Y-88003383D01*
X141180639Y-87839572D01*
X141280535Y-87652681D01*
X141342050Y-87449893D01*
X141362821Y-87239000D01*
X141362821Y-85989000D01*
X141342050Y-85778107D01*
X141280535Y-85575319D01*
X141182415Y-85391750D01*
X142444819Y-85391750D01*
X142470781Y-85440322D01*
X142605217Y-85604133D01*
X142769028Y-85738569D01*
X142955919Y-85838465D01*
X143158707Y-85899980D01*
X143369600Y-85920751D01*
X144294600Y-85920751D01*
X144505493Y-85899980D01*
X144708281Y-85838465D01*
X144895172Y-85738569D01*
X145058983Y-85604133D01*
X145193419Y-85440322D01*
X145293315Y-85253431D01*
X145319600Y-85166781D01*
X145345885Y-85253431D01*
X145445781Y-85440322D01*
X145580217Y-85604133D01*
X145744028Y-85738569D01*
X145930919Y-85838465D01*
X146133707Y-85899980D01*
X146344600Y-85920751D01*
X147269600Y-85920751D01*
X147480493Y-85899980D01*
X147683281Y-85838465D01*
X147870172Y-85738569D01*
X148033983Y-85604133D01*
X148168419Y-85440322D01*
X148194381Y-85391750D01*
X150021222Y-85391750D01*
X150207000Y-85577529D01*
X150207000Y-86429188D01*
X150201306Y-86487000D01*
X150207000Y-86544811D01*
X150224031Y-86717731D01*
X150291333Y-86939596D01*
X150400626Y-87144069D01*
X150547709Y-87323291D01*
X150592622Y-87360151D01*
X151348603Y-88116132D01*
X151385459Y-88161041D01*
X151564680Y-88308124D01*
X151769153Y-88417417D01*
X151991018Y-88484719D01*
X152163938Y-88501750D01*
X152163947Y-88501750D01*
X152221749Y-88507443D01*
X152279551Y-88501750D01*
X153828974Y-88501750D01*
X153993422Y-88666198D01*
X154276279Y-88855197D01*
X154590573Y-88985382D01*
X154924225Y-89051750D01*
X155264415Y-89051750D01*
X155598067Y-88985382D01*
X155912361Y-88855197D01*
X156195218Y-88666198D01*
X156435768Y-88425648D01*
X156624767Y-88142791D01*
X156754952Y-87828497D01*
X156821320Y-87494845D01*
X156821320Y-87154655D01*
X156754952Y-86821003D01*
X156624767Y-86506709D01*
X156435768Y-86223852D01*
X156396488Y-86184572D01*
X156450124Y-86140554D01*
X156609433Y-85946436D01*
X156727811Y-85724968D01*
X156800707Y-85484661D01*
X156825321Y-85234750D01*
X156825321Y-84334750D01*
X156800707Y-84084839D01*
X156727811Y-83844532D01*
X156609433Y-83623064D01*
X156450124Y-83428946D01*
X156256006Y-83269637D01*
X156034538Y-83151259D01*
X155794231Y-83078363D01*
X155544320Y-83053749D01*
X154644320Y-83053749D01*
X154394409Y-83078363D01*
X154154102Y-83151259D01*
X153932634Y-83269637D01*
X153738516Y-83428946D01*
X153579207Y-83623064D01*
X153460829Y-83844532D01*
X153387933Y-84084839D01*
X153363319Y-84334750D01*
X153363319Y-85234750D01*
X153387933Y-85484661D01*
X153460829Y-85724968D01*
X153579207Y-85946436D01*
X153738516Y-86140554D01*
X153747284Y-86147750D01*
X152709279Y-86147750D01*
X152561000Y-85999472D01*
X152561000Y-85147801D01*
X152566693Y-85089999D01*
X152561000Y-85032197D01*
X152561000Y-85032188D01*
X152543969Y-84859268D01*
X152476667Y-84637403D01*
X152367374Y-84432930D01*
X152220291Y-84253709D01*
X152175382Y-84216853D01*
X151381901Y-83423373D01*
X151345041Y-83378459D01*
X151165820Y-83231376D01*
X150961347Y-83122083D01*
X150739482Y-83054781D01*
X150566562Y-83037750D01*
X150508750Y-83032056D01*
X150450938Y-83037750D01*
X148194381Y-83037750D01*
X148168419Y-82989178D01*
X148033983Y-82825367D01*
X147870172Y-82690931D01*
X147683281Y-82591035D01*
X147480493Y-82529520D01*
X147269600Y-82508749D01*
X146344600Y-82508749D01*
X146133707Y-82529520D01*
X145930919Y-82591035D01*
X145744028Y-82690931D01*
X145580217Y-82825367D01*
X145445781Y-82989178D01*
X145345885Y-83176069D01*
X145319600Y-83262719D01*
X145293315Y-83176069D01*
X145193419Y-82989178D01*
X145058983Y-82825367D01*
X145009100Y-82784429D01*
X145009100Y-79627912D01*
X145014794Y-79570100D01*
X144992069Y-79339368D01*
X144986072Y-79319598D01*
X144924767Y-79117503D01*
X144815474Y-78913030D01*
X144668391Y-78733809D01*
X144623483Y-78696954D01*
X143621151Y-77694623D01*
X143584291Y-77649709D01*
X143405070Y-77502626D01*
X143200597Y-77393333D01*
X142978732Y-77326031D01*
X142805812Y-77309000D01*
X142748000Y-77303306D01*
X142690188Y-77309000D01*
X138917529Y-77309000D01*
X138456320Y-76847792D01*
X138456320Y-64245408D01*
X138555324Y-64006392D01*
X138606320Y-63750018D01*
X138606320Y-63488622D01*
X138555324Y-63232248D01*
X138456320Y-62993232D01*
X138456320Y-62115374D01*
X138460321Y-62074750D01*
X138460321Y-61047750D01*
X138772320Y-61047750D01*
X138772320Y-62551000D01*
X138931070Y-62709750D01*
X139029937Y-62699310D01*
X139149273Y-62661827D01*
X139184320Y-62642649D01*
X139219367Y-62661827D01*
X139338703Y-62699310D01*
X139437570Y-62709750D01*
X139596320Y-62551000D01*
X139596320Y-61047750D01*
X140042320Y-61047750D01*
X140042320Y-62551000D01*
X140201070Y-62709750D01*
X140299937Y-62699310D01*
X140419273Y-62661827D01*
X140529003Y-62601783D01*
X140624911Y-62521485D01*
X140703311Y-62424020D01*
X140761190Y-62313132D01*
X140796323Y-62193084D01*
X140807361Y-62068488D01*
X140804320Y-61206500D01*
X140645570Y-61047750D01*
X140042320Y-61047750D01*
X139596320Y-61047750D01*
X138772320Y-61047750D01*
X138460321Y-61047750D01*
X138460321Y-60481750D01*
X138772320Y-60481750D01*
X138772320Y-60501750D01*
X139596320Y-60501750D01*
X139596320Y-60481750D01*
X140042320Y-60481750D01*
X140042320Y-60501750D01*
X140645570Y-60501750D01*
X140804320Y-60343000D01*
X140806842Y-59628000D01*
X144126000Y-59628000D01*
X144255369Y-59617819D01*
X144378976Y-59598242D01*
X144474090Y-59577373D01*
X144625059Y-59518284D01*
X144736566Y-59461468D01*
X144820571Y-59412232D01*
X144868751Y-59372691D01*
X144895172Y-59358569D01*
X145058983Y-59224133D01*
X145193419Y-59060322D01*
X145293315Y-58873431D01*
X145319600Y-58786781D01*
X145345885Y-58873431D01*
X145445781Y-59060322D01*
X145580217Y-59224133D01*
X145744028Y-59358569D01*
X145930919Y-59458465D01*
X146133707Y-59519980D01*
X146344600Y-59540751D01*
X147269600Y-59540751D01*
X147480493Y-59519980D01*
X147683281Y-59458465D01*
X147870172Y-59358569D01*
X148033983Y-59224133D01*
X148168419Y-59060322D01*
X148194381Y-59011750D01*
X150514438Y-59011750D01*
X150572250Y-59017444D01*
X150630062Y-59011750D01*
X150802982Y-58994719D01*
X151024847Y-58927417D01*
X151229320Y-58818124D01*
X151408541Y-58671041D01*
X151445400Y-58626128D01*
X152175388Y-57896142D01*
X152220291Y-57859291D01*
X152273054Y-57795000D01*
X152367374Y-57680070D01*
X152408024Y-57604019D01*
X152476667Y-57475597D01*
X152543969Y-57253732D01*
X152561000Y-57080812D01*
X152561000Y-57080811D01*
X152566694Y-57023000D01*
X152561000Y-56965188D01*
X152561000Y-56113528D01*
X152772779Y-55901750D01*
X153747284Y-55901750D01*
X153738516Y-55908946D01*
X153579207Y-56103064D01*
X153460829Y-56324532D01*
X153387933Y-56564839D01*
X153363319Y-56814750D01*
X153363319Y-57714750D01*
X153387933Y-57964661D01*
X153460829Y-58204968D01*
X153579207Y-58426436D01*
X153738516Y-58620554D01*
X153932634Y-58779863D01*
X154154102Y-58898241D01*
X154394409Y-58971137D01*
X154644320Y-58995751D01*
X155544320Y-58995751D01*
X155794231Y-58971137D01*
X156034538Y-58898241D01*
X156256006Y-58779863D01*
X156450124Y-58620554D01*
X156609433Y-58426436D01*
X156727811Y-58204968D01*
X156800707Y-57964661D01*
X156825321Y-57714750D01*
X156825321Y-56814750D01*
X156800707Y-56564839D01*
X156727811Y-56324532D01*
X156609433Y-56103064D01*
X156450124Y-55908946D01*
X156396488Y-55864928D01*
X156435768Y-55825648D01*
X156624767Y-55542791D01*
X156754952Y-55228497D01*
X156821320Y-54894845D01*
X156821320Y-54554655D01*
X156754952Y-54221003D01*
X156624767Y-53906709D01*
X156435768Y-53623852D01*
X156195218Y-53383302D01*
X155912361Y-53194303D01*
X155598067Y-53064118D01*
X155264415Y-52997750D01*
X154924225Y-52997750D01*
X154590573Y-53064118D01*
X154276279Y-53194303D01*
X153993422Y-53383302D01*
X153828974Y-53547750D01*
X152343062Y-53547750D01*
X152285250Y-53542056D01*
X152227438Y-53547750D01*
X152054518Y-53564781D01*
X151832653Y-53632083D01*
X151628180Y-53741376D01*
X151448959Y-53888459D01*
X151412103Y-53933368D01*
X150592618Y-54752854D01*
X150547710Y-54789709D01*
X150469176Y-54885403D01*
X150400626Y-54968931D01*
X150365911Y-55033878D01*
X150291333Y-55173403D01*
X150224394Y-55394071D01*
X150224031Y-55395269D01*
X150201306Y-55626000D01*
X150207000Y-55683812D01*
X150207000Y-56535471D01*
X150084721Y-56657750D01*
X148194381Y-56657750D01*
X148168419Y-56609178D01*
X148033983Y-56445367D01*
X147870172Y-56310931D01*
X147683281Y-56211035D01*
X147480493Y-56149520D01*
X147269600Y-56128749D01*
X146344600Y-56128749D01*
X146133707Y-56149520D01*
X145930919Y-56211035D01*
X145744028Y-56310931D01*
X145580217Y-56445367D01*
X145445781Y-56609178D01*
X145345885Y-56796069D01*
X145319600Y-56882719D01*
X145293315Y-56796069D01*
X145193419Y-56609178D01*
X145058983Y-56445367D01*
X144895172Y-56310931D01*
X144708281Y-56211035D01*
X144659368Y-56196197D01*
X144625059Y-56178716D01*
X144535843Y-56139692D01*
X144378976Y-56098758D01*
X144255369Y-56079181D01*
X144126000Y-56069000D01*
X140296554Y-56069000D01*
X135829934Y-51602380D01*
X135704614Y-51499532D01*
X135574845Y-51412823D01*
X135431867Y-51336399D01*
X135276727Y-51289338D01*
X135123654Y-51258890D01*
X134962315Y-51243000D01*
X103924685Y-51243000D01*
X103763346Y-51258890D01*
X103610273Y-51289338D01*
X103455132Y-51336400D01*
X103312155Y-51412823D01*
X103182386Y-51499532D01*
X103057066Y-51602380D01*
X100497380Y-54162066D01*
X100394532Y-54287386D01*
X100307823Y-54417155D01*
X100231399Y-54560133D01*
X100184338Y-54715273D01*
X100153890Y-54868346D01*
X100138000Y-55029685D01*
X100138000Y-57954750D01*
X98989279Y-57954750D01*
X98663151Y-57628622D01*
X98626291Y-57583709D01*
X98447070Y-57436626D01*
X98242597Y-57327333D01*
X98020732Y-57260031D01*
X97847812Y-57243000D01*
X97790000Y-57237306D01*
X97732188Y-57243000D01*
X96383281Y-57243000D01*
X96357319Y-57194428D01*
X96222883Y-57030617D01*
X96059072Y-56896181D01*
X95872181Y-56796285D01*
X95669393Y-56734770D01*
X95458500Y-56713999D01*
X94533500Y-56713999D01*
X94322607Y-56734770D01*
X94119819Y-56796285D01*
X93932928Y-56896181D01*
X93769117Y-57030617D01*
X93634681Y-57194428D01*
X93534785Y-57381319D01*
X93508500Y-57467969D01*
X93482215Y-57381319D01*
X93382319Y-57194428D01*
X93247883Y-57030617D01*
X93084072Y-56896181D01*
X92897181Y-56796285D01*
X92694393Y-56734770D01*
X92483500Y-56713999D01*
X91558500Y-56713999D01*
X91347607Y-56734770D01*
X91144819Y-56796285D01*
X90957928Y-56896181D01*
X90794117Y-57030617D01*
X90659681Y-57194428D01*
X90633719Y-57243000D01*
X89768528Y-57243000D01*
X89519150Y-56993622D01*
X89482291Y-56948709D01*
X89303070Y-56801626D01*
X89098597Y-56692333D01*
X88876732Y-56625031D01*
X88703812Y-56608000D01*
X88646000Y-56602306D01*
X88588188Y-56608000D01*
X87117346Y-56608000D01*
X86952898Y-56443552D01*
X86670041Y-56254553D01*
X86355747Y-56124368D01*
X86022095Y-56058000D01*
X85681905Y-56058000D01*
X85348253Y-56124368D01*
X85033959Y-56254553D01*
X84751102Y-56443552D01*
X84510552Y-56684102D01*
X84321553Y-56966959D01*
X84191368Y-57281253D01*
X84125000Y-57614905D01*
X84125000Y-57955095D01*
X84191368Y-58288747D01*
X84321553Y-58603041D01*
X84510552Y-58885898D01*
X84549832Y-58925178D01*
X84496196Y-58969196D01*
X84336887Y-59163314D01*
X84218509Y-59384782D01*
X84145613Y-59625089D01*
X84120999Y-59875000D01*
X84120999Y-60775000D01*
X84145613Y-61024911D01*
X84218509Y-61265218D01*
X84336887Y-61486686D01*
X84496196Y-61680804D01*
X84690314Y-61840113D01*
X84911782Y-61958491D01*
X85008386Y-61987795D01*
X84433841Y-62562341D01*
X84390835Y-62597635D01*
X84250000Y-62769243D01*
X84145350Y-62965030D01*
X84080907Y-63177470D01*
X84064600Y-63343036D01*
X84064600Y-63343046D01*
X84059148Y-63398400D01*
X84064600Y-63453755D01*
X84064600Y-65624093D01*
X83924000Y-65757645D01*
X83924000Y-66426750D01*
X83944000Y-66426750D01*
X83944000Y-66972750D01*
X83924000Y-66972750D01*
X83924000Y-67641855D01*
X84064601Y-67775408D01*
X84064601Y-70099436D01*
X84059148Y-70154800D01*
X84064601Y-70210164D01*
X84064601Y-70210165D01*
X84075690Y-70322750D01*
X83545607Y-70322750D01*
X83490250Y-70317298D01*
X83434893Y-70322750D01*
X83434885Y-70322750D01*
X83269319Y-70339057D01*
X83056879Y-70403500D01*
X82861093Y-70508150D01*
X82732489Y-70613692D01*
X82732486Y-70613695D01*
X82689485Y-70648985D01*
X82654195Y-70691986D01*
X81591182Y-71755000D01*
X81494060Y-71755000D01*
X81494060Y-67133660D01*
X82256542Y-67133660D01*
X82304435Y-67275968D01*
X82435038Y-67449562D01*
X82596998Y-67594341D01*
X82784090Y-67704741D01*
X82989126Y-67776520D01*
X83204225Y-67806919D01*
X83378000Y-67641855D01*
X83378000Y-66972750D01*
X82365895Y-66972750D01*
X82256542Y-67133660D01*
X81494060Y-67133660D01*
X81494060Y-66265840D01*
X82256542Y-66265840D01*
X82365895Y-66426750D01*
X83378000Y-66426750D01*
X83378000Y-65757645D01*
X83204225Y-65592581D01*
X82989126Y-65622980D01*
X82784090Y-65694759D01*
X82596998Y-65805159D01*
X82435038Y-65949938D01*
X82304435Y-66123532D01*
X82256542Y-66265840D01*
X81494060Y-66265840D01*
X81494060Y-49493976D01*
X81497901Y-49433179D01*
X81503702Y-49360753D01*
X81510272Y-49302666D01*
X81514822Y-49273300D01*
X81523586Y-49230494D01*
X81534391Y-49188305D01*
X81548427Y-49141565D01*
X81566259Y-49088780D01*
X81568975Y-49081227D01*
X81589630Y-49026767D01*
X81608934Y-48980009D01*
X81628440Y-48936697D01*
X81649634Y-48893653D01*
X81658312Y-48877256D01*
X81679897Y-48839288D01*
X81700852Y-48805557D01*
X81721653Y-48774845D01*
X81745298Y-48742796D01*
X81756524Y-48728638D01*
X81781343Y-48699504D01*
X81805313Y-48673663D01*
X81830104Y-48649099D01*
X81857120Y-48624485D01*
X81875480Y-48608992D01*
X81904514Y-48586297D01*
X81935167Y-48564313D01*
X81967591Y-48542975D01*
X82004055Y-48520952D01*
X82024006Y-48509745D01*
X82064418Y-48488630D01*
X82105839Y-48468792D01*
X82149966Y-48449402D01*
X82199976Y-48429219D01*
X82225435Y-48419621D01*
X82277107Y-48401461D01*
X82323050Y-48386996D01*
X82366430Y-48375210D01*
X82411781Y-48365195D01*
X82461780Y-48357717D01*
X82520694Y-48351616D01*
X82595154Y-48346162D01*
X82643124Y-48343309D01*
X158291707Y-48343309D01*
X158351350Y-48347069D01*
G37*
X158351350Y-48347069D02*
X158422929Y-48352762D01*
X158481447Y-48359313D01*
X158512708Y-48364134D01*
X158554775Y-48372748D01*
X158599730Y-48384306D01*
X158645601Y-48398154D01*
X158699304Y-48416370D01*
X158704188Y-48418128D01*
X158758806Y-48438849D01*
X158805531Y-48458144D01*
X158849374Y-48477901D01*
X158891961Y-48498880D01*
X158908381Y-48507567D01*
X158946390Y-48529175D01*
X158980038Y-48550075D01*
X159011065Y-48571098D01*
X159043506Y-48595063D01*
X159056729Y-48605558D01*
X159085893Y-48630415D01*
X159111399Y-48654072D01*
X159136038Y-48678909D01*
X159160732Y-48705959D01*
X159177238Y-48725471D01*
X159200064Y-48754613D01*
X159221280Y-48784102D01*
X159242617Y-48816462D01*
X159264315Y-48852466D01*
X159274350Y-48870444D01*
X159294552Y-48909554D01*
X159314168Y-48951217D01*
X159333448Y-48996068D01*
X159353474Y-49046889D01*
X159363834Y-49075019D01*
X159382192Y-49128445D01*
X159397168Y-49176905D01*
X159409222Y-49221913D01*
X159420120Y-49271830D01*
X159427847Y-49323889D01*
X159434336Y-49385957D01*
X159440471Y-49466535D01*
X159442320Y-49494879D01*
X159442321Y-92556594D01*
X159438564Y-92618514D01*
X159432996Y-92690398D01*
X159426587Y-92748437D01*
X159421599Y-92780864D01*
X159412685Y-92823951D01*
X159402022Y-92865051D01*
X159388280Y-92910277D01*
X159370019Y-92963677D01*
X159368422Y-92968075D01*
X159347794Y-93021910D01*
X159328503Y-93068179D01*
X159308882Y-93111374D01*
X159287545Y-93154441D01*
X159278573Y-93171333D01*
X159256939Y-93209315D01*
X159235383Y-93244017D01*
X159214810Y-93274407D01*
X159188332Y-93310221D01*
X159180269Y-93320368D01*
X159154704Y-93350357D01*
X159130037Y-93376884D01*
X159105471Y-93401151D01*
X159078367Y-93425779D01*
X159061022Y-93440410D01*
X159031054Y-93463828D01*
X159001132Y-93485294D01*
X158968901Y-93506513D01*
X158932245Y-93528630D01*
X158913487Y-93539145D01*
X158872632Y-93560386D01*
X158830496Y-93580406D01*
X158786088Y-93599723D01*
X158735379Y-93619970D01*
X158710977Y-93629087D01*
X158658633Y-93647338D01*
X158612118Y-93661901D01*
X158568248Y-93673788D01*
X158521948Y-93684051D01*
X158470493Y-93691728D01*
X158412021Y-93697828D01*
X158333987Y-93703636D01*
X158292398Y-93706192D01*
X82644264Y-93706192D01*
X82578532Y-93702109D01*
X82507746Y-93696454D01*
X82450089Y-93689919D01*
X82421601Y-93685493D01*
X82380137Y-93676987D01*
X82337978Y-93666168D01*
X82292051Y-93652332D01*
X82239552Y-93634525D01*
X82231852Y-93631746D01*
X82178502Y-93611404D01*
X82131491Y-93591897D01*
X82087832Y-93572133D01*
X82044488Y-93550698D01*
X82028727Y-93542336D01*
X81989348Y-93519905D01*
X81956397Y-93499418D01*
X81925441Y-93478459D01*
X81893413Y-93454841D01*
X81879406Y-93443738D01*
X81850414Y-93419033D01*
X81824963Y-93395428D01*
X81800369Y-93370635D01*
X81775685Y-93343591D01*
X81759174Y-93324070D01*
X81736335Y-93294908D01*
X81715019Y-93265278D01*
X81694253Y-93233808D01*
X81672217Y-93197290D01*
X81662021Y-93179036D01*
X81641014Y-93138346D01*
X81621940Y-93097800D01*
X81602851Y-93053425D01*
X81582574Y-93002011D01*
X81572443Y-92974514D01*
X81554088Y-92921168D01*
X81539213Y-92873077D01*
X81526718Y-92826366D01*
X81516292Y-92778531D01*
X81508480Y-92725904D01*
X81502235Y-92666358D01*
X81495903Y-92583240D01*
X81494060Y-92554808D01*
X81494060Y-85734215D01*
X83561865Y-85734215D01*
X83656560Y-85970613D01*
X83940366Y-86074924D01*
X84239069Y-86121861D01*
X84541191Y-86109623D01*
X84835119Y-86038678D01*
X84999440Y-85970613D01*
X85094135Y-85734215D01*
X84328000Y-84968080D01*
X83561865Y-85734215D01*
X81494060Y-85734215D01*
X81494060Y-84611805D01*
X81578000Y-84620072D01*
X82046250Y-84617000D01*
X82205000Y-84458250D01*
X82205000Y-83355000D01*
X82185000Y-83355000D01*
X82185000Y-82809000D01*
X82205000Y-82809000D01*
X82205000Y-82789000D01*
X82751000Y-82789000D01*
X82751000Y-82809000D01*
X82771000Y-82809000D01*
X82771000Y-83355000D01*
X82751000Y-83355000D01*
X82751000Y-84458250D01*
X82788237Y-84495487D01*
X82800377Y-84795191D01*
X82871322Y-85089119D01*
X82939387Y-85253440D01*
X83175785Y-85348135D01*
X83941920Y-84582000D01*
X84714080Y-84582000D01*
X85480215Y-85348135D01*
X85716613Y-85253440D01*
X85820924Y-84969634D01*
X85867861Y-84670931D01*
X85855623Y-84368809D01*
X85784678Y-84074881D01*
X85716613Y-83910560D01*
X85480215Y-83815865D01*
X84714080Y-84582000D01*
X83941920Y-84582000D01*
X83927778Y-84567858D01*
X84313858Y-84181778D01*
X84328000Y-84195920D01*
X85094135Y-83429785D01*
X84999440Y-83193387D01*
X84973581Y-83183883D01*
X85146041Y-83112447D01*
X85428898Y-82923448D01*
X85669448Y-82682898D01*
X85858447Y-82400041D01*
X85988632Y-82085747D01*
X86055000Y-81752095D01*
X86055000Y-81411905D01*
X85988632Y-81078253D01*
X85858447Y-80763959D01*
X85669448Y-80481102D01*
X85428898Y-80240552D01*
X85146041Y-80051553D01*
X85007096Y-79994000D01*
X86147182Y-79994000D01*
X86715195Y-80562014D01*
X86750485Y-80605015D01*
X86793486Y-80640305D01*
X86793489Y-80640308D01*
X86902864Y-80730069D01*
X86922093Y-80745850D01*
X87117879Y-80850500D01*
X87330319Y-80914943D01*
X87495885Y-80931250D01*
X87495893Y-80931250D01*
X87551250Y-80936702D01*
X87606607Y-80931250D01*
X88444645Y-80931250D01*
X88526617Y-81031133D01*
X88646000Y-81129108D01*
X88646000Y-81454392D01*
X88526617Y-81552367D01*
X88392181Y-81716178D01*
X88292285Y-81903069D01*
X88230770Y-82105857D01*
X88209999Y-82316750D01*
X88209999Y-83241750D01*
X88230770Y-83452643D01*
X88292285Y-83655431D01*
X88392181Y-83842322D01*
X88526617Y-84006133D01*
X88690428Y-84140569D01*
X88739001Y-84166532D01*
X88739001Y-85032178D01*
X88733306Y-85090000D01*
X88756031Y-85320731D01*
X88823334Y-85542597D01*
X88932626Y-85747069D01*
X88941290Y-85757626D01*
X89079710Y-85926291D01*
X89124618Y-85963146D01*
X89677853Y-86516382D01*
X89714709Y-86561291D01*
X89893930Y-86708374D01*
X90098403Y-86817667D01*
X90320268Y-86884969D01*
X90551000Y-86907694D01*
X90608812Y-86902000D01*
X97048472Y-86902000D01*
X98821853Y-88675382D01*
X98858709Y-88720291D01*
X99037930Y-88867374D01*
X99242403Y-88976667D01*
X99464268Y-89043969D01*
X99694999Y-89066694D01*
X99752811Y-89061000D01*
X117925188Y-89061000D01*
X117983000Y-89066694D01*
X118040812Y-89061000D01*
X118213732Y-89043969D01*
X118435597Y-88976667D01*
X118640070Y-88867374D01*
X118819291Y-88720291D01*
X118856151Y-88675378D01*
X120425389Y-87106141D01*
X120470291Y-87069291D01*
X120550357Y-86971731D01*
X120617374Y-86890070D01*
X120695077Y-86744698D01*
X120726667Y-86685597D01*
X120793969Y-86463732D01*
X120811000Y-86290812D01*
X120811000Y-86290811D01*
X120816694Y-86233000D01*
X120811000Y-86175188D01*
X120811000Y-77576529D01*
X121105779Y-77281750D01*
X121968696Y-77281750D01*
X122009320Y-77285751D01*
X124376720Y-77285751D01*
X123787942Y-77874530D01*
X123743029Y-77911389D01*
X123595946Y-78090611D01*
X123486653Y-78295084D01*
X123423592Y-78502969D01*
X123419351Y-78516949D01*
X123396626Y-78747680D01*
X123402320Y-78805492D01*
X123402321Y-85419363D01*
X123276709Y-85544975D01*
X123093182Y-85819643D01*
X122966766Y-86124837D01*
X122902320Y-86448830D01*
X122902320Y-86779170D01*
X122966766Y-87103163D01*
X123093182Y-87408357D01*
X123276709Y-87683025D01*
X123510295Y-87916611D01*
X123784963Y-88100138D01*
X124090157Y-88226554D01*
X124414150Y-88291000D01*
X124744490Y-88291000D01*
X125068483Y-88226554D01*
X125373677Y-88100138D01*
X125648345Y-87916611D01*
X125849320Y-87715636D01*
X126050295Y-87916611D01*
X126324963Y-88100138D01*
X126630157Y-88226554D01*
X126954150Y-88291000D01*
X127284490Y-88291000D01*
X127608483Y-88226554D01*
X127913677Y-88100138D01*
X128188345Y-87916611D01*
X128389320Y-87715636D01*
X128590295Y-87916611D01*
X128864963Y-88100138D01*
X129170157Y-88226554D01*
X129494150Y-88291000D01*
X129824490Y-88291000D01*
X130148483Y-88226554D01*
X130453677Y-88100138D01*
X130728345Y-87916611D01*
X130929320Y-87715636D01*
X131130295Y-87916611D01*
X131404963Y-88100138D01*
X131710157Y-88226554D01*
X132034150Y-88291000D01*
X132364490Y-88291000D01*
X132688483Y-88226554D01*
X132993677Y-88100138D01*
X133268345Y-87916611D01*
X133501931Y-87683025D01*
X133626273Y-87496934D01*
X133774087Y-87644748D01*
X133991430Y-87789972D01*
X134232928Y-87890004D01*
X134489302Y-87941000D01*
X134750698Y-87941000D01*
X135007072Y-87890004D01*
X135246088Y-87791000D01*
X135457039Y-87791000D01*
X135483001Y-87839572D01*
X135617437Y-88003383D01*
X135781248Y-88137819D01*
X135968139Y-88237715D01*
X136170927Y-88299230D01*
X136381820Y-88320001D01*
X137306820Y-88320001D01*
X137517713Y-88299230D01*
X137720501Y-88237715D01*
X137907392Y-88137819D01*
X138071203Y-88003383D01*
X138205639Y-87839572D01*
X138305535Y-87652681D01*
X138331820Y-87566031D01*
X138358105Y-87652681D01*
X138458001Y-87839572D01*
X138592437Y-88003383D01*
X138756248Y-88137819D01*
X138943139Y-88237715D01*
X139145927Y-88299230D01*
X139356820Y-88320001D01*
X140281820Y-88320001D01*
X140492713Y-88299230D01*
X140695501Y-88237715D01*
X140882392Y-88137819D01*
X141046203Y-88003383D01*
X141180639Y-87839572D01*
X141280535Y-87652681D01*
X141342050Y-87449893D01*
X141362821Y-87239000D01*
X141362821Y-85989000D01*
X141342050Y-85778107D01*
X141280535Y-85575319D01*
X141182415Y-85391750D01*
X142444819Y-85391750D01*
X142470781Y-85440322D01*
X142605217Y-85604133D01*
X142769028Y-85738569D01*
X142955919Y-85838465D01*
X143158707Y-85899980D01*
X143369600Y-85920751D01*
X144294600Y-85920751D01*
X144505493Y-85899980D01*
X144708281Y-85838465D01*
X144895172Y-85738569D01*
X145058983Y-85604133D01*
X145193419Y-85440322D01*
X145293315Y-85253431D01*
X145319600Y-85166781D01*
X145345885Y-85253431D01*
X145445781Y-85440322D01*
X145580217Y-85604133D01*
X145744028Y-85738569D01*
X145930919Y-85838465D01*
X146133707Y-85899980D01*
X146344600Y-85920751D01*
X147269600Y-85920751D01*
X147480493Y-85899980D01*
X147683281Y-85838465D01*
X147870172Y-85738569D01*
X148033983Y-85604133D01*
X148168419Y-85440322D01*
X148194381Y-85391750D01*
X150021222Y-85391750D01*
X150207000Y-85577529D01*
X150207000Y-86429188D01*
X150201306Y-86487000D01*
X150207000Y-86544811D01*
X150224031Y-86717731D01*
X150291333Y-86939596D01*
X150400626Y-87144069D01*
X150547709Y-87323291D01*
X150592622Y-87360151D01*
X151348603Y-88116132D01*
X151385459Y-88161041D01*
X151564680Y-88308124D01*
X151769153Y-88417417D01*
X151991018Y-88484719D01*
X152163938Y-88501750D01*
X152163947Y-88501750D01*
X152221749Y-88507443D01*
X152279551Y-88501750D01*
X153828974Y-88501750D01*
X153993422Y-88666198D01*
X154276279Y-88855197D01*
X154590573Y-88985382D01*
X154924225Y-89051750D01*
X155264415Y-89051750D01*
X155598067Y-88985382D01*
X155912361Y-88855197D01*
X156195218Y-88666198D01*
X156435768Y-88425648D01*
X156624767Y-88142791D01*
X156754952Y-87828497D01*
X156821320Y-87494845D01*
X156821320Y-87154655D01*
X156754952Y-86821003D01*
X156624767Y-86506709D01*
X156435768Y-86223852D01*
X156396488Y-86184572D01*
X156450124Y-86140554D01*
X156609433Y-85946436D01*
X156727811Y-85724968D01*
X156800707Y-85484661D01*
X156825321Y-85234750D01*
X156825321Y-84334750D01*
X156800707Y-84084839D01*
X156727811Y-83844532D01*
X156609433Y-83623064D01*
X156450124Y-83428946D01*
X156256006Y-83269637D01*
X156034538Y-83151259D01*
X155794231Y-83078363D01*
X155544320Y-83053749D01*
X154644320Y-83053749D01*
X154394409Y-83078363D01*
X154154102Y-83151259D01*
X153932634Y-83269637D01*
X153738516Y-83428946D01*
X153579207Y-83623064D01*
X153460829Y-83844532D01*
X153387933Y-84084839D01*
X153363319Y-84334750D01*
X153363319Y-85234750D01*
X153387933Y-85484661D01*
X153460829Y-85724968D01*
X153579207Y-85946436D01*
X153738516Y-86140554D01*
X153747284Y-86147750D01*
X152709279Y-86147750D01*
X152561000Y-85999472D01*
X152561000Y-85147801D01*
X152566693Y-85089999D01*
X152561000Y-85032197D01*
X152561000Y-85032188D01*
X152543969Y-84859268D01*
X152476667Y-84637403D01*
X152367374Y-84432930D01*
X152220291Y-84253709D01*
X152175382Y-84216853D01*
X151381901Y-83423373D01*
X151345041Y-83378459D01*
X151165820Y-83231376D01*
X150961347Y-83122083D01*
X150739482Y-83054781D01*
X150566562Y-83037750D01*
X150508750Y-83032056D01*
X150450938Y-83037750D01*
X148194381Y-83037750D01*
X148168419Y-82989178D01*
X148033983Y-82825367D01*
X147870172Y-82690931D01*
X147683281Y-82591035D01*
X147480493Y-82529520D01*
X147269600Y-82508749D01*
X146344600Y-82508749D01*
X146133707Y-82529520D01*
X145930919Y-82591035D01*
X145744028Y-82690931D01*
X145580217Y-82825367D01*
X145445781Y-82989178D01*
X145345885Y-83176069D01*
X145319600Y-83262719D01*
X145293315Y-83176069D01*
X145193419Y-82989178D01*
X145058983Y-82825367D01*
X145009100Y-82784429D01*
X145009100Y-79627912D01*
X145014794Y-79570100D01*
X144992069Y-79339368D01*
X144986072Y-79319598D01*
X144924767Y-79117503D01*
X144815474Y-78913030D01*
X144668391Y-78733809D01*
X144623483Y-78696954D01*
X143621151Y-77694623D01*
X143584291Y-77649709D01*
X143405070Y-77502626D01*
X143200597Y-77393333D01*
X142978732Y-77326031D01*
X142805812Y-77309000D01*
X142748000Y-77303306D01*
X142690188Y-77309000D01*
X138917529Y-77309000D01*
X138456320Y-76847792D01*
X138456320Y-64245408D01*
X138555324Y-64006392D01*
X138606320Y-63750018D01*
X138606320Y-63488622D01*
X138555324Y-63232248D01*
X138456320Y-62993232D01*
X138456320Y-62115374D01*
X138460321Y-62074750D01*
X138460321Y-61047750D01*
X138772320Y-61047750D01*
X138772320Y-62551000D01*
X138931070Y-62709750D01*
X139029937Y-62699310D01*
X139149273Y-62661827D01*
X139184320Y-62642649D01*
X139219367Y-62661827D01*
X139338703Y-62699310D01*
X139437570Y-62709750D01*
X139596320Y-62551000D01*
X139596320Y-61047750D01*
X140042320Y-61047750D01*
X140042320Y-62551000D01*
X140201070Y-62709750D01*
X140299937Y-62699310D01*
X140419273Y-62661827D01*
X140529003Y-62601783D01*
X140624911Y-62521485D01*
X140703311Y-62424020D01*
X140761190Y-62313132D01*
X140796323Y-62193084D01*
X140807361Y-62068488D01*
X140804320Y-61206500D01*
X140645570Y-61047750D01*
X140042320Y-61047750D01*
X139596320Y-61047750D01*
X138772320Y-61047750D01*
X138460321Y-61047750D01*
X138460321Y-60481750D01*
X138772320Y-60481750D01*
X138772320Y-60501750D01*
X139596320Y-60501750D01*
X139596320Y-60481750D01*
X140042320Y-60481750D01*
X140042320Y-60501750D01*
X140645570Y-60501750D01*
X140804320Y-60343000D01*
X140806842Y-59628000D01*
X144126000Y-59628000D01*
X144255369Y-59617819D01*
X144378976Y-59598242D01*
X144474090Y-59577373D01*
X144625059Y-59518284D01*
X144736566Y-59461468D01*
X144820571Y-59412232D01*
X144868751Y-59372691D01*
X144895172Y-59358569D01*
X145058983Y-59224133D01*
X145193419Y-59060322D01*
X145293315Y-58873431D01*
X145319600Y-58786781D01*
X145345885Y-58873431D01*
X145445781Y-59060322D01*
X145580217Y-59224133D01*
X145744028Y-59358569D01*
X145930919Y-59458465D01*
X146133707Y-59519980D01*
X146344600Y-59540751D01*
X147269600Y-59540751D01*
X147480493Y-59519980D01*
X147683281Y-59458465D01*
X147870172Y-59358569D01*
X148033983Y-59224133D01*
X148168419Y-59060322D01*
X148194381Y-59011750D01*
X150514438Y-59011750D01*
X150572250Y-59017444D01*
X150630062Y-59011750D01*
X150802982Y-58994719D01*
X151024847Y-58927417D01*
X151229320Y-58818124D01*
X151408541Y-58671041D01*
X151445400Y-58626128D01*
X152175388Y-57896142D01*
X152220291Y-57859291D01*
X152273054Y-57795000D01*
X152367374Y-57680070D01*
X152408024Y-57604019D01*
X152476667Y-57475597D01*
X152543969Y-57253732D01*
X152561000Y-57080812D01*
X152561000Y-57080811D01*
X152566694Y-57023000D01*
X152561000Y-56965188D01*
X152561000Y-56113528D01*
X152772779Y-55901750D01*
X153747284Y-55901750D01*
X153738516Y-55908946D01*
X153579207Y-56103064D01*
X153460829Y-56324532D01*
X153387933Y-56564839D01*
X153363319Y-56814750D01*
X153363319Y-57714750D01*
X153387933Y-57964661D01*
X153460829Y-58204968D01*
X153579207Y-58426436D01*
X153738516Y-58620554D01*
X153932634Y-58779863D01*
X154154102Y-58898241D01*
X154394409Y-58971137D01*
X154644320Y-58995751D01*
X155544320Y-58995751D01*
X155794231Y-58971137D01*
X156034538Y-58898241D01*
X156256006Y-58779863D01*
X156450124Y-58620554D01*
X156609433Y-58426436D01*
X156727811Y-58204968D01*
X156800707Y-57964661D01*
X156825321Y-57714750D01*
X156825321Y-56814750D01*
X156800707Y-56564839D01*
X156727811Y-56324532D01*
X156609433Y-56103064D01*
X156450124Y-55908946D01*
X156396488Y-55864928D01*
X156435768Y-55825648D01*
X156624767Y-55542791D01*
X156754952Y-55228497D01*
X156821320Y-54894845D01*
X156821320Y-54554655D01*
X156754952Y-54221003D01*
X156624767Y-53906709D01*
X156435768Y-53623852D01*
X156195218Y-53383302D01*
X155912361Y-53194303D01*
X155598067Y-53064118D01*
X155264415Y-52997750D01*
X154924225Y-52997750D01*
X154590573Y-53064118D01*
X154276279Y-53194303D01*
X153993422Y-53383302D01*
X153828974Y-53547750D01*
X152343062Y-53547750D01*
X152285250Y-53542056D01*
X152227438Y-53547750D01*
X152054518Y-53564781D01*
X151832653Y-53632083D01*
X151628180Y-53741376D01*
X151448959Y-53888459D01*
X151412103Y-53933368D01*
X150592618Y-54752854D01*
X150547710Y-54789709D01*
X150469176Y-54885403D01*
X150400626Y-54968931D01*
X150365911Y-55033878D01*
X150291333Y-55173403D01*
X150224394Y-55394071D01*
X150224031Y-55395269D01*
X150201306Y-55626000D01*
X150207000Y-55683812D01*
X150207000Y-56535471D01*
X150084721Y-56657750D01*
X148194381Y-56657750D01*
X148168419Y-56609178D01*
X148033983Y-56445367D01*
X147870172Y-56310931D01*
X147683281Y-56211035D01*
X147480493Y-56149520D01*
X147269600Y-56128749D01*
X146344600Y-56128749D01*
X146133707Y-56149520D01*
X145930919Y-56211035D01*
X145744028Y-56310931D01*
X145580217Y-56445367D01*
X145445781Y-56609178D01*
X145345885Y-56796069D01*
X145319600Y-56882719D01*
X145293315Y-56796069D01*
X145193419Y-56609178D01*
X145058983Y-56445367D01*
X144895172Y-56310931D01*
X144708281Y-56211035D01*
X144659368Y-56196197D01*
X144625059Y-56178716D01*
X144535843Y-56139692D01*
X144378976Y-56098758D01*
X144255369Y-56079181D01*
X144126000Y-56069000D01*
X140296554Y-56069000D01*
X135829934Y-51602380D01*
X135704614Y-51499532D01*
X135574845Y-51412823D01*
X135431867Y-51336399D01*
X135276727Y-51289338D01*
X135123654Y-51258890D01*
X134962315Y-51243000D01*
X103924685Y-51243000D01*
X103763346Y-51258890D01*
X103610273Y-51289338D01*
X103455132Y-51336400D01*
X103312155Y-51412823D01*
X103182386Y-51499532D01*
X103057066Y-51602380D01*
X100497380Y-54162066D01*
X100394532Y-54287386D01*
X100307823Y-54417155D01*
X100231399Y-54560133D01*
X100184338Y-54715273D01*
X100153890Y-54868346D01*
X100138000Y-55029685D01*
X100138000Y-57954750D01*
X98989279Y-57954750D01*
X98663151Y-57628622D01*
X98626291Y-57583709D01*
X98447070Y-57436626D01*
X98242597Y-57327333D01*
X98020732Y-57260031D01*
X97847812Y-57243000D01*
X97790000Y-57237306D01*
X97732188Y-57243000D01*
X96383281Y-57243000D01*
X96357319Y-57194428D01*
X96222883Y-57030617D01*
X96059072Y-56896181D01*
X95872181Y-56796285D01*
X95669393Y-56734770D01*
X95458500Y-56713999D01*
X94533500Y-56713999D01*
X94322607Y-56734770D01*
X94119819Y-56796285D01*
X93932928Y-56896181D01*
X93769117Y-57030617D01*
X93634681Y-57194428D01*
X93534785Y-57381319D01*
X93508500Y-57467969D01*
X93482215Y-57381319D01*
X93382319Y-57194428D01*
X93247883Y-57030617D01*
X93084072Y-56896181D01*
X92897181Y-56796285D01*
X92694393Y-56734770D01*
X92483500Y-56713999D01*
X91558500Y-56713999D01*
X91347607Y-56734770D01*
X91144819Y-56796285D01*
X90957928Y-56896181D01*
X90794117Y-57030617D01*
X90659681Y-57194428D01*
X90633719Y-57243000D01*
X89768528Y-57243000D01*
X89519150Y-56993622D01*
X89482291Y-56948709D01*
X89303070Y-56801626D01*
X89098597Y-56692333D01*
X88876732Y-56625031D01*
X88703812Y-56608000D01*
X88646000Y-56602306D01*
X88588188Y-56608000D01*
X87117346Y-56608000D01*
X86952898Y-56443552D01*
X86670041Y-56254553D01*
X86355747Y-56124368D01*
X86022095Y-56058000D01*
X85681905Y-56058000D01*
X85348253Y-56124368D01*
X85033959Y-56254553D01*
X84751102Y-56443552D01*
X84510552Y-56684102D01*
X84321553Y-56966959D01*
X84191368Y-57281253D01*
X84125000Y-57614905D01*
X84125000Y-57955095D01*
X84191368Y-58288747D01*
X84321553Y-58603041D01*
X84510552Y-58885898D01*
X84549832Y-58925178D01*
X84496196Y-58969196D01*
X84336887Y-59163314D01*
X84218509Y-59384782D01*
X84145613Y-59625089D01*
X84120999Y-59875000D01*
X84120999Y-60775000D01*
X84145613Y-61024911D01*
X84218509Y-61265218D01*
X84336887Y-61486686D01*
X84496196Y-61680804D01*
X84690314Y-61840113D01*
X84911782Y-61958491D01*
X85008386Y-61987795D01*
X84433841Y-62562341D01*
X84390835Y-62597635D01*
X84250000Y-62769243D01*
X84145350Y-62965030D01*
X84080907Y-63177470D01*
X84064600Y-63343036D01*
X84064600Y-63343046D01*
X84059148Y-63398400D01*
X84064600Y-63453755D01*
X84064600Y-65624093D01*
X83924000Y-65757645D01*
X83924000Y-66426750D01*
X83944000Y-66426750D01*
X83944000Y-66972750D01*
X83924000Y-66972750D01*
X83924000Y-67641855D01*
X84064601Y-67775408D01*
X84064601Y-70099436D01*
X84059148Y-70154800D01*
X84064601Y-70210164D01*
X84064601Y-70210165D01*
X84075690Y-70322750D01*
X83545607Y-70322750D01*
X83490250Y-70317298D01*
X83434893Y-70322750D01*
X83434885Y-70322750D01*
X83269319Y-70339057D01*
X83056879Y-70403500D01*
X82861093Y-70508150D01*
X82732489Y-70613692D01*
X82732486Y-70613695D01*
X82689485Y-70648985D01*
X82654195Y-70691986D01*
X81591182Y-71755000D01*
X81494060Y-71755000D01*
X81494060Y-67133660D01*
X82256542Y-67133660D01*
X82304435Y-67275968D01*
X82435038Y-67449562D01*
X82596998Y-67594341D01*
X82784090Y-67704741D01*
X82989126Y-67776520D01*
X83204225Y-67806919D01*
X83378000Y-67641855D01*
X83378000Y-66972750D01*
X82365895Y-66972750D01*
X82256542Y-67133660D01*
X81494060Y-67133660D01*
X81494060Y-66265840D01*
X82256542Y-66265840D01*
X82365895Y-66426750D01*
X83378000Y-66426750D01*
X83378000Y-65757645D01*
X83204225Y-65592581D01*
X82989126Y-65622980D01*
X82784090Y-65694759D01*
X82596998Y-65805159D01*
X82435038Y-65949938D01*
X82304435Y-66123532D01*
X82256542Y-66265840D01*
X81494060Y-66265840D01*
X81494060Y-49493976D01*
X81497901Y-49433179D01*
X81503702Y-49360753D01*
X81510272Y-49302666D01*
X81514822Y-49273300D01*
X81523586Y-49230494D01*
X81534391Y-49188305D01*
X81548427Y-49141565D01*
X81566259Y-49088780D01*
X81568975Y-49081227D01*
X81589630Y-49026767D01*
X81608934Y-48980009D01*
X81628440Y-48936697D01*
X81649634Y-48893653D01*
X81658312Y-48877256D01*
X81679897Y-48839288D01*
X81700852Y-48805557D01*
X81721653Y-48774845D01*
X81745298Y-48742796D01*
X81756524Y-48728638D01*
X81781343Y-48699504D01*
X81805313Y-48673663D01*
X81830104Y-48649099D01*
X81857120Y-48624485D01*
X81875480Y-48608992D01*
X81904514Y-48586297D01*
X81935167Y-48564313D01*
X81967591Y-48542975D01*
X82004055Y-48520952D01*
X82024006Y-48509745D01*
X82064418Y-48488630D01*
X82105839Y-48468792D01*
X82149966Y-48449402D01*
X82199976Y-48429219D01*
X82225435Y-48419621D01*
X82277107Y-48401461D01*
X82323050Y-48386996D01*
X82366430Y-48375210D01*
X82411781Y-48365195D01*
X82461780Y-48357717D01*
X82520694Y-48351616D01*
X82595154Y-48346162D01*
X82643124Y-48343309D01*
X158291707Y-48343309D01*
X158351350Y-48347069D01*
G36*
X135065835Y-52220080D02*
G01*
X135164197Y-52285803D01*
X139747040Y-56868646D01*
X139766286Y-56884440D01*
X139896055Y-56971149D01*
X139918011Y-56982885D01*
X139941836Y-56990112D01*
X140094909Y-57020560D01*
X140119685Y-57023000D01*
X142481966Y-57023000D01*
X142484600Y-57403000D01*
X142643350Y-57561750D01*
X143559100Y-57561750D01*
X143559100Y-57541750D01*
X144105100Y-57541750D01*
X144105100Y-57561750D01*
X144125100Y-57561750D01*
X144125100Y-58107750D01*
X144105100Y-58107750D01*
X144105100Y-58127750D01*
X143559100Y-58127750D01*
X143559100Y-58107750D01*
X142643350Y-58107750D01*
X142484600Y-58266500D01*
X142481776Y-58674000D01*
X138029900Y-58674000D01*
X138010033Y-58675564D01*
X137886426Y-58695141D01*
X137862337Y-58701427D01*
X137848636Y-58707419D01*
X137737129Y-58764235D01*
X137716161Y-58777658D01*
X137704983Y-58787590D01*
X137616490Y-58876083D01*
X137600696Y-58895329D01*
X137593905Y-58906915D01*
X137502320Y-58998500D01*
X137502320Y-60501750D01*
X137502900Y-60501750D01*
X137502900Y-60549956D01*
X137490517Y-60628139D01*
X137459174Y-60689653D01*
X137410353Y-60738474D01*
X137348839Y-60769817D01*
X137287000Y-60779611D01*
X137287000Y-60071000D01*
X137284560Y-60046224D01*
X137277333Y-60022399D01*
X137265597Y-60000443D01*
X137249803Y-59981197D01*
X137230557Y-59965403D01*
X137208601Y-59953667D01*
X137184776Y-59946440D01*
X137160000Y-59944000D01*
X137058400Y-59944000D01*
X137058400Y-59201000D01*
X137056836Y-59181133D01*
X137056320Y-59177875D01*
X137056320Y-58998500D01*
X136970363Y-58912543D01*
X136968165Y-58908229D01*
X136954742Y-58887261D01*
X136944810Y-58876083D01*
X136856317Y-58787590D01*
X136837071Y-58771796D01*
X136824171Y-58764235D01*
X136712664Y-58707419D01*
X136689480Y-58698345D01*
X136674874Y-58695141D01*
X136551267Y-58675564D01*
X136531400Y-58674000D01*
X130536320Y-58674000D01*
X130536320Y-58328707D01*
X130569435Y-58279147D01*
X130646853Y-58092245D01*
X130686320Y-57893831D01*
X130686320Y-57691529D01*
X130646853Y-57493115D01*
X130569435Y-57306213D01*
X130457043Y-57138006D01*
X130313994Y-56994957D01*
X130145787Y-56882565D01*
X129958885Y-56805147D01*
X129760471Y-56765680D01*
X129558169Y-56765680D01*
X129359755Y-56805147D01*
X129274000Y-56840668D01*
X129274000Y-56797027D01*
X129307115Y-56747467D01*
X129384533Y-56560565D01*
X129424000Y-56362151D01*
X129424000Y-56159849D01*
X129384533Y-55961435D01*
X129307115Y-55774533D01*
X129194723Y-55606326D01*
X129051674Y-55463277D01*
X128883467Y-55350885D01*
X128696565Y-55273467D01*
X128498151Y-55234000D01*
X128295849Y-55234000D01*
X128097435Y-55273467D01*
X127910533Y-55350885D01*
X127742326Y-55463277D01*
X127599277Y-55606326D01*
X127486885Y-55774533D01*
X127409467Y-55961435D01*
X127370000Y-56159849D01*
X127370000Y-56362151D01*
X127409467Y-56560565D01*
X127486885Y-56747467D01*
X127520000Y-56797027D01*
X127520001Y-58674000D01*
X126726320Y-58674000D01*
X126726320Y-55915399D01*
X126730563Y-55872320D01*
X126713630Y-55700397D01*
X126663482Y-55535083D01*
X126650538Y-55510867D01*
X126582047Y-55382728D01*
X126472453Y-55249187D01*
X126438994Y-55221728D01*
X125364596Y-54147331D01*
X125337133Y-54113867D01*
X125203592Y-54004273D01*
X125051237Y-53922838D01*
X124885922Y-53872690D01*
X124757079Y-53860000D01*
X124714000Y-53855757D01*
X124670921Y-53860000D01*
X109009069Y-53860000D01*
X108965999Y-53855758D01*
X108922930Y-53860000D01*
X108922921Y-53860000D01*
X108794078Y-53872690D01*
X108628763Y-53922838D01*
X108476408Y-54004273D01*
X108342867Y-54113867D01*
X108315403Y-54147332D01*
X106979332Y-55483403D01*
X106945867Y-55510867D01*
X106836273Y-55644409D01*
X106766721Y-55774533D01*
X106754838Y-55796764D01*
X106704690Y-55962078D01*
X106687757Y-56134000D01*
X106692000Y-56177080D01*
X106692001Y-60071000D01*
X105407744Y-60071000D01*
X105405000Y-59563500D01*
X105246250Y-59404750D01*
X103143000Y-59404750D01*
X103143000Y-59424750D01*
X102597000Y-59424750D01*
X102597000Y-59404750D01*
X102577000Y-59404750D01*
X102577000Y-58858750D01*
X102597000Y-58858750D01*
X102597000Y-57655500D01*
X103143000Y-57655500D01*
X103143000Y-58858750D01*
X105246250Y-58858750D01*
X105405000Y-58700000D01*
X105408072Y-58131750D01*
X105395812Y-58007268D01*
X105359502Y-57887570D01*
X105300537Y-57777256D01*
X105221185Y-57680565D01*
X105124494Y-57601213D01*
X105014180Y-57542248D01*
X104894482Y-57505938D01*
X104770000Y-57493678D01*
X103301750Y-57496750D01*
X103143000Y-57655500D01*
X102597000Y-57655500D01*
X102438250Y-57496750D01*
X101092000Y-57493933D01*
X101092000Y-55042194D01*
X101115080Y-54926165D01*
X101180803Y-54827803D01*
X103722803Y-52285803D01*
X103821165Y-52220080D01*
X103937194Y-52197000D01*
X134949806Y-52197000D01*
X135065835Y-52220080D01*
G37*
X135065835Y-52220080D02*
X135164197Y-52285803D01*
X139747040Y-56868646D01*
X139766286Y-56884440D01*
X139896055Y-56971149D01*
X139918011Y-56982885D01*
X139941836Y-56990112D01*
X140094909Y-57020560D01*
X140119685Y-57023000D01*
X142481966Y-57023000D01*
X142484600Y-57403000D01*
X142643350Y-57561750D01*
X143559100Y-57561750D01*
X143559100Y-57541750D01*
X144105100Y-57541750D01*
X144105100Y-57561750D01*
X144125100Y-57561750D01*
X144125100Y-58107750D01*
X144105100Y-58107750D01*
X144105100Y-58127750D01*
X143559100Y-58127750D01*
X143559100Y-58107750D01*
X142643350Y-58107750D01*
X142484600Y-58266500D01*
X142481776Y-58674000D01*
X138029900Y-58674000D01*
X138010033Y-58675564D01*
X137886426Y-58695141D01*
X137862337Y-58701427D01*
X137848636Y-58707419D01*
X137737129Y-58764235D01*
X137716161Y-58777658D01*
X137704983Y-58787590D01*
X137616490Y-58876083D01*
X137600696Y-58895329D01*
X137593905Y-58906915D01*
X137502320Y-58998500D01*
X137502320Y-60501750D01*
X137502900Y-60501750D01*
X137502900Y-60549956D01*
X137490517Y-60628139D01*
X137459174Y-60689653D01*
X137410353Y-60738474D01*
X137348839Y-60769817D01*
X137287000Y-60779611D01*
X137287000Y-60071000D01*
X137284560Y-60046224D01*
X137277333Y-60022399D01*
X137265597Y-60000443D01*
X137249803Y-59981197D01*
X137230557Y-59965403D01*
X137208601Y-59953667D01*
X137184776Y-59946440D01*
X137160000Y-59944000D01*
X137058400Y-59944000D01*
X137058400Y-59201000D01*
X137056836Y-59181133D01*
X137056320Y-59177875D01*
X137056320Y-58998500D01*
X136970363Y-58912543D01*
X136968165Y-58908229D01*
X136954742Y-58887261D01*
X136944810Y-58876083D01*
X136856317Y-58787590D01*
X136837071Y-58771796D01*
X136824171Y-58764235D01*
X136712664Y-58707419D01*
X136689480Y-58698345D01*
X136674874Y-58695141D01*
X136551267Y-58675564D01*
X136531400Y-58674000D01*
X130536320Y-58674000D01*
X130536320Y-58328707D01*
X130569435Y-58279147D01*
X130646853Y-58092245D01*
X130686320Y-57893831D01*
X130686320Y-57691529D01*
X130646853Y-57493115D01*
X130569435Y-57306213D01*
X130457043Y-57138006D01*
X130313994Y-56994957D01*
X130145787Y-56882565D01*
X129958885Y-56805147D01*
X129760471Y-56765680D01*
X129558169Y-56765680D01*
X129359755Y-56805147D01*
X129274000Y-56840668D01*
X129274000Y-56797027D01*
X129307115Y-56747467D01*
X129384533Y-56560565D01*
X129424000Y-56362151D01*
X129424000Y-56159849D01*
X129384533Y-55961435D01*
X129307115Y-55774533D01*
X129194723Y-55606326D01*
X129051674Y-55463277D01*
X128883467Y-55350885D01*
X128696565Y-55273467D01*
X128498151Y-55234000D01*
X128295849Y-55234000D01*
X128097435Y-55273467D01*
X127910533Y-55350885D01*
X127742326Y-55463277D01*
X127599277Y-55606326D01*
X127486885Y-55774533D01*
X127409467Y-55961435D01*
X127370000Y-56159849D01*
X127370000Y-56362151D01*
X127409467Y-56560565D01*
X127486885Y-56747467D01*
X127520000Y-56797027D01*
X127520001Y-58674000D01*
X126726320Y-58674000D01*
X126726320Y-55915399D01*
X126730563Y-55872320D01*
X126713630Y-55700397D01*
X126663482Y-55535083D01*
X126650538Y-55510867D01*
X126582047Y-55382728D01*
X126472453Y-55249187D01*
X126438994Y-55221728D01*
X125364596Y-54147331D01*
X125337133Y-54113867D01*
X125203592Y-54004273D01*
X125051237Y-53922838D01*
X124885922Y-53872690D01*
X124757079Y-53860000D01*
X124714000Y-53855757D01*
X124670921Y-53860000D01*
X109009069Y-53860000D01*
X108965999Y-53855758D01*
X108922930Y-53860000D01*
X108922921Y-53860000D01*
X108794078Y-53872690D01*
X108628763Y-53922838D01*
X108476408Y-54004273D01*
X108342867Y-54113867D01*
X108315403Y-54147332D01*
X106979332Y-55483403D01*
X106945867Y-55510867D01*
X106836273Y-55644409D01*
X106766721Y-55774533D01*
X106754838Y-55796764D01*
X106704690Y-55962078D01*
X106687757Y-56134000D01*
X106692000Y-56177080D01*
X106692001Y-60071000D01*
X105407744Y-60071000D01*
X105405000Y-59563500D01*
X105246250Y-59404750D01*
X103143000Y-59404750D01*
X103143000Y-59424750D01*
X102597000Y-59424750D01*
X102597000Y-59404750D01*
X102577000Y-59404750D01*
X102577000Y-58858750D01*
X102597000Y-58858750D01*
X102597000Y-57655500D01*
X103143000Y-57655500D01*
X103143000Y-58858750D01*
X105246250Y-58858750D01*
X105405000Y-58700000D01*
X105408072Y-58131750D01*
X105395812Y-58007268D01*
X105359502Y-57887570D01*
X105300537Y-57777256D01*
X105221185Y-57680565D01*
X105124494Y-57601213D01*
X105014180Y-57542248D01*
X104894482Y-57505938D01*
X104770000Y-57493678D01*
X103301750Y-57496750D01*
X103143000Y-57655500D01*
X102597000Y-57655500D01*
X102438250Y-57496750D01*
X101092000Y-57493933D01*
X101092000Y-55042194D01*
X101115080Y-54926165D01*
X101180803Y-54827803D01*
X103722803Y-52285803D01*
X103821165Y-52220080D01*
X103937194Y-52197000D01*
X134949806Y-52197000D01*
X135065835Y-52220080D01*
M02*
