G04 #@! TF.GenerationSoftware,KiCad,Pcbnew,5.1.5+dfsg1-2build2*
G04 #@! TF.CreationDate,2020-06-21T17:38:59+02:00*
G04 #@! TF.ProjectId,zigbeebox,7a696762-6565-4626-9f78-2e6b69636164,rev?*
G04 #@! TF.SameCoordinates,Original*
G04 #@! TF.FileFunction,Legend,Top*
G04 #@! TF.FilePolarity,Positive*
%FSLAX46Y46*%
G04 Gerber Fmt 4.6, Leading zero omitted, Abs format (unit mm)*
G04 Created by KiCad (PCBNEW 5.1.5+dfsg1-2build2) date 2020-06-21 17:38:59*
%MOMM*%
%LPD*%
G04 APERTURE LIST*
%ADD10C,0.150000*%
%ADD11C,0.120000*%
%ADD12C,0.010000*%
%ADD13C,0.100000*%
%ADD14O,1.829200X1.829200*%
%ADD15C,1.829200*%
%ADD16C,0.802000*%
%ADD17O,2.502000X1.002000*%
%ADD18O,1.802000X1.002000*%
%ADD19R,1.602000X2.102000*%
%ADD20R,3.902000X2.102000*%
%ADD21C,1.902000*%
%ADD22O,1.802000X1.802000*%
%ADD23C,1.802000*%
%ADD24R,0.802000X2.702000*%
%ADD25R,2.702000X0.802000*%
%ADD26C,5.802000*%
G04 APERTURE END LIST*
D10*
X158202285Y-60572369D02*
X157392761Y-60572369D01*
X157297523Y-60524750D01*
X157249904Y-60477130D01*
X157202285Y-60381892D01*
X157202285Y-60239035D01*
X157249904Y-60143797D01*
X157583238Y-60572369D02*
X157535619Y-60477130D01*
X157535619Y-60286654D01*
X157583238Y-60191416D01*
X157630857Y-60143797D01*
X157726095Y-60096178D01*
X158011809Y-60096178D01*
X158107047Y-60143797D01*
X158154666Y-60191416D01*
X158202285Y-60286654D01*
X158202285Y-60477130D01*
X158154666Y-60572369D01*
X157535619Y-61048559D02*
X158202285Y-61048559D01*
X158535619Y-61048559D02*
X158488000Y-61000940D01*
X158440380Y-61048559D01*
X158488000Y-61096178D01*
X158535619Y-61048559D01*
X158440380Y-61048559D01*
X158202285Y-61381892D02*
X158202285Y-61762845D01*
X158535619Y-61524750D02*
X157678476Y-61524750D01*
X157583238Y-61572369D01*
X157535619Y-61667607D01*
X157535619Y-61762845D01*
X157535619Y-62096178D02*
X158535619Y-62096178D01*
X157535619Y-62524750D02*
X158059428Y-62524750D01*
X158154666Y-62477130D01*
X158202285Y-62381892D01*
X158202285Y-62239035D01*
X158154666Y-62143797D01*
X158107047Y-62096178D01*
X158202285Y-63429511D02*
X157535619Y-63429511D01*
X158202285Y-63000940D02*
X157678476Y-63000940D01*
X157583238Y-63048559D01*
X157535619Y-63143797D01*
X157535619Y-63286654D01*
X157583238Y-63381892D01*
X157630857Y-63429511D01*
X157535619Y-63905702D02*
X158535619Y-63905702D01*
X158154666Y-63905702D02*
X158202285Y-64000940D01*
X158202285Y-64191416D01*
X158154666Y-64286654D01*
X158107047Y-64334273D01*
X158011809Y-64381892D01*
X157726095Y-64381892D01*
X157630857Y-64334273D01*
X157583238Y-64286654D01*
X157535619Y-64191416D01*
X157535619Y-64000940D01*
X157583238Y-63905702D01*
X157630857Y-64810464D02*
X157583238Y-64858083D01*
X157535619Y-64810464D01*
X157583238Y-64762845D01*
X157630857Y-64810464D01*
X157535619Y-64810464D01*
X157583238Y-65715226D02*
X157535619Y-65619988D01*
X157535619Y-65429511D01*
X157583238Y-65334273D01*
X157630857Y-65286654D01*
X157726095Y-65239035D01*
X158011809Y-65239035D01*
X158107047Y-65286654D01*
X158154666Y-65334273D01*
X158202285Y-65429511D01*
X158202285Y-65619988D01*
X158154666Y-65715226D01*
X157535619Y-66286654D02*
X157583238Y-66191416D01*
X157630857Y-66143797D01*
X157726095Y-66096178D01*
X158011809Y-66096178D01*
X158107047Y-66143797D01*
X158154666Y-66191416D01*
X158202285Y-66286654D01*
X158202285Y-66429511D01*
X158154666Y-66524750D01*
X158107047Y-66572369D01*
X158011809Y-66619988D01*
X157726095Y-66619988D01*
X157630857Y-66572369D01*
X157583238Y-66524750D01*
X157535619Y-66429511D01*
X157535619Y-66286654D01*
X157535619Y-67048559D02*
X158202285Y-67048559D01*
X158107047Y-67048559D02*
X158154666Y-67096178D01*
X158202285Y-67191416D01*
X158202285Y-67334273D01*
X158154666Y-67429511D01*
X158059428Y-67477130D01*
X157535619Y-67477130D01*
X158059428Y-67477130D02*
X158154666Y-67524750D01*
X158202285Y-67619988D01*
X158202285Y-67762845D01*
X158154666Y-67858083D01*
X158059428Y-67905702D01*
X157535619Y-67905702D01*
X158583238Y-69096178D02*
X157297523Y-68239035D01*
X158202285Y-69858083D02*
X157535619Y-69858083D01*
X158202285Y-69429511D02*
X157678476Y-69429511D01*
X157583238Y-69477130D01*
X157535619Y-69572369D01*
X157535619Y-69715226D01*
X157583238Y-69810464D01*
X157630857Y-69858083D01*
X158202285Y-70239035D02*
X158202285Y-70762845D01*
X157535619Y-70239035D01*
X157535619Y-70762845D01*
X157583238Y-71096178D02*
X157535619Y-71191416D01*
X157535619Y-71381892D01*
X157583238Y-71477130D01*
X157678476Y-71524750D01*
X157726095Y-71524750D01*
X157821333Y-71477130D01*
X157868952Y-71381892D01*
X157868952Y-71239035D01*
X157916571Y-71143797D01*
X158011809Y-71096178D01*
X158059428Y-71096178D01*
X158154666Y-71143797D01*
X158202285Y-71239035D01*
X158202285Y-71381892D01*
X158154666Y-71477130D01*
X157535619Y-71953321D02*
X158202285Y-71953321D01*
X158535619Y-71953321D02*
X158488000Y-71905702D01*
X158440380Y-71953321D01*
X158488000Y-72000940D01*
X158535619Y-71953321D01*
X158440380Y-71953321D01*
X158202285Y-72286654D02*
X158202285Y-72667607D01*
X158535619Y-72429511D02*
X157678476Y-72429511D01*
X157583238Y-72477130D01*
X157535619Y-72572369D01*
X157535619Y-72667607D01*
X157535619Y-73143797D02*
X157583238Y-73048559D01*
X157630857Y-73000940D01*
X157726095Y-72953321D01*
X158011809Y-72953321D01*
X158107047Y-73000940D01*
X158154666Y-73048559D01*
X158202285Y-73143797D01*
X158202285Y-73286654D01*
X158154666Y-73381892D01*
X158107047Y-73429511D01*
X158011809Y-73477130D01*
X157726095Y-73477130D01*
X157630857Y-73429511D01*
X157583238Y-73381892D01*
X157535619Y-73286654D01*
X157535619Y-73143797D01*
X158583238Y-74619988D02*
X157297523Y-73762845D01*
X158202285Y-74858083D02*
X158202285Y-75381892D01*
X157535619Y-74858083D01*
X157535619Y-75381892D01*
X157535619Y-75762845D02*
X158202285Y-75762845D01*
X158535619Y-75762845D02*
X158488000Y-75715226D01*
X158440380Y-75762845D01*
X158488000Y-75810464D01*
X158535619Y-75762845D01*
X158440380Y-75762845D01*
X158202285Y-76667607D02*
X157392761Y-76667607D01*
X157297523Y-76619988D01*
X157249904Y-76572369D01*
X157202285Y-76477130D01*
X157202285Y-76334273D01*
X157249904Y-76239035D01*
X157583238Y-76667607D02*
X157535619Y-76572369D01*
X157535619Y-76381892D01*
X157583238Y-76286654D01*
X157630857Y-76239035D01*
X157726095Y-76191416D01*
X158011809Y-76191416D01*
X158107047Y-76239035D01*
X158154666Y-76286654D01*
X158202285Y-76381892D01*
X158202285Y-76572369D01*
X158154666Y-76667607D01*
X157535619Y-77143797D02*
X158535619Y-77143797D01*
X158154666Y-77143797D02*
X158202285Y-77239035D01*
X158202285Y-77429511D01*
X158154666Y-77524750D01*
X158107047Y-77572369D01*
X158011809Y-77619988D01*
X157726095Y-77619988D01*
X157630857Y-77572369D01*
X157583238Y-77524750D01*
X157535619Y-77429511D01*
X157535619Y-77239035D01*
X157583238Y-77143797D01*
X157583238Y-78429511D02*
X157535619Y-78334273D01*
X157535619Y-78143797D01*
X157583238Y-78048559D01*
X157678476Y-78000940D01*
X158059428Y-78000940D01*
X158154666Y-78048559D01*
X158202285Y-78143797D01*
X158202285Y-78334273D01*
X158154666Y-78429511D01*
X158059428Y-78477130D01*
X157964190Y-78477130D01*
X157868952Y-78000940D01*
X157583238Y-79286654D02*
X157535619Y-79191416D01*
X157535619Y-79000940D01*
X157583238Y-78905702D01*
X157678476Y-78858083D01*
X158059428Y-78858083D01*
X158154666Y-78905702D01*
X158202285Y-79000940D01*
X158202285Y-79191416D01*
X158154666Y-79286654D01*
X158059428Y-79334273D01*
X157964190Y-79334273D01*
X157868952Y-78858083D01*
X157535619Y-79762845D02*
X158535619Y-79762845D01*
X158154666Y-79762845D02*
X158202285Y-79858083D01*
X158202285Y-80048559D01*
X158154666Y-80143797D01*
X158107047Y-80191416D01*
X158011809Y-80239035D01*
X157726095Y-80239035D01*
X157630857Y-80191416D01*
X157583238Y-80143797D01*
X157535619Y-80048559D01*
X157535619Y-79858083D01*
X157583238Y-79762845D01*
X157535619Y-80810464D02*
X157583238Y-80715226D01*
X157630857Y-80667607D01*
X157726095Y-80619988D01*
X158011809Y-80619988D01*
X158107047Y-80667607D01*
X158154666Y-80715226D01*
X158202285Y-80810464D01*
X158202285Y-80953321D01*
X158154666Y-81048559D01*
X158107047Y-81096178D01*
X158011809Y-81143797D01*
X157726095Y-81143797D01*
X157630857Y-81096178D01*
X157583238Y-81048559D01*
X157535619Y-80953321D01*
X157535619Y-80810464D01*
X157535619Y-81477130D02*
X158202285Y-82000940D01*
X158202285Y-81477130D02*
X157535619Y-82000940D01*
X131786380Y-89733380D02*
X131453047Y-89257190D01*
X131214952Y-89733380D02*
X131214952Y-88733380D01*
X131595904Y-88733380D01*
X131691142Y-88781000D01*
X131738761Y-88828619D01*
X131786380Y-88923857D01*
X131786380Y-89066714D01*
X131738761Y-89161952D01*
X131691142Y-89209571D01*
X131595904Y-89257190D01*
X131214952Y-89257190D01*
X132072095Y-88733380D02*
X132643523Y-88733380D01*
X132357809Y-89733380D02*
X132357809Y-88733380D01*
X132929238Y-89685761D02*
X133072095Y-89733380D01*
X133310190Y-89733380D01*
X133405428Y-89685761D01*
X133453047Y-89638142D01*
X133500666Y-89542904D01*
X133500666Y-89447666D01*
X133453047Y-89352428D01*
X133405428Y-89304809D01*
X133310190Y-89257190D01*
X133119714Y-89209571D01*
X133024476Y-89161952D01*
X132976857Y-89114333D01*
X132929238Y-89019095D01*
X132929238Y-88923857D01*
X132976857Y-88828619D01*
X133024476Y-88781000D01*
X133119714Y-88733380D01*
X133357809Y-88733380D01*
X133500666Y-88781000D01*
X128897415Y-88733380D02*
X129468843Y-88733380D01*
X129183129Y-89733380D02*
X129183129Y-88733380D01*
X129706939Y-88733380D02*
X130373605Y-89733380D01*
X130373605Y-88733380D02*
X129706939Y-89733380D01*
X126952653Y-89733380D02*
X126619320Y-89257190D01*
X126381224Y-89733380D02*
X126381224Y-88733380D01*
X126762177Y-88733380D01*
X126857415Y-88781000D01*
X126905034Y-88828619D01*
X126952653Y-88923857D01*
X126952653Y-89066714D01*
X126905034Y-89161952D01*
X126857415Y-89209571D01*
X126762177Y-89257190D01*
X126381224Y-89257190D01*
X127285986Y-88733380D02*
X127952653Y-89733380D01*
X127952653Y-88733380D02*
X127285986Y-89733380D01*
X123785380Y-89638142D02*
X123737761Y-89685761D01*
X123594904Y-89733380D01*
X123499666Y-89733380D01*
X123356809Y-89685761D01*
X123261571Y-89590523D01*
X123213952Y-89495285D01*
X123166333Y-89304809D01*
X123166333Y-89161952D01*
X123213952Y-88971476D01*
X123261571Y-88876238D01*
X123356809Y-88781000D01*
X123499666Y-88733380D01*
X123594904Y-88733380D01*
X123737761Y-88781000D01*
X123785380Y-88828619D01*
X124071095Y-88733380D02*
X124642523Y-88733380D01*
X124356809Y-89733380D02*
X124356809Y-88733380D01*
X124928238Y-89685761D02*
X125071095Y-89733380D01*
X125309190Y-89733380D01*
X125404428Y-89685761D01*
X125452047Y-89638142D01*
X125499666Y-89542904D01*
X125499666Y-89447666D01*
X125452047Y-89352428D01*
X125404428Y-89304809D01*
X125309190Y-89257190D01*
X125118714Y-89209571D01*
X125023476Y-89161952D01*
X124975857Y-89114333D01*
X124928238Y-89019095D01*
X124928238Y-88923857D01*
X124975857Y-88828619D01*
X125023476Y-88781000D01*
X125118714Y-88733380D01*
X125356809Y-88733380D01*
X125499666Y-88781000D01*
D11*
X118542000Y-87929750D02*
X116002000Y-87929750D01*
X118542000Y-87929750D02*
X118542000Y-85389750D01*
X118292000Y-87679750D02*
X108942000Y-87679750D01*
X118292000Y-54119750D02*
X118290600Y-68649750D01*
X108942000Y-54119750D02*
X118292000Y-54119750D01*
X108942000Y-87679750D02*
X108942000Y-54119750D01*
X117492000Y-68649750D02*
X118290600Y-68649750D01*
X117492000Y-73149750D02*
X118290600Y-73149750D01*
X118292000Y-87679750D02*
X118290600Y-73149750D01*
X117492000Y-73149750D02*
X117492000Y-68649750D01*
D12*
G36*
X129712689Y-53637858D02*
G01*
X129726872Y-53644989D01*
X129854637Y-53751346D01*
X129927721Y-53896073D01*
X129946124Y-54058277D01*
X129909846Y-54217067D01*
X129818887Y-54351549D01*
X129726872Y-54417900D01*
X129550932Y-54474159D01*
X129389222Y-54451473D01*
X129237005Y-54349086D01*
X129225524Y-54337858D01*
X129135593Y-54232593D01*
X129095825Y-54132506D01*
X129088444Y-54031445D01*
X129100858Y-53907941D01*
X129149688Y-53809986D01*
X129225524Y-53725032D01*
X129377205Y-53616467D01*
X129538014Y-53587662D01*
X129712689Y-53637858D01*
G37*
X129712689Y-53637858D02*
X129726872Y-53644989D01*
X129854637Y-53751346D01*
X129927721Y-53896073D01*
X129946124Y-54058277D01*
X129909846Y-54217067D01*
X129818887Y-54351549D01*
X129726872Y-54417900D01*
X129550932Y-54474159D01*
X129389222Y-54451473D01*
X129237005Y-54349086D01*
X129225524Y-54337858D01*
X129135593Y-54232593D01*
X129095825Y-54132506D01*
X129088444Y-54031445D01*
X129100858Y-53907941D01*
X129149688Y-53809986D01*
X129225524Y-53725032D01*
X129377205Y-53616467D01*
X129538014Y-53587662D01*
X129712689Y-53637858D01*
G36*
X122764841Y-53399594D02*
G01*
X122927184Y-53419827D01*
X123041469Y-53438384D01*
X123406354Y-53522895D01*
X123724199Y-53650470D01*
X124016060Y-53832187D01*
X124302994Y-54079127D01*
X124352871Y-54128465D01*
X124600927Y-54406595D01*
X124785012Y-54683916D01*
X124918206Y-54983402D01*
X124999117Y-55263732D01*
X125045348Y-55572363D01*
X125050010Y-55904941D01*
X125016077Y-56240100D01*
X124946524Y-56556477D01*
X124844323Y-56832705D01*
X124759687Y-56983757D01*
X124711984Y-57047481D01*
X124659154Y-57090174D01*
X124581675Y-57119757D01*
X124460022Y-57144152D01*
X124309499Y-57166417D01*
X124158523Y-57183194D01*
X123960015Y-57198755D01*
X123725594Y-57212816D01*
X123466877Y-57225093D01*
X123195484Y-57235304D01*
X122923031Y-57243164D01*
X122661138Y-57248390D01*
X122421422Y-57250698D01*
X122215503Y-57249807D01*
X122054997Y-57245431D01*
X121951524Y-57237287D01*
X121916702Y-57225093D01*
X121916793Y-57224785D01*
X121947394Y-57187543D01*
X122028520Y-57098954D01*
X122154234Y-56965238D01*
X122318599Y-56792615D01*
X122515677Y-56587306D01*
X122739532Y-56355532D01*
X122984227Y-56103512D01*
X123116174Y-55968124D01*
X123405773Y-55671053D01*
X123643771Y-55425853D01*
X123835076Y-55226868D01*
X123984591Y-55068444D01*
X124097223Y-54944926D01*
X124177878Y-54850660D01*
X124231460Y-54779991D01*
X124262876Y-54727263D01*
X124277031Y-54686822D01*
X124278830Y-54653014D01*
X124275631Y-54631583D01*
X124218544Y-54462283D01*
X124117508Y-54327719D01*
X123965046Y-54223808D01*
X123753677Y-54146466D01*
X123475923Y-54091610D01*
X123236695Y-54064286D01*
X123011218Y-54051677D01*
X122727669Y-54047410D01*
X122407466Y-54050742D01*
X122072026Y-54060925D01*
X121742768Y-54077216D01*
X121441108Y-54098867D01*
X121188464Y-54125134D01*
X121092246Y-54138942D01*
X120997673Y-54146013D01*
X120948364Y-54133488D01*
X120946251Y-54127434D01*
X120980912Y-54073955D01*
X121070599Y-53992826D01*
X121199729Y-53895337D01*
X121352720Y-53792779D01*
X121513987Y-53696441D01*
X121614853Y-53643010D01*
X121901233Y-53526635D01*
X122227199Y-53447170D01*
X122284055Y-53437406D01*
X122477565Y-53408428D01*
X122626398Y-53395809D01*
X122764841Y-53399594D01*
G37*
X122764841Y-53399594D02*
X122927184Y-53419827D01*
X123041469Y-53438384D01*
X123406354Y-53522895D01*
X123724199Y-53650470D01*
X124016060Y-53832187D01*
X124302994Y-54079127D01*
X124352871Y-54128465D01*
X124600927Y-54406595D01*
X124785012Y-54683916D01*
X124918206Y-54983402D01*
X124999117Y-55263732D01*
X125045348Y-55572363D01*
X125050010Y-55904941D01*
X125016077Y-56240100D01*
X124946524Y-56556477D01*
X124844323Y-56832705D01*
X124759687Y-56983757D01*
X124711984Y-57047481D01*
X124659154Y-57090174D01*
X124581675Y-57119757D01*
X124460022Y-57144152D01*
X124309499Y-57166417D01*
X124158523Y-57183194D01*
X123960015Y-57198755D01*
X123725594Y-57212816D01*
X123466877Y-57225093D01*
X123195484Y-57235304D01*
X122923031Y-57243164D01*
X122661138Y-57248390D01*
X122421422Y-57250698D01*
X122215503Y-57249807D01*
X122054997Y-57245431D01*
X121951524Y-57237287D01*
X121916702Y-57225093D01*
X121916793Y-57224785D01*
X121947394Y-57187543D01*
X122028520Y-57098954D01*
X122154234Y-56965238D01*
X122318599Y-56792615D01*
X122515677Y-56587306D01*
X122739532Y-56355532D01*
X122984227Y-56103512D01*
X123116174Y-55968124D01*
X123405773Y-55671053D01*
X123643771Y-55425853D01*
X123835076Y-55226868D01*
X123984591Y-55068444D01*
X124097223Y-54944926D01*
X124177878Y-54850660D01*
X124231460Y-54779991D01*
X124262876Y-54727263D01*
X124277031Y-54686822D01*
X124278830Y-54653014D01*
X124275631Y-54631583D01*
X124218544Y-54462283D01*
X124117508Y-54327719D01*
X123965046Y-54223808D01*
X123753677Y-54146466D01*
X123475923Y-54091610D01*
X123236695Y-54064286D01*
X123011218Y-54051677D01*
X122727669Y-54047410D01*
X122407466Y-54050742D01*
X122072026Y-54060925D01*
X121742768Y-54077216D01*
X121441108Y-54098867D01*
X121188464Y-54125134D01*
X121092246Y-54138942D01*
X120997673Y-54146013D01*
X120948364Y-54133488D01*
X120946251Y-54127434D01*
X120980912Y-54073955D01*
X121070599Y-53992826D01*
X121199729Y-53895337D01*
X121352720Y-53792779D01*
X121513987Y-53696441D01*
X121614853Y-53643010D01*
X121901233Y-53526635D01*
X122227199Y-53447170D01*
X122284055Y-53437406D01*
X122477565Y-53408428D01*
X122626398Y-53395809D01*
X122764841Y-53399594D01*
G36*
X129894794Y-57297159D02*
G01*
X129128762Y-57297159D01*
X129128762Y-54676524D01*
X129894794Y-54676524D01*
X129894794Y-57297159D01*
G37*
X129894794Y-57297159D02*
X129128762Y-57297159D01*
X129128762Y-54676524D01*
X129894794Y-54676524D01*
X129894794Y-57297159D01*
G36*
X128765905Y-55247365D02*
G01*
X128161143Y-55927684D01*
X127987276Y-56124206D01*
X127832955Y-56300425D01*
X127705774Y-56447520D01*
X127613325Y-56556674D01*
X127563201Y-56619068D01*
X127556381Y-56630041D01*
X127594448Y-56637482D01*
X127699654Y-56643850D01*
X127858506Y-56648684D01*
X128057508Y-56651523D01*
X128201460Y-56652080D01*
X128846540Y-56652080D01*
X128846540Y-57297159D01*
X126548444Y-57297159D01*
X126548444Y-56665047D01*
X127148165Y-55983246D01*
X127747885Y-55301445D01*
X127188482Y-55290259D01*
X126629079Y-55279072D01*
X126629079Y-54676524D01*
X128765905Y-54676524D01*
X128765905Y-55247365D01*
G37*
X128765905Y-55247365D02*
X128161143Y-55927684D01*
X127987276Y-56124206D01*
X127832955Y-56300425D01*
X127705774Y-56447520D01*
X127613325Y-56556674D01*
X127563201Y-56619068D01*
X127556381Y-56630041D01*
X127594448Y-56637482D01*
X127699654Y-56643850D01*
X127858506Y-56648684D01*
X128057508Y-56651523D01*
X128201460Y-56652080D01*
X128846540Y-56652080D01*
X128846540Y-57297159D01*
X126548444Y-57297159D01*
X126548444Y-56665047D01*
X127148165Y-55983246D01*
X127747885Y-55301445D01*
X127188482Y-55290259D01*
X126629079Y-55279072D01*
X126629079Y-54676524D01*
X128765905Y-54676524D01*
X128765905Y-55247365D01*
G36*
X140843767Y-54641778D02*
G01*
X141128688Y-54735145D01*
X141388395Y-54893583D01*
X141499517Y-54992358D01*
X141667146Y-55207031D01*
X141791357Y-55461041D01*
X141855651Y-55719514D01*
X141877601Y-55906207D01*
X140985568Y-56186066D01*
X140733397Y-56266953D01*
X140509978Y-56342022D01*
X140325845Y-56407451D01*
X140191536Y-56459418D01*
X140117584Y-56494099D01*
X140106551Y-56504972D01*
X140147505Y-56548018D01*
X140232825Y-56605966D01*
X140258529Y-56620689D01*
X140449450Y-56681799D01*
X140667160Y-56676256D01*
X140895763Y-56605816D01*
X141027413Y-56535710D01*
X141236734Y-56405590D01*
X141431954Y-56597875D01*
X141530646Y-56701771D01*
X141600842Y-56788434D01*
X141627174Y-56838584D01*
X141593515Y-56896547D01*
X141504791Y-56975157D01*
X141379388Y-57061782D01*
X141235688Y-57143790D01*
X141092075Y-57208549D01*
X141084818Y-57211258D01*
X140748657Y-57295569D01*
X140398619Y-57303361D01*
X140309006Y-57293725D01*
X140010093Y-57215195D01*
X139735134Y-57067052D01*
X139498499Y-56859747D01*
X139314557Y-56603730D01*
X139286649Y-56550235D01*
X139239315Y-56442659D01*
X139209856Y-56337786D01*
X139194314Y-56211293D01*
X139188729Y-56038856D01*
X139188402Y-55946524D01*
X139190265Y-55805840D01*
X139893061Y-55805840D01*
X139902790Y-55886252D01*
X139945176Y-55918614D01*
X139964079Y-55916082D01*
X140026636Y-55897293D01*
X140150128Y-55859175D01*
X140318601Y-55806684D01*
X140516100Y-55744781D01*
X140588832Y-55721903D01*
X141143029Y-55547411D01*
X141035753Y-55435439D01*
X140870461Y-55316844D01*
X140674910Y-55260113D01*
X140467438Y-55262769D01*
X140266386Y-55322334D01*
X140090093Y-55436328D01*
X139970156Y-55579443D01*
X139915635Y-55697022D01*
X139893061Y-55805840D01*
X139190265Y-55805840D01*
X139190983Y-55751695D01*
X139201078Y-55613331D01*
X139222964Y-55507325D01*
X139260918Y-55409571D01*
X139296143Y-55339204D01*
X139473076Y-55082966D01*
X139698872Y-54880136D01*
X139961185Y-54732659D01*
X140247670Y-54642478D01*
X140545979Y-54611536D01*
X140843767Y-54641778D01*
G37*
X140843767Y-54641778D02*
X141128688Y-54735145D01*
X141388395Y-54893583D01*
X141499517Y-54992358D01*
X141667146Y-55207031D01*
X141791357Y-55461041D01*
X141855651Y-55719514D01*
X141877601Y-55906207D01*
X140985568Y-56186066D01*
X140733397Y-56266953D01*
X140509978Y-56342022D01*
X140325845Y-56407451D01*
X140191536Y-56459418D01*
X140117584Y-56494099D01*
X140106551Y-56504972D01*
X140147505Y-56548018D01*
X140232825Y-56605966D01*
X140258529Y-56620689D01*
X140449450Y-56681799D01*
X140667160Y-56676256D01*
X140895763Y-56605816D01*
X141027413Y-56535710D01*
X141236734Y-56405590D01*
X141431954Y-56597875D01*
X141530646Y-56701771D01*
X141600842Y-56788434D01*
X141627174Y-56838584D01*
X141593515Y-56896547D01*
X141504791Y-56975157D01*
X141379388Y-57061782D01*
X141235688Y-57143790D01*
X141092075Y-57208549D01*
X141084818Y-57211258D01*
X140748657Y-57295569D01*
X140398619Y-57303361D01*
X140309006Y-57293725D01*
X140010093Y-57215195D01*
X139735134Y-57067052D01*
X139498499Y-56859747D01*
X139314557Y-56603730D01*
X139286649Y-56550235D01*
X139239315Y-56442659D01*
X139209856Y-56337786D01*
X139194314Y-56211293D01*
X139188729Y-56038856D01*
X139188402Y-55946524D01*
X139190265Y-55805840D01*
X139893061Y-55805840D01*
X139902790Y-55886252D01*
X139945176Y-55918614D01*
X139964079Y-55916082D01*
X140026636Y-55897293D01*
X140150128Y-55859175D01*
X140318601Y-55806684D01*
X140516100Y-55744781D01*
X140588832Y-55721903D01*
X141143029Y-55547411D01*
X141035753Y-55435439D01*
X140870461Y-55316844D01*
X140674910Y-55260113D01*
X140467438Y-55262769D01*
X140266386Y-55322334D01*
X140090093Y-55436328D01*
X139970156Y-55579443D01*
X139915635Y-55697022D01*
X139893061Y-55805840D01*
X139190265Y-55805840D01*
X139190983Y-55751695D01*
X139201078Y-55613331D01*
X139222964Y-55507325D01*
X139260918Y-55409571D01*
X139296143Y-55339204D01*
X139473076Y-55082966D01*
X139698872Y-54880136D01*
X139961185Y-54732659D01*
X140247670Y-54642478D01*
X140545979Y-54611536D01*
X140843767Y-54641778D01*
G36*
X137924645Y-54644747D02*
G01*
X138212875Y-54739609D01*
X138465989Y-54895861D01*
X138500004Y-54924592D01*
X138621409Y-55046078D01*
X138731672Y-55180607D01*
X138780913Y-55255035D01*
X138842863Y-55384858D01*
X138895991Y-55533929D01*
X138934729Y-55680282D01*
X138953506Y-55801953D01*
X138946753Y-55876977D01*
X138940787Y-55885531D01*
X138893592Y-55907049D01*
X138781048Y-55948696D01*
X138614747Y-56006481D01*
X138406284Y-56076411D01*
X138167250Y-56154492D01*
X138059079Y-56189219D01*
X137812101Y-56268513D01*
X137592072Y-56339948D01*
X137410229Y-56399810D01*
X137277811Y-56444385D01*
X137206056Y-56469959D01*
X137196588Y-56474244D01*
X137199996Y-56515024D01*
X137258575Y-56570417D01*
X137352561Y-56625261D01*
X137434929Y-56657074D01*
X137664854Y-56685420D01*
X137898746Y-56640048D01*
X138118378Y-56524760D01*
X138137636Y-56510464D01*
X138316618Y-56373844D01*
X138520468Y-56609151D01*
X138617119Y-56723106D01*
X138688987Y-56812392D01*
X138723145Y-56860829D01*
X138724317Y-56864311D01*
X138693740Y-56895556D01*
X138613936Y-56957529D01*
X138512651Y-57029520D01*
X138211016Y-57196660D01*
X137897433Y-57288265D01*
X137559589Y-57307179D01*
X137381219Y-57290740D01*
X137078843Y-57211819D01*
X136812180Y-57067602D01*
X136588402Y-56868210D01*
X136414681Y-56623761D01*
X136298191Y-56344377D01*
X136246104Y-56040176D01*
X136254835Y-55897294D01*
X136954721Y-55897294D01*
X136983891Y-55924934D01*
X137000698Y-55926366D01*
X137055192Y-55914217D01*
X137171149Y-55880799D01*
X137333637Y-55830649D01*
X137527728Y-55768308D01*
X137615539Y-55739428D01*
X137815234Y-55672755D01*
X137986090Y-55614681D01*
X138114240Y-55570001D01*
X138185819Y-55543507D01*
X138195856Y-55538815D01*
X138189820Y-55499129D01*
X138130068Y-55436128D01*
X138033618Y-55365210D01*
X137952510Y-55318657D01*
X137745608Y-55250927D01*
X137535296Y-55260778D01*
X137373682Y-55316795D01*
X137206947Y-55414430D01*
X137091295Y-55541108D01*
X137012363Y-55694721D01*
X136964000Y-55824771D01*
X136954721Y-55897294D01*
X136254835Y-55897294D01*
X136265592Y-55721277D01*
X136266249Y-55717626D01*
X136348805Y-55418306D01*
X136482698Y-55171442D01*
X136676315Y-54966273D01*
X136938046Y-54792041D01*
X137021392Y-54748949D01*
X137311690Y-54647372D01*
X137618512Y-54613319D01*
X137924645Y-54644747D01*
G37*
X137924645Y-54644747D02*
X138212875Y-54739609D01*
X138465989Y-54895861D01*
X138500004Y-54924592D01*
X138621409Y-55046078D01*
X138731672Y-55180607D01*
X138780913Y-55255035D01*
X138842863Y-55384858D01*
X138895991Y-55533929D01*
X138934729Y-55680282D01*
X138953506Y-55801953D01*
X138946753Y-55876977D01*
X138940787Y-55885531D01*
X138893592Y-55907049D01*
X138781048Y-55948696D01*
X138614747Y-56006481D01*
X138406284Y-56076411D01*
X138167250Y-56154492D01*
X138059079Y-56189219D01*
X137812101Y-56268513D01*
X137592072Y-56339948D01*
X137410229Y-56399810D01*
X137277811Y-56444385D01*
X137206056Y-56469959D01*
X137196588Y-56474244D01*
X137199996Y-56515024D01*
X137258575Y-56570417D01*
X137352561Y-56625261D01*
X137434929Y-56657074D01*
X137664854Y-56685420D01*
X137898746Y-56640048D01*
X138118378Y-56524760D01*
X138137636Y-56510464D01*
X138316618Y-56373844D01*
X138520468Y-56609151D01*
X138617119Y-56723106D01*
X138688987Y-56812392D01*
X138723145Y-56860829D01*
X138724317Y-56864311D01*
X138693740Y-56895556D01*
X138613936Y-56957529D01*
X138512651Y-57029520D01*
X138211016Y-57196660D01*
X137897433Y-57288265D01*
X137559589Y-57307179D01*
X137381219Y-57290740D01*
X137078843Y-57211819D01*
X136812180Y-57067602D01*
X136588402Y-56868210D01*
X136414681Y-56623761D01*
X136298191Y-56344377D01*
X136246104Y-56040176D01*
X136254835Y-55897294D01*
X136954721Y-55897294D01*
X136983891Y-55924934D01*
X137000698Y-55926366D01*
X137055192Y-55914217D01*
X137171149Y-55880799D01*
X137333637Y-55830649D01*
X137527728Y-55768308D01*
X137615539Y-55739428D01*
X137815234Y-55672755D01*
X137986090Y-55614681D01*
X138114240Y-55570001D01*
X138185819Y-55543507D01*
X138195856Y-55538815D01*
X138189820Y-55499129D01*
X138130068Y-55436128D01*
X138033618Y-55365210D01*
X137952510Y-55318657D01*
X137745608Y-55250927D01*
X137535296Y-55260778D01*
X137373682Y-55316795D01*
X137206947Y-55414430D01*
X137091295Y-55541108D01*
X137012363Y-55694721D01*
X136964000Y-55824771D01*
X136954721Y-55897294D01*
X136254835Y-55897294D01*
X136265592Y-55721277D01*
X136266249Y-55717626D01*
X136348805Y-55418306D01*
X136482698Y-55171442D01*
X136676315Y-54966273D01*
X136938046Y-54792041D01*
X137021392Y-54748949D01*
X137311690Y-54647372D01*
X137618512Y-54613319D01*
X137924645Y-54644747D01*
G36*
X134087809Y-54878801D02*
G01*
X134318611Y-54748544D01*
X134460610Y-54675358D01*
X134581699Y-54635886D01*
X134720450Y-54620372D01*
X134832659Y-54618504D01*
X135098054Y-54643141D01*
X135326353Y-54722539D01*
X135536708Y-54865597D01*
X135692290Y-55017907D01*
X135851429Y-55223528D01*
X135954582Y-55439343D01*
X136007858Y-55684719D01*
X136017364Y-55979025D01*
X136014807Y-56040493D01*
X135998498Y-56244886D01*
X135969313Y-56399638D01*
X135920301Y-56535523D01*
X135887698Y-56603068D01*
X135713553Y-56868752D01*
X135497853Y-57077150D01*
X135250558Y-57222569D01*
X134981629Y-57299316D01*
X134701028Y-57301700D01*
X134672413Y-57297583D01*
X134418921Y-57219323D01*
X134198920Y-57075735D01*
X134178524Y-57057105D01*
X134087809Y-56971478D01*
X134087809Y-57300185D01*
X133714873Y-57288593D01*
X133341936Y-57277000D01*
X133334419Y-56029342D01*
X134058418Y-56029342D01*
X134104802Y-56232364D01*
X134198866Y-56411389D01*
X134333232Y-56553589D01*
X134500520Y-56646140D01*
X134693351Y-56676213D01*
X134753047Y-56671410D01*
X134886108Y-56638362D01*
X135002034Y-56585440D01*
X135015111Y-56576612D01*
X135156720Y-56427049D01*
X135251823Y-56229917D01*
X135296280Y-56006259D01*
X135285951Y-55777116D01*
X135216697Y-55563527D01*
X135215072Y-55560321D01*
X135089837Y-55390781D01*
X134929018Y-55283566D01*
X134747475Y-55238092D01*
X134560067Y-55253776D01*
X134381653Y-55330034D01*
X134227094Y-55466282D01*
X134138206Y-55602615D01*
X134067093Y-55815150D01*
X134058418Y-56029342D01*
X133334419Y-56029342D01*
X133331429Y-55533270D01*
X133320921Y-53789540D01*
X134087809Y-53789540D01*
X134087809Y-54878801D01*
G37*
X134087809Y-54878801D02*
X134318611Y-54748544D01*
X134460610Y-54675358D01*
X134581699Y-54635886D01*
X134720450Y-54620372D01*
X134832659Y-54618504D01*
X135098054Y-54643141D01*
X135326353Y-54722539D01*
X135536708Y-54865597D01*
X135692290Y-55017907D01*
X135851429Y-55223528D01*
X135954582Y-55439343D01*
X136007858Y-55684719D01*
X136017364Y-55979025D01*
X136014807Y-56040493D01*
X135998498Y-56244886D01*
X135969313Y-56399638D01*
X135920301Y-56535523D01*
X135887698Y-56603068D01*
X135713553Y-56868752D01*
X135497853Y-57077150D01*
X135250558Y-57222569D01*
X134981629Y-57299316D01*
X134701028Y-57301700D01*
X134672413Y-57297583D01*
X134418921Y-57219323D01*
X134198920Y-57075735D01*
X134178524Y-57057105D01*
X134087809Y-56971478D01*
X134087809Y-57300185D01*
X133714873Y-57288593D01*
X133341936Y-57277000D01*
X133334419Y-56029342D01*
X134058418Y-56029342D01*
X134104802Y-56232364D01*
X134198866Y-56411389D01*
X134333232Y-56553589D01*
X134500520Y-56646140D01*
X134693351Y-56676213D01*
X134753047Y-56671410D01*
X134886108Y-56638362D01*
X135002034Y-56585440D01*
X135015111Y-56576612D01*
X135156720Y-56427049D01*
X135251823Y-56229917D01*
X135296280Y-56006259D01*
X135285951Y-55777116D01*
X135216697Y-55563527D01*
X135215072Y-55560321D01*
X135089837Y-55390781D01*
X134929018Y-55283566D01*
X134747475Y-55238092D01*
X134560067Y-55253776D01*
X134381653Y-55330034D01*
X134227094Y-55466282D01*
X134138206Y-55602615D01*
X134067093Y-55815150D01*
X134058418Y-56029342D01*
X133334419Y-56029342D01*
X133331429Y-55533270D01*
X133320921Y-53789540D01*
X134087809Y-53789540D01*
X134087809Y-54878801D01*
G36*
X123043099Y-54275785D02*
G01*
X123216687Y-54279529D01*
X123340055Y-54285896D01*
X123400024Y-54294995D01*
X123403682Y-54298317D01*
X123376439Y-54331565D01*
X123298587Y-54416328D01*
X123175945Y-54546517D01*
X123014328Y-54716046D01*
X122819556Y-54918825D01*
X122597446Y-55148767D01*
X122353814Y-55399783D01*
X122214317Y-55543012D01*
X121906461Y-55859841D01*
X121651997Y-56124365D01*
X121446974Y-56340965D01*
X121287442Y-56514028D01*
X121169449Y-56647936D01*
X121089045Y-56747073D01*
X121042279Y-56815823D01*
X121025199Y-56858571D01*
X121024952Y-56862717D01*
X121060745Y-57003049D01*
X121157250Y-57146590D01*
X121298158Y-57272684D01*
X121393492Y-57329528D01*
X121573349Y-57392381D01*
X121822903Y-57439895D01*
X122132632Y-57471766D01*
X122493011Y-57487688D01*
X122894518Y-57487358D01*
X123327629Y-57470472D01*
X123782820Y-57436724D01*
X124016542Y-57413343D01*
X124188352Y-57397574D01*
X124329182Y-57390123D01*
X124420522Y-57391664D01*
X124444567Y-57397784D01*
X124435901Y-57440843D01*
X124370861Y-57514565D01*
X124262553Y-57608698D01*
X124124088Y-57712991D01*
X123968572Y-57817193D01*
X123809115Y-57911051D01*
X123746381Y-57943794D01*
X123330168Y-58112593D01*
X122915053Y-58201494D01*
X122496895Y-58211066D01*
X122156745Y-58161848D01*
X121752066Y-58034790D01*
X121374645Y-57838948D01*
X121037280Y-57582948D01*
X120752769Y-57275417D01*
X120669553Y-57159460D01*
X120514268Y-56907529D01*
X120404344Y-56674944D01*
X120333194Y-56438427D01*
X120294232Y-56174706D01*
X120280873Y-55860505D01*
X120280706Y-55785254D01*
X120283046Y-55559236D01*
X120290346Y-55392687D01*
X120305467Y-55264469D01*
X120331272Y-55153444D01*
X120370624Y-55038473D01*
X120387851Y-54994089D01*
X120458365Y-54830040D01*
X120536163Y-54670636D01*
X120595256Y-54565651D01*
X120632293Y-54507560D01*
X120667611Y-54463410D01*
X120712690Y-54430106D01*
X120779007Y-54404551D01*
X120878044Y-54383650D01*
X121021279Y-54364306D01*
X121220192Y-54343424D01*
X121486261Y-54317908D01*
X121528921Y-54313847D01*
X121685016Y-54302288D01*
X121883150Y-54292587D01*
X122110141Y-54284854D01*
X122352812Y-54279198D01*
X122597982Y-54275729D01*
X122832470Y-54274554D01*
X123043099Y-54275785D01*
G37*
X123043099Y-54275785D02*
X123216687Y-54279529D01*
X123340055Y-54285896D01*
X123400024Y-54294995D01*
X123403682Y-54298317D01*
X123376439Y-54331565D01*
X123298587Y-54416328D01*
X123175945Y-54546517D01*
X123014328Y-54716046D01*
X122819556Y-54918825D01*
X122597446Y-55148767D01*
X122353814Y-55399783D01*
X122214317Y-55543012D01*
X121906461Y-55859841D01*
X121651997Y-56124365D01*
X121446974Y-56340965D01*
X121287442Y-56514028D01*
X121169449Y-56647936D01*
X121089045Y-56747073D01*
X121042279Y-56815823D01*
X121025199Y-56858571D01*
X121024952Y-56862717D01*
X121060745Y-57003049D01*
X121157250Y-57146590D01*
X121298158Y-57272684D01*
X121393492Y-57329528D01*
X121573349Y-57392381D01*
X121822903Y-57439895D01*
X122132632Y-57471766D01*
X122493011Y-57487688D01*
X122894518Y-57487358D01*
X123327629Y-57470472D01*
X123782820Y-57436724D01*
X124016542Y-57413343D01*
X124188352Y-57397574D01*
X124329182Y-57390123D01*
X124420522Y-57391664D01*
X124444567Y-57397784D01*
X124435901Y-57440843D01*
X124370861Y-57514565D01*
X124262553Y-57608698D01*
X124124088Y-57712991D01*
X123968572Y-57817193D01*
X123809115Y-57911051D01*
X123746381Y-57943794D01*
X123330168Y-58112593D01*
X122915053Y-58201494D01*
X122496895Y-58211066D01*
X122156745Y-58161848D01*
X121752066Y-58034790D01*
X121374645Y-57838948D01*
X121037280Y-57582948D01*
X120752769Y-57275417D01*
X120669553Y-57159460D01*
X120514268Y-56907529D01*
X120404344Y-56674944D01*
X120333194Y-56438427D01*
X120294232Y-56174706D01*
X120280873Y-55860505D01*
X120280706Y-55785254D01*
X120283046Y-55559236D01*
X120290346Y-55392687D01*
X120305467Y-55264469D01*
X120331272Y-55153444D01*
X120370624Y-55038473D01*
X120387851Y-54994089D01*
X120458365Y-54830040D01*
X120536163Y-54670636D01*
X120595256Y-54565651D01*
X120632293Y-54507560D01*
X120667611Y-54463410D01*
X120712690Y-54430106D01*
X120779007Y-54404551D01*
X120878044Y-54383650D01*
X121021279Y-54364306D01*
X121220192Y-54343424D01*
X121486261Y-54317908D01*
X121528921Y-54313847D01*
X121685016Y-54302288D01*
X121883150Y-54292587D01*
X122110141Y-54284854D01*
X122352812Y-54279198D01*
X122597982Y-54275729D01*
X122832470Y-54274554D01*
X123043099Y-54275785D01*
G36*
X131593227Y-54636914D02*
G01*
X131783044Y-54691673D01*
X131954391Y-54796974D01*
X132061857Y-54890534D01*
X132192889Y-55014882D01*
X132192889Y-54676524D01*
X132958921Y-54676524D01*
X132958616Y-55875969D01*
X132957112Y-56193796D01*
X132953013Y-56498314D01*
X132946696Y-56776530D01*
X132938540Y-57015453D01*
X132928920Y-57202089D01*
X132918215Y-57323447D01*
X132916182Y-57337477D01*
X132825182Y-57692996D01*
X132676568Y-57995056D01*
X132473046Y-58240714D01*
X132217320Y-58427027D01*
X131912095Y-58551053D01*
X131770609Y-58583711D01*
X131592772Y-58612419D01*
X131449386Y-58621614D01*
X131306016Y-58610445D01*
X131128231Y-58578060D01*
X131074126Y-58566496D01*
X130749922Y-58460690D01*
X130441756Y-58294276D01*
X130269579Y-58164387D01*
X130123992Y-58038537D01*
X130364231Y-57782946D01*
X130604469Y-57527354D01*
X130796522Y-57673951D01*
X131049072Y-57828622D01*
X131298132Y-57910926D01*
X131534910Y-57923912D01*
X131750615Y-57870627D01*
X131936457Y-57754121D01*
X132083642Y-57577442D01*
X132183381Y-57343640D01*
X132216217Y-57181619D01*
X132244833Y-56965285D01*
X132036904Y-57108314D01*
X131767428Y-57248835D01*
X131485720Y-57315701D01*
X131203584Y-57312225D01*
X130932824Y-57241723D01*
X130685243Y-57107507D01*
X130472647Y-56912892D01*
X130306838Y-56661191D01*
X130285823Y-56616697D01*
X130226358Y-56425131D01*
X130190462Y-56185400D01*
X130182947Y-56009782D01*
X130950684Y-56009782D01*
X130969035Y-56178373D01*
X130980619Y-56220425D01*
X131080943Y-56425058D01*
X131224452Y-56578275D01*
X131322644Y-56637286D01*
X131483533Y-56675734D01*
X131667590Y-56669603D01*
X131836803Y-56622398D01*
X131905193Y-56583597D01*
X132051270Y-56429386D01*
X132146670Y-56223956D01*
X132184787Y-55983615D01*
X132183508Y-55896562D01*
X132138025Y-55664692D01*
X132039232Y-55479111D01*
X131899613Y-55343925D01*
X131731655Y-55263240D01*
X131547844Y-55241163D01*
X131360665Y-55281801D01*
X131182605Y-55389261D01*
X131055510Y-55525563D01*
X130997379Y-55651288D01*
X130961285Y-55823391D01*
X130950684Y-56009782D01*
X130182947Y-56009782D01*
X130179397Y-55926830D01*
X130194428Y-55678746D01*
X130236463Y-55471604D01*
X130362427Y-55191554D01*
X130546021Y-54954054D01*
X130775680Y-54773249D01*
X130833562Y-54741292D01*
X130983338Y-54673242D01*
X131119241Y-54636834D01*
X131280746Y-54623054D01*
X131356539Y-54621878D01*
X131593227Y-54636914D01*
G37*
X131593227Y-54636914D02*
X131783044Y-54691673D01*
X131954391Y-54796974D01*
X132061857Y-54890534D01*
X132192889Y-55014882D01*
X132192889Y-54676524D01*
X132958921Y-54676524D01*
X132958616Y-55875969D01*
X132957112Y-56193796D01*
X132953013Y-56498314D01*
X132946696Y-56776530D01*
X132938540Y-57015453D01*
X132928920Y-57202089D01*
X132918215Y-57323447D01*
X132916182Y-57337477D01*
X132825182Y-57692996D01*
X132676568Y-57995056D01*
X132473046Y-58240714D01*
X132217320Y-58427027D01*
X131912095Y-58551053D01*
X131770609Y-58583711D01*
X131592772Y-58612419D01*
X131449386Y-58621614D01*
X131306016Y-58610445D01*
X131128231Y-58578060D01*
X131074126Y-58566496D01*
X130749922Y-58460690D01*
X130441756Y-58294276D01*
X130269579Y-58164387D01*
X130123992Y-58038537D01*
X130364231Y-57782946D01*
X130604469Y-57527354D01*
X130796522Y-57673951D01*
X131049072Y-57828622D01*
X131298132Y-57910926D01*
X131534910Y-57923912D01*
X131750615Y-57870627D01*
X131936457Y-57754121D01*
X132083642Y-57577442D01*
X132183381Y-57343640D01*
X132216217Y-57181619D01*
X132244833Y-56965285D01*
X132036904Y-57108314D01*
X131767428Y-57248835D01*
X131485720Y-57315701D01*
X131203584Y-57312225D01*
X130932824Y-57241723D01*
X130685243Y-57107507D01*
X130472647Y-56912892D01*
X130306838Y-56661191D01*
X130285823Y-56616697D01*
X130226358Y-56425131D01*
X130190462Y-56185400D01*
X130182947Y-56009782D01*
X130950684Y-56009782D01*
X130969035Y-56178373D01*
X130980619Y-56220425D01*
X131080943Y-56425058D01*
X131224452Y-56578275D01*
X131322644Y-56637286D01*
X131483533Y-56675734D01*
X131667590Y-56669603D01*
X131836803Y-56622398D01*
X131905193Y-56583597D01*
X132051270Y-56429386D01*
X132146670Y-56223956D01*
X132184787Y-55983615D01*
X132183508Y-55896562D01*
X132138025Y-55664692D01*
X132039232Y-55479111D01*
X131899613Y-55343925D01*
X131731655Y-55263240D01*
X131547844Y-55241163D01*
X131360665Y-55281801D01*
X131182605Y-55389261D01*
X131055510Y-55525563D01*
X130997379Y-55651288D01*
X130961285Y-55823391D01*
X130950684Y-56009782D01*
X130182947Y-56009782D01*
X130179397Y-55926830D01*
X130194428Y-55678746D01*
X130236463Y-55471604D01*
X130362427Y-55191554D01*
X130546021Y-54954054D01*
X130775680Y-54773249D01*
X130833562Y-54741292D01*
X130983338Y-54673242D01*
X131119241Y-54636834D01*
X131280746Y-54623054D01*
X131356539Y-54621878D01*
X131593227Y-54636914D01*
D11*
X88691000Y-66549750D02*
X88691000Y-75499750D01*
X85611000Y-75619750D02*
X84711000Y-75619750D01*
X85611000Y-66429750D02*
X84711000Y-66429750D01*
X100436000Y-80689686D02*
X100436000Y-81893814D01*
X102256000Y-80689686D02*
X102256000Y-81893814D01*
X92906436Y-66950000D02*
X94110564Y-66950000D01*
X92906436Y-65130000D02*
X94110564Y-65130000D01*
X138933884Y-85704000D02*
X137729756Y-85704000D01*
X138933884Y-87524000D02*
X137729756Y-87524000D01*
X94110564Y-57510000D02*
X92906436Y-57510000D01*
X94110564Y-59330000D02*
X92906436Y-59330000D01*
X144717536Y-58744750D02*
X145921664Y-58744750D01*
X144717536Y-56924750D02*
X145921664Y-56924750D01*
X144717536Y-85124750D02*
X145921664Y-85124750D01*
X144717536Y-83304750D02*
X145921664Y-83304750D01*
X89006000Y-80689686D02*
X89006000Y-81893814D01*
X90826000Y-80689686D02*
X90826000Y-81893814D01*
X92816000Y-80689686D02*
X92816000Y-81893814D01*
X94636000Y-80689686D02*
X94636000Y-81893814D01*
X92906436Y-63140000D02*
X94110564Y-63140000D01*
X92906436Y-61320000D02*
X94110564Y-61320000D01*
X96601000Y-70337750D02*
X96601000Y-74422750D01*
X98471000Y-70337750D02*
X96601000Y-70337750D01*
X98471000Y-74422750D02*
X98471000Y-70337750D01*
X100411000Y-70337750D02*
X100411000Y-74422750D01*
X102281000Y-70337750D02*
X100411000Y-70337750D01*
X102281000Y-74422750D02*
X102281000Y-70337750D01*
X104246000Y-72200686D02*
X104246000Y-73404814D01*
X106066000Y-72200686D02*
X106066000Y-73404814D01*
X92816000Y-72200686D02*
X92816000Y-73404814D01*
X94636000Y-72200686D02*
X94636000Y-73404814D01*
X98446000Y-81893814D02*
X98446000Y-80689686D01*
X96626000Y-81893814D02*
X96626000Y-80689686D01*
X104246000Y-80689686D02*
X104246000Y-81893814D01*
X106066000Y-80689686D02*
X106066000Y-81893814D01*
X99460000Y-66381750D02*
X99460000Y-60371750D01*
X106280000Y-64131750D02*
X106280000Y-60371750D01*
X99460000Y-60371750D02*
X100720000Y-60371750D01*
X106280000Y-60371750D02*
X105020000Y-60371750D01*
X86932000Y-60615000D02*
X87088000Y-60615000D01*
X84616000Y-60615000D02*
X84772000Y-60615000D01*
X86931837Y-58013870D02*
G75*
G02X86932000Y-60095961I-1079837J-1041130D01*
G01*
X84772163Y-58013870D02*
G75*
G03X84772000Y-60095961I1079837J-1041130D01*
G01*
X86930608Y-57382665D02*
G75*
G02X87087516Y-60615000I-1078608J-1672335D01*
G01*
X84773392Y-57382665D02*
G75*
G03X84616484Y-60615000I1078608J-1672335D01*
G01*
X156174320Y-57554750D02*
X156330320Y-57554750D01*
X153858320Y-57554750D02*
X154014320Y-57554750D01*
X156174157Y-54953620D02*
G75*
G02X156174320Y-57035711I-1079837J-1041130D01*
G01*
X154014483Y-54953620D02*
G75*
G03X154014320Y-57035711I1079837J-1041130D01*
G01*
X156172928Y-54322415D02*
G75*
G02X156329836Y-57554750I-1078608J-1672335D01*
G01*
X154015712Y-54322415D02*
G75*
G03X153858804Y-57554750I1078608J-1672335D01*
G01*
X154014320Y-84494750D02*
X153858320Y-84494750D01*
X156330320Y-84494750D02*
X156174320Y-84494750D01*
X154014483Y-87095880D02*
G75*
G02X154014320Y-85013789I1079837J1041130D01*
G01*
X156174157Y-87095880D02*
G75*
G03X156174320Y-85013789I-1079837J1041130D01*
G01*
X154015712Y-87727085D02*
G75*
G02X153858804Y-84494750I1078608J1672335D01*
G01*
X156172928Y-87727085D02*
G75*
G03X156329836Y-84494750I-1078608J1672335D01*
G01*
X123249320Y-87944000D02*
X123249320Y-86614000D01*
X124579320Y-87944000D02*
X123249320Y-87944000D01*
X125849320Y-87944000D02*
X125849320Y-85284000D01*
X125849320Y-85284000D02*
X133529320Y-85284000D01*
X125849320Y-87944000D02*
X133529320Y-87944000D01*
X133529320Y-87944000D02*
X133529320Y-85284000D01*
X156309320Y-60774750D02*
X156309320Y-81274750D01*
X156309320Y-60774750D02*
X140695620Y-60774750D01*
X123309320Y-60774750D02*
X123309320Y-64966850D01*
X156309320Y-81274750D02*
X140695620Y-81274750D01*
X123309320Y-60774750D02*
X124934920Y-60774750D01*
X123309320Y-81274750D02*
X124934920Y-81274750D01*
X123309320Y-77082650D02*
X123309320Y-81274750D01*
X82278000Y-85382000D02*
X82278000Y-84482000D01*
X82278000Y-80782000D02*
X83478000Y-80782000D01*
X82278000Y-85382000D02*
X83478000Y-85382000D01*
X85278000Y-85382000D02*
X85278000Y-85082000D01*
X82278000Y-80782000D02*
X82278000Y-81682000D01*
X85278000Y-80782000D02*
X84978000Y-80782000D01*
X85278000Y-85382000D02*
X84978000Y-85382000D01*
X85278000Y-80782000D02*
X85278000Y-81082000D01*
X85278000Y-83782000D02*
X85278000Y-82382000D01*
D10*
X109908666Y-88352380D02*
X109908666Y-89066666D01*
X109861047Y-89209523D01*
X109765809Y-89304761D01*
X109622952Y-89352380D01*
X109527714Y-89352380D01*
X110861047Y-89352380D02*
X110384857Y-89352380D01*
X110384857Y-88352380D01*
X111194380Y-89352380D02*
X111194380Y-88352380D01*
X111670571Y-89352380D02*
X111670571Y-88352380D01*
X112242000Y-89352380D01*
X112242000Y-88352380D01*
X112718190Y-89352380D02*
X112718190Y-88352380D01*
X113289619Y-89352380D02*
X112861047Y-88780952D01*
X113289619Y-88352380D02*
X112718190Y-88923809D01*
X113718190Y-88971428D02*
X114480095Y-88971428D01*
X115242000Y-88352380D02*
X115242000Y-89066666D01*
X115194380Y-89209523D01*
X115099142Y-89304761D01*
X114956285Y-89352380D01*
X114861047Y-89352380D01*
X115575333Y-88352380D02*
X116146761Y-88352380D01*
X115861047Y-89352380D02*
X115861047Y-88352380D01*
X116432476Y-89066666D02*
X116908666Y-89066666D01*
X116337238Y-89352380D02*
X116670571Y-88352380D01*
X117003904Y-89352380D01*
X117861047Y-88400000D02*
X117765809Y-88352380D01*
X117622952Y-88352380D01*
X117480095Y-88400000D01*
X117384857Y-88495238D01*
X117337238Y-88590476D01*
X117289619Y-88780952D01*
X117289619Y-88923809D01*
X117337238Y-89114285D01*
X117384857Y-89209523D01*
X117480095Y-89304761D01*
X117622952Y-89352380D01*
X117718190Y-89352380D01*
X117861047Y-89304761D01*
X117908666Y-89257142D01*
X117908666Y-88923809D01*
X117718190Y-88923809D01*
X83217047Y-64349380D02*
X83217047Y-65158904D01*
X83264666Y-65254142D01*
X83312285Y-65301761D01*
X83407523Y-65349380D01*
X83598000Y-65349380D01*
X83693238Y-65301761D01*
X83740857Y-65254142D01*
X83788476Y-65158904D01*
X83788476Y-64349380D01*
X84217047Y-65301761D02*
X84359904Y-65349380D01*
X84598000Y-65349380D01*
X84693238Y-65301761D01*
X84740857Y-65254142D01*
X84788476Y-65158904D01*
X84788476Y-65063666D01*
X84740857Y-64968428D01*
X84693238Y-64920809D01*
X84598000Y-64873190D01*
X84407523Y-64825571D01*
X84312285Y-64777952D01*
X84264666Y-64730333D01*
X84217047Y-64635095D01*
X84217047Y-64539857D01*
X84264666Y-64444619D01*
X84312285Y-64397000D01*
X84407523Y-64349380D01*
X84645619Y-64349380D01*
X84788476Y-64397000D01*
X85550380Y-64825571D02*
X85693238Y-64873190D01*
X85740857Y-64920809D01*
X85788476Y-65016047D01*
X85788476Y-65158904D01*
X85740857Y-65254142D01*
X85693238Y-65301761D01*
X85598000Y-65349380D01*
X85217047Y-65349380D01*
X85217047Y-64349380D01*
X85550380Y-64349380D01*
X85645619Y-64397000D01*
X85693238Y-64444619D01*
X85740857Y-64539857D01*
X85740857Y-64635095D01*
X85693238Y-64730333D01*
X85645619Y-64777952D01*
X85550380Y-64825571D01*
X85217047Y-64825571D01*
X86217047Y-64968428D02*
X86978952Y-64968428D01*
X88026571Y-65254142D02*
X87978952Y-65301761D01*
X87836095Y-65349380D01*
X87740857Y-65349380D01*
X87598000Y-65301761D01*
X87502761Y-65206523D01*
X87455142Y-65111285D01*
X87407523Y-64920809D01*
X87407523Y-64777952D01*
X87455142Y-64587476D01*
X87502761Y-64492238D01*
X87598000Y-64397000D01*
X87740857Y-64349380D01*
X87836095Y-64349380D01*
X87978952Y-64397000D01*
X88026571Y-64444619D01*
X101179333Y-78303380D02*
X100846000Y-77827190D01*
X100607904Y-78303380D02*
X100607904Y-77303380D01*
X100988857Y-77303380D01*
X101084095Y-77351000D01*
X101131714Y-77398619D01*
X101179333Y-77493857D01*
X101179333Y-77636714D01*
X101131714Y-77731952D01*
X101084095Y-77779571D01*
X100988857Y-77827190D01*
X100607904Y-77827190D01*
X101655523Y-78303380D02*
X101846000Y-78303380D01*
X101941238Y-78255761D01*
X101988857Y-78208142D01*
X102084095Y-78065285D01*
X102131714Y-77874809D01*
X102131714Y-77493857D01*
X102084095Y-77398619D01*
X102036476Y-77351000D01*
X101941238Y-77303380D01*
X101750761Y-77303380D01*
X101655523Y-77351000D01*
X101607904Y-77398619D01*
X101560285Y-77493857D01*
X101560285Y-77731952D01*
X101607904Y-77827190D01*
X101655523Y-77874809D01*
X101750761Y-77922428D01*
X101941238Y-77922428D01*
X102036476Y-77874809D01*
X102084095Y-77827190D01*
X102131714Y-77731952D01*
X97115333Y-66492380D02*
X96782000Y-66016190D01*
X96543904Y-66492380D02*
X96543904Y-65492380D01*
X96924857Y-65492380D01*
X97020095Y-65540000D01*
X97067714Y-65587619D01*
X97115333Y-65682857D01*
X97115333Y-65825714D01*
X97067714Y-65920952D01*
X97020095Y-65968571D01*
X96924857Y-66016190D01*
X96543904Y-66016190D01*
X97686761Y-65920952D02*
X97591523Y-65873333D01*
X97543904Y-65825714D01*
X97496285Y-65730476D01*
X97496285Y-65682857D01*
X97543904Y-65587619D01*
X97591523Y-65540000D01*
X97686761Y-65492380D01*
X97877238Y-65492380D01*
X97972476Y-65540000D01*
X98020095Y-65587619D01*
X98067714Y-65682857D01*
X98067714Y-65730476D01*
X98020095Y-65825714D01*
X97972476Y-65873333D01*
X97877238Y-65920952D01*
X97686761Y-65920952D01*
X97591523Y-65968571D01*
X97543904Y-66016190D01*
X97496285Y-66111428D01*
X97496285Y-66301904D01*
X97543904Y-66397142D01*
X97591523Y-66444761D01*
X97686761Y-66492380D01*
X97877238Y-66492380D01*
X97972476Y-66444761D01*
X98020095Y-66397142D01*
X98067714Y-66301904D01*
X98067714Y-66111428D01*
X98020095Y-66016190D01*
X97972476Y-65968571D01*
X97877238Y-65920952D01*
X138165153Y-85034380D02*
X137831820Y-84558190D01*
X137593724Y-85034380D02*
X137593724Y-84034380D01*
X137974677Y-84034380D01*
X138069915Y-84082000D01*
X138117534Y-84129619D01*
X138165153Y-84224857D01*
X138165153Y-84367714D01*
X138117534Y-84462952D01*
X138069915Y-84510571D01*
X137974677Y-84558190D01*
X137593724Y-84558190D01*
X138498486Y-84034380D02*
X139165153Y-84034380D01*
X138736581Y-85034380D01*
X97115333Y-58872380D02*
X96782000Y-58396190D01*
X96543904Y-58872380D02*
X96543904Y-57872380D01*
X96924857Y-57872380D01*
X97020095Y-57920000D01*
X97067714Y-57967619D01*
X97115333Y-58062857D01*
X97115333Y-58205714D01*
X97067714Y-58300952D01*
X97020095Y-58348571D01*
X96924857Y-58396190D01*
X96543904Y-58396190D01*
X97972476Y-57872380D02*
X97782000Y-57872380D01*
X97686761Y-57920000D01*
X97639142Y-57967619D01*
X97543904Y-58110476D01*
X97496285Y-58300952D01*
X97496285Y-58681904D01*
X97543904Y-58777142D01*
X97591523Y-58824761D01*
X97686761Y-58872380D01*
X97877238Y-58872380D01*
X97972476Y-58824761D01*
X98020095Y-58777142D01*
X98067714Y-58681904D01*
X98067714Y-58443809D01*
X98020095Y-58348571D01*
X97972476Y-58300952D01*
X97877238Y-58253333D01*
X97686761Y-58253333D01*
X97591523Y-58300952D01*
X97543904Y-58348571D01*
X97496285Y-58443809D01*
X148804333Y-58237380D02*
X148471000Y-57761190D01*
X148232904Y-58237380D02*
X148232904Y-57237380D01*
X148613857Y-57237380D01*
X148709095Y-57285000D01*
X148756714Y-57332619D01*
X148804333Y-57427857D01*
X148804333Y-57570714D01*
X148756714Y-57665952D01*
X148709095Y-57713571D01*
X148613857Y-57761190D01*
X148232904Y-57761190D01*
X149709095Y-57237380D02*
X149232904Y-57237380D01*
X149185285Y-57713571D01*
X149232904Y-57665952D01*
X149328142Y-57618333D01*
X149566238Y-57618333D01*
X149661476Y-57665952D01*
X149709095Y-57713571D01*
X149756714Y-57808809D01*
X149756714Y-58046904D01*
X149709095Y-58142142D01*
X149661476Y-58189761D01*
X149566238Y-58237380D01*
X149328142Y-58237380D01*
X149232904Y-58189761D01*
X149185285Y-58142142D01*
X148804333Y-84653380D02*
X148471000Y-84177190D01*
X148232904Y-84653380D02*
X148232904Y-83653380D01*
X148613857Y-83653380D01*
X148709095Y-83701000D01*
X148756714Y-83748619D01*
X148804333Y-83843857D01*
X148804333Y-83986714D01*
X148756714Y-84081952D01*
X148709095Y-84129571D01*
X148613857Y-84177190D01*
X148232904Y-84177190D01*
X149661476Y-83986714D02*
X149661476Y-84653380D01*
X149423380Y-83605761D02*
X149185285Y-84320047D01*
X149804333Y-84320047D01*
X89749333Y-78303380D02*
X89416000Y-77827190D01*
X89177904Y-78303380D02*
X89177904Y-77303380D01*
X89558857Y-77303380D01*
X89654095Y-77351000D01*
X89701714Y-77398619D01*
X89749333Y-77493857D01*
X89749333Y-77636714D01*
X89701714Y-77731952D01*
X89654095Y-77779571D01*
X89558857Y-77827190D01*
X89177904Y-77827190D01*
X90082666Y-77303380D02*
X90701714Y-77303380D01*
X90368380Y-77684333D01*
X90511238Y-77684333D01*
X90606476Y-77731952D01*
X90654095Y-77779571D01*
X90701714Y-77874809D01*
X90701714Y-78112904D01*
X90654095Y-78208142D01*
X90606476Y-78255761D01*
X90511238Y-78303380D01*
X90225523Y-78303380D01*
X90130285Y-78255761D01*
X90082666Y-78208142D01*
X93559333Y-78303380D02*
X93226000Y-77827190D01*
X92987904Y-78303380D02*
X92987904Y-77303380D01*
X93368857Y-77303380D01*
X93464095Y-77351000D01*
X93511714Y-77398619D01*
X93559333Y-77493857D01*
X93559333Y-77636714D01*
X93511714Y-77731952D01*
X93464095Y-77779571D01*
X93368857Y-77827190D01*
X92987904Y-77827190D01*
X93940285Y-77398619D02*
X93987904Y-77351000D01*
X94083142Y-77303380D01*
X94321238Y-77303380D01*
X94416476Y-77351000D01*
X94464095Y-77398619D01*
X94511714Y-77493857D01*
X94511714Y-77589095D01*
X94464095Y-77731952D01*
X93892666Y-78303380D01*
X94511714Y-78303380D01*
X97115333Y-62682380D02*
X96782000Y-62206190D01*
X96543904Y-62682380D02*
X96543904Y-61682380D01*
X96924857Y-61682380D01*
X97020095Y-61730000D01*
X97067714Y-61777619D01*
X97115333Y-61872857D01*
X97115333Y-62015714D01*
X97067714Y-62110952D01*
X97020095Y-62158571D01*
X96924857Y-62206190D01*
X96543904Y-62206190D01*
X98067714Y-62682380D02*
X97496285Y-62682380D01*
X97782000Y-62682380D02*
X97782000Y-61682380D01*
X97686761Y-61825238D01*
X97591523Y-61920476D01*
X97496285Y-61968095D01*
X97369333Y-69699142D02*
X97321714Y-69746761D01*
X97178857Y-69794380D01*
X97083619Y-69794380D01*
X96940761Y-69746761D01*
X96845523Y-69651523D01*
X96797904Y-69556285D01*
X96750285Y-69365809D01*
X96750285Y-69222952D01*
X96797904Y-69032476D01*
X96845523Y-68937238D01*
X96940761Y-68842000D01*
X97083619Y-68794380D01*
X97178857Y-68794380D01*
X97321714Y-68842000D01*
X97369333Y-68889619D01*
X97750285Y-68889619D02*
X97797904Y-68842000D01*
X97893142Y-68794380D01*
X98131238Y-68794380D01*
X98226476Y-68842000D01*
X98274095Y-68889619D01*
X98321714Y-68984857D01*
X98321714Y-69080095D01*
X98274095Y-69222952D01*
X97702666Y-69794380D01*
X98321714Y-69794380D01*
X101179333Y-69699142D02*
X101131714Y-69746761D01*
X100988857Y-69794380D01*
X100893619Y-69794380D01*
X100750761Y-69746761D01*
X100655523Y-69651523D01*
X100607904Y-69556285D01*
X100560285Y-69365809D01*
X100560285Y-69222952D01*
X100607904Y-69032476D01*
X100655523Y-68937238D01*
X100750761Y-68842000D01*
X100893619Y-68794380D01*
X100988857Y-68794380D01*
X101131714Y-68842000D01*
X101179333Y-68889619D01*
X102131714Y-69794380D02*
X101560285Y-69794380D01*
X101846000Y-69794380D02*
X101846000Y-68794380D01*
X101750761Y-68937238D01*
X101655523Y-69032476D01*
X101560285Y-69080095D01*
X104822666Y-69270571D02*
X104489333Y-69270571D01*
X104489333Y-69794380D02*
X104489333Y-68794380D01*
X104965523Y-68794380D01*
X105870285Y-69794380D02*
X105298857Y-69794380D01*
X105584571Y-69794380D02*
X105584571Y-68794380D01*
X105489333Y-68937238D01*
X105394095Y-69032476D01*
X105298857Y-69080095D01*
X93559333Y-69699142D02*
X93511714Y-69746761D01*
X93368857Y-69794380D01*
X93273619Y-69794380D01*
X93130761Y-69746761D01*
X93035523Y-69651523D01*
X92987904Y-69556285D01*
X92940285Y-69365809D01*
X92940285Y-69222952D01*
X92987904Y-69032476D01*
X93035523Y-68937238D01*
X93130761Y-68842000D01*
X93273619Y-68794380D01*
X93368857Y-68794380D01*
X93511714Y-68842000D01*
X93559333Y-68889619D01*
X93892666Y-68794380D02*
X94511714Y-68794380D01*
X94178380Y-69175333D01*
X94321238Y-69175333D01*
X94416476Y-69222952D01*
X94464095Y-69270571D01*
X94511714Y-69365809D01*
X94511714Y-69603904D01*
X94464095Y-69699142D01*
X94416476Y-69746761D01*
X94321238Y-69794380D01*
X94035523Y-69794380D01*
X93940285Y-69746761D01*
X93892666Y-69699142D01*
X97369333Y-78208142D02*
X97321714Y-78255761D01*
X97178857Y-78303380D01*
X97083619Y-78303380D01*
X96940761Y-78255761D01*
X96845523Y-78160523D01*
X96797904Y-78065285D01*
X96750285Y-77874809D01*
X96750285Y-77731952D01*
X96797904Y-77541476D01*
X96845523Y-77446238D01*
X96940761Y-77351000D01*
X97083619Y-77303380D01*
X97178857Y-77303380D01*
X97321714Y-77351000D01*
X97369333Y-77398619D01*
X98274095Y-77303380D02*
X97797904Y-77303380D01*
X97750285Y-77779571D01*
X97797904Y-77731952D01*
X97893142Y-77684333D01*
X98131238Y-77684333D01*
X98226476Y-77731952D01*
X98274095Y-77779571D01*
X98321714Y-77874809D01*
X98321714Y-78112904D01*
X98274095Y-78208142D01*
X98226476Y-78255761D01*
X98131238Y-78303380D01*
X97893142Y-78303380D01*
X97797904Y-78255761D01*
X97750285Y-78208142D01*
X104989333Y-78208142D02*
X104941714Y-78255761D01*
X104798857Y-78303380D01*
X104703619Y-78303380D01*
X104560761Y-78255761D01*
X104465523Y-78160523D01*
X104417904Y-78065285D01*
X104370285Y-77874809D01*
X104370285Y-77731952D01*
X104417904Y-77541476D01*
X104465523Y-77446238D01*
X104560761Y-77351000D01*
X104703619Y-77303380D01*
X104798857Y-77303380D01*
X104941714Y-77351000D01*
X104989333Y-77398619D01*
X105846476Y-77636714D02*
X105846476Y-78303380D01*
X105608380Y-77255761D02*
X105370285Y-77970047D01*
X105989333Y-77970047D01*
X100774761Y-57348380D02*
X100298571Y-57348380D01*
X100298571Y-56348380D01*
X101108095Y-57348380D02*
X101108095Y-56348380D01*
X101346190Y-56348380D01*
X101489047Y-56396000D01*
X101584285Y-56491238D01*
X101631904Y-56586476D01*
X101679523Y-56776952D01*
X101679523Y-56919809D01*
X101631904Y-57110285D01*
X101584285Y-57205523D01*
X101489047Y-57300761D01*
X101346190Y-57348380D01*
X101108095Y-57348380D01*
X102631904Y-57348380D02*
X102060476Y-57348380D01*
X102346190Y-57348380D02*
X102346190Y-56348380D01*
X102250952Y-56491238D01*
X102155714Y-56586476D01*
X102060476Y-56634095D01*
X103584285Y-57348380D02*
X103012857Y-57348380D01*
X103298571Y-57348380D02*
X103298571Y-56348380D01*
X103203333Y-56491238D01*
X103108095Y-56586476D01*
X103012857Y-56634095D01*
X104536666Y-57348380D02*
X103965238Y-57348380D01*
X104250952Y-57348380D02*
X104250952Y-56348380D01*
X104155714Y-56491238D01*
X104060476Y-56586476D01*
X103965238Y-56634095D01*
X104870000Y-56348380D02*
X105536666Y-56348380D01*
X105108095Y-57348380D01*
X84518666Y-56078380D02*
X84518666Y-55078380D01*
X84899619Y-55078380D01*
X84994857Y-55126000D01*
X85042476Y-55173619D01*
X85090095Y-55268857D01*
X85090095Y-55411714D01*
X85042476Y-55506952D01*
X84994857Y-55554571D01*
X84899619Y-55602190D01*
X84518666Y-55602190D01*
X85423428Y-55078380D02*
X85661523Y-56078380D01*
X85852000Y-55364095D01*
X86042476Y-56078380D01*
X86280571Y-55078380D01*
X87232952Y-56078380D02*
X86899619Y-55602190D01*
X86661523Y-56078380D02*
X86661523Y-55078380D01*
X87042476Y-55078380D01*
X87137714Y-55126000D01*
X87185333Y-55173619D01*
X87232952Y-55268857D01*
X87232952Y-55411714D01*
X87185333Y-55506952D01*
X87137714Y-55554571D01*
X87042476Y-55602190D01*
X86661523Y-55602190D01*
X153951462Y-52030380D02*
X153951462Y-52744666D01*
X153903843Y-52887523D01*
X153808605Y-52982761D01*
X153665748Y-53030380D01*
X153570510Y-53030380D01*
X154618129Y-52030380D02*
X154808605Y-52030380D01*
X154903843Y-52078000D01*
X154999081Y-52173238D01*
X155046700Y-52363714D01*
X155046700Y-52697047D01*
X154999081Y-52887523D01*
X154903843Y-52982761D01*
X154808605Y-53030380D01*
X154618129Y-53030380D01*
X154522891Y-52982761D01*
X154427653Y-52887523D01*
X154380034Y-52697047D01*
X154380034Y-52363714D01*
X154427653Y-52173238D01*
X154522891Y-52078000D01*
X154618129Y-52030380D01*
X155475272Y-53030380D02*
X155475272Y-52030380D01*
X155951462Y-53030380D02*
X155951462Y-52030380D01*
X156522891Y-53030380D01*
X156522891Y-52030380D01*
X153975272Y-89574666D02*
X154451462Y-89574666D01*
X153880034Y-89860380D02*
X154213367Y-88860380D01*
X154546700Y-89860380D01*
X155451462Y-89765142D02*
X155403843Y-89812761D01*
X155260986Y-89860380D01*
X155165748Y-89860380D01*
X155022891Y-89812761D01*
X154927653Y-89717523D01*
X154880034Y-89622285D01*
X154832415Y-89431809D01*
X154832415Y-89288952D01*
X154880034Y-89098476D01*
X154927653Y-89003238D01*
X155022891Y-88908000D01*
X155165748Y-88860380D01*
X155260986Y-88860380D01*
X155403843Y-88908000D01*
X155451462Y-88955619D01*
X155737177Y-88860380D02*
X156308605Y-88860380D01*
X156022891Y-89860380D02*
X156022891Y-88860380D01*
X130213129Y-71314392D02*
X130165510Y-71362011D01*
X130022653Y-71409630D01*
X129927415Y-71409630D01*
X129784558Y-71362011D01*
X129689320Y-71266773D01*
X129641700Y-71171535D01*
X129594081Y-70981059D01*
X129594081Y-70838202D01*
X129641700Y-70647726D01*
X129689320Y-70552488D01*
X129784558Y-70457250D01*
X129927415Y-70409630D01*
X130022653Y-70409630D01*
X130165510Y-70457250D01*
X130213129Y-70504869D01*
X131213129Y-71314392D02*
X131165510Y-71362011D01*
X131022653Y-71409630D01*
X130927415Y-71409630D01*
X130784558Y-71362011D01*
X130689320Y-71266773D01*
X130641700Y-71171535D01*
X130594081Y-70981059D01*
X130594081Y-70838202D01*
X130641700Y-70647726D01*
X130689320Y-70552488D01*
X130784558Y-70457250D01*
X130927415Y-70409630D01*
X131022653Y-70409630D01*
X131165510Y-70457250D01*
X131213129Y-70504869D01*
X131594081Y-70504869D02*
X131641700Y-70457250D01*
X131736939Y-70409630D01*
X131975034Y-70409630D01*
X132070272Y-70457250D01*
X132117891Y-70504869D01*
X132165510Y-70600107D01*
X132165510Y-70695345D01*
X132117891Y-70838202D01*
X131546462Y-71409630D01*
X132165510Y-71409630D01*
X133070272Y-70409630D02*
X132594081Y-70409630D01*
X132546462Y-70885821D01*
X132594081Y-70838202D01*
X132689320Y-70790583D01*
X132927415Y-70790583D01*
X133022653Y-70838202D01*
X133070272Y-70885821D01*
X133117891Y-70981059D01*
X133117891Y-71219154D01*
X133070272Y-71314392D01*
X133022653Y-71362011D01*
X132927415Y-71409630D01*
X132689320Y-71409630D01*
X132594081Y-71362011D01*
X132546462Y-71314392D01*
X133451224Y-70409630D02*
X134070272Y-70409630D01*
X133736939Y-70790583D01*
X133879796Y-70790583D01*
X133975034Y-70838202D01*
X134022653Y-70885821D01*
X134070272Y-70981059D01*
X134070272Y-71219154D01*
X134022653Y-71314392D01*
X133975034Y-71362011D01*
X133879796Y-71409630D01*
X133594081Y-71409630D01*
X133498843Y-71362011D01*
X133451224Y-71314392D01*
X134641700Y-70838202D02*
X134546462Y-70790583D01*
X134498843Y-70742964D01*
X134451224Y-70647726D01*
X134451224Y-70600107D01*
X134498843Y-70504869D01*
X134546462Y-70457250D01*
X134641700Y-70409630D01*
X134832177Y-70409630D01*
X134927415Y-70457250D01*
X134975034Y-70504869D01*
X135022653Y-70600107D01*
X135022653Y-70647726D01*
X134975034Y-70742964D01*
X134927415Y-70790583D01*
X134832177Y-70838202D01*
X134641700Y-70838202D01*
X134546462Y-70885821D01*
X134498843Y-70933440D01*
X134451224Y-71028678D01*
X134451224Y-71219154D01*
X134498843Y-71314392D01*
X134546462Y-71362011D01*
X134641700Y-71409630D01*
X134832177Y-71409630D01*
X134927415Y-71362011D01*
X134975034Y-71314392D01*
X135022653Y-71219154D01*
X135022653Y-71028678D01*
X134975034Y-70933440D01*
X134927415Y-70885821D01*
X134832177Y-70838202D01*
X135451224Y-71028678D02*
X136213129Y-71028678D01*
X135832177Y-71409630D02*
X135832177Y-70647726D01*
X137260748Y-71314392D02*
X137213129Y-71362011D01*
X137070272Y-71409630D01*
X136975034Y-71409630D01*
X136832177Y-71362011D01*
X136736939Y-71266773D01*
X136689320Y-71171535D01*
X136641700Y-70981059D01*
X136641700Y-70838202D01*
X136689320Y-70647726D01*
X136736939Y-70552488D01*
X136832177Y-70457250D01*
X136975034Y-70409630D01*
X137070272Y-70409630D01*
X137213129Y-70457250D01*
X137260748Y-70504869D01*
X138260748Y-71314392D02*
X138213129Y-71362011D01*
X138070272Y-71409630D01*
X137975034Y-71409630D01*
X137832177Y-71362011D01*
X137736939Y-71266773D01*
X137689320Y-71171535D01*
X137641700Y-70981059D01*
X137641700Y-70838202D01*
X137689320Y-70647726D01*
X137736939Y-70552488D01*
X137832177Y-70457250D01*
X137975034Y-70409630D01*
X138070272Y-70409630D01*
X138213129Y-70457250D01*
X138260748Y-70504869D01*
X138641700Y-70504869D02*
X138689320Y-70457250D01*
X138784558Y-70409630D01*
X139022653Y-70409630D01*
X139117891Y-70457250D01*
X139165510Y-70504869D01*
X139213129Y-70600107D01*
X139213129Y-70695345D01*
X139165510Y-70838202D01*
X138594081Y-71409630D01*
X139213129Y-71409630D01*
X140117891Y-70409630D02*
X139641700Y-70409630D01*
X139594081Y-70885821D01*
X139641700Y-70838202D01*
X139736939Y-70790583D01*
X139975034Y-70790583D01*
X140070272Y-70838202D01*
X140117891Y-70885821D01*
X140165510Y-70981059D01*
X140165510Y-71219154D01*
X140117891Y-71314392D01*
X140070272Y-71362011D01*
X139975034Y-71409630D01*
X139736939Y-71409630D01*
X139641700Y-71362011D01*
X139594081Y-71314392D01*
X140641700Y-71409630D02*
X140832177Y-71409630D01*
X140927415Y-71362011D01*
X140975034Y-71314392D01*
X141070272Y-71171535D01*
X141117891Y-70981059D01*
X141117891Y-70600107D01*
X141070272Y-70504869D01*
X141022653Y-70457250D01*
X140927415Y-70409630D01*
X140736939Y-70409630D01*
X140641700Y-70457250D01*
X140594081Y-70504869D01*
X140546462Y-70600107D01*
X140546462Y-70838202D01*
X140594081Y-70933440D01*
X140641700Y-70981059D01*
X140736939Y-71028678D01*
X140927415Y-71028678D01*
X141022653Y-70981059D01*
X141070272Y-70933440D01*
X141117891Y-70838202D01*
X141498843Y-70504869D02*
X141546462Y-70457250D01*
X141641700Y-70409630D01*
X141879796Y-70409630D01*
X141975034Y-70457250D01*
X142022653Y-70504869D01*
X142070272Y-70600107D01*
X142070272Y-70695345D01*
X142022653Y-70838202D01*
X141451224Y-71409630D01*
X142070272Y-71409630D01*
X143260748Y-71409630D02*
X143260748Y-70409630D01*
X143594081Y-71123916D01*
X143927415Y-70409630D01*
X143927415Y-71409630D01*
X144594081Y-70409630D02*
X144784558Y-70409630D01*
X144879796Y-70457250D01*
X144975034Y-70552488D01*
X145022653Y-70742964D01*
X145022653Y-71076297D01*
X144975034Y-71266773D01*
X144879796Y-71362011D01*
X144784558Y-71409630D01*
X144594081Y-71409630D01*
X144498843Y-71362011D01*
X144403605Y-71266773D01*
X144355986Y-71076297D01*
X144355986Y-70742964D01*
X144403605Y-70552488D01*
X144498843Y-70457250D01*
X144594081Y-70409630D01*
X145451224Y-71409630D02*
X145451224Y-70409630D01*
X145689320Y-70409630D01*
X145832177Y-70457250D01*
X145927415Y-70552488D01*
X145975034Y-70647726D01*
X146022653Y-70838202D01*
X146022653Y-70981059D01*
X145975034Y-71171535D01*
X145927415Y-71266773D01*
X145832177Y-71362011D01*
X145689320Y-71409630D01*
X145451224Y-71409630D01*
X146451224Y-70409630D02*
X146451224Y-71219154D01*
X146498843Y-71314392D01*
X146546462Y-71362011D01*
X146641700Y-71409630D01*
X146832177Y-71409630D01*
X146927415Y-71362011D01*
X146975034Y-71314392D01*
X147022653Y-71219154D01*
X147022653Y-70409630D01*
X147975034Y-71409630D02*
X147498843Y-71409630D01*
X147498843Y-70409630D01*
X148308367Y-70885821D02*
X148641700Y-70885821D01*
X148784558Y-71409630D02*
X148308367Y-71409630D01*
X148308367Y-70409630D01*
X148784558Y-70409630D01*
X82367619Y-79827380D02*
X82034285Y-79351190D01*
X81796190Y-79827380D02*
X81796190Y-78827380D01*
X82177142Y-78827380D01*
X82272380Y-78875000D01*
X82320000Y-78922619D01*
X82367619Y-79017857D01*
X82367619Y-79160714D01*
X82320000Y-79255952D01*
X82272380Y-79303571D01*
X82177142Y-79351190D01*
X81796190Y-79351190D01*
X82796190Y-79303571D02*
X83129523Y-79303571D01*
X83272380Y-79827380D02*
X82796190Y-79827380D01*
X82796190Y-78827380D01*
X83272380Y-78827380D01*
X83653333Y-79779761D02*
X83796190Y-79827380D01*
X84034285Y-79827380D01*
X84129523Y-79779761D01*
X84177142Y-79732142D01*
X84224761Y-79636904D01*
X84224761Y-79541666D01*
X84177142Y-79446428D01*
X84129523Y-79398809D01*
X84034285Y-79351190D01*
X83843809Y-79303571D01*
X83748571Y-79255952D01*
X83700952Y-79208333D01*
X83653333Y-79113095D01*
X83653333Y-79017857D01*
X83700952Y-78922619D01*
X83748571Y-78875000D01*
X83843809Y-78827380D01*
X84081904Y-78827380D01*
X84224761Y-78875000D01*
X84653333Y-79303571D02*
X84986666Y-79303571D01*
X85129523Y-79827380D02*
X84653333Y-79827380D01*
X84653333Y-78827380D01*
X85129523Y-78827380D01*
X85415238Y-78827380D02*
X85986666Y-78827380D01*
X85700952Y-79827380D02*
X85700952Y-78827380D01*
%LPC*%
D13*
G36*
X112849123Y-58557352D02*
G01*
X112893515Y-58563937D01*
X112937047Y-58574841D01*
X112979301Y-58589960D01*
X113019870Y-58609147D01*
X113058362Y-58632219D01*
X113094408Y-58658952D01*
X113127660Y-58689090D01*
X113157798Y-58722342D01*
X113184531Y-58758388D01*
X113207603Y-58796880D01*
X113226790Y-58837449D01*
X113241909Y-58879703D01*
X113252813Y-58923235D01*
X113259398Y-58967627D01*
X113261600Y-59012450D01*
X113261600Y-59927050D01*
X113259398Y-59971873D01*
X113252813Y-60016265D01*
X113241909Y-60059797D01*
X113226790Y-60102051D01*
X113207603Y-60142620D01*
X113184531Y-60181112D01*
X113157798Y-60217158D01*
X113127660Y-60250410D01*
X113094408Y-60280548D01*
X113058362Y-60307281D01*
X113019870Y-60330353D01*
X112979301Y-60349540D01*
X112937047Y-60364659D01*
X112893515Y-60375563D01*
X112849123Y-60382148D01*
X112804300Y-60384350D01*
X111889700Y-60384350D01*
X111844877Y-60382148D01*
X111800485Y-60375563D01*
X111756953Y-60364659D01*
X111714699Y-60349540D01*
X111674130Y-60330353D01*
X111635638Y-60307281D01*
X111599592Y-60280548D01*
X111566340Y-60250410D01*
X111536202Y-60217158D01*
X111509469Y-60181112D01*
X111486397Y-60142620D01*
X111467210Y-60102051D01*
X111452091Y-60059797D01*
X111441187Y-60016265D01*
X111434602Y-59971873D01*
X111432400Y-59927050D01*
X111432400Y-59012450D01*
X111434602Y-58967627D01*
X111441187Y-58923235D01*
X111452091Y-58879703D01*
X111467210Y-58837449D01*
X111486397Y-58796880D01*
X111509469Y-58758388D01*
X111536202Y-58722342D01*
X111566340Y-58689090D01*
X111599592Y-58658952D01*
X111635638Y-58632219D01*
X111674130Y-58609147D01*
X111714699Y-58589960D01*
X111756953Y-58574841D01*
X111800485Y-58563937D01*
X111844877Y-58557352D01*
X111889700Y-58555150D01*
X112804300Y-58555150D01*
X112849123Y-58557352D01*
G37*
D14*
X114887000Y-59469750D03*
D13*
G36*
X112849123Y-61097352D02*
G01*
X112893515Y-61103937D01*
X112937047Y-61114841D01*
X112979301Y-61129960D01*
X113019870Y-61149147D01*
X113058362Y-61172219D01*
X113094408Y-61198952D01*
X113127660Y-61229090D01*
X113157798Y-61262342D01*
X113184531Y-61298388D01*
X113207603Y-61336880D01*
X113226790Y-61377449D01*
X113241909Y-61419703D01*
X113252813Y-61463235D01*
X113259398Y-61507627D01*
X113261600Y-61552450D01*
X113261600Y-62467050D01*
X113259398Y-62511873D01*
X113252813Y-62556265D01*
X113241909Y-62599797D01*
X113226790Y-62642051D01*
X113207603Y-62682620D01*
X113184531Y-62721112D01*
X113157798Y-62757158D01*
X113127660Y-62790410D01*
X113094408Y-62820548D01*
X113058362Y-62847281D01*
X113019870Y-62870353D01*
X112979301Y-62889540D01*
X112937047Y-62904659D01*
X112893515Y-62915563D01*
X112849123Y-62922148D01*
X112804300Y-62924350D01*
X111889700Y-62924350D01*
X111844877Y-62922148D01*
X111800485Y-62915563D01*
X111756953Y-62904659D01*
X111714699Y-62889540D01*
X111674130Y-62870353D01*
X111635638Y-62847281D01*
X111599592Y-62820548D01*
X111566340Y-62790410D01*
X111536202Y-62757158D01*
X111509469Y-62721112D01*
X111486397Y-62682620D01*
X111467210Y-62642051D01*
X111452091Y-62599797D01*
X111441187Y-62556265D01*
X111434602Y-62511873D01*
X111432400Y-62467050D01*
X111432400Y-61552450D01*
X111434602Y-61507627D01*
X111441187Y-61463235D01*
X111452091Y-61419703D01*
X111467210Y-61377449D01*
X111486397Y-61336880D01*
X111509469Y-61298388D01*
X111536202Y-61262342D01*
X111566340Y-61229090D01*
X111599592Y-61198952D01*
X111635638Y-61172219D01*
X111674130Y-61149147D01*
X111714699Y-61129960D01*
X111756953Y-61114841D01*
X111800485Y-61103937D01*
X111844877Y-61097352D01*
X111889700Y-61095150D01*
X112804300Y-61095150D01*
X112849123Y-61097352D01*
G37*
D14*
X114887000Y-62009750D03*
D13*
G36*
X112849123Y-63637352D02*
G01*
X112893515Y-63643937D01*
X112937047Y-63654841D01*
X112979301Y-63669960D01*
X113019870Y-63689147D01*
X113058362Y-63712219D01*
X113094408Y-63738952D01*
X113127660Y-63769090D01*
X113157798Y-63802342D01*
X113184531Y-63838388D01*
X113207603Y-63876880D01*
X113226790Y-63917449D01*
X113241909Y-63959703D01*
X113252813Y-64003235D01*
X113259398Y-64047627D01*
X113261600Y-64092450D01*
X113261600Y-65007050D01*
X113259398Y-65051873D01*
X113252813Y-65096265D01*
X113241909Y-65139797D01*
X113226790Y-65182051D01*
X113207603Y-65222620D01*
X113184531Y-65261112D01*
X113157798Y-65297158D01*
X113127660Y-65330410D01*
X113094408Y-65360548D01*
X113058362Y-65387281D01*
X113019870Y-65410353D01*
X112979301Y-65429540D01*
X112937047Y-65444659D01*
X112893515Y-65455563D01*
X112849123Y-65462148D01*
X112804300Y-65464350D01*
X111889700Y-65464350D01*
X111844877Y-65462148D01*
X111800485Y-65455563D01*
X111756953Y-65444659D01*
X111714699Y-65429540D01*
X111674130Y-65410353D01*
X111635638Y-65387281D01*
X111599592Y-65360548D01*
X111566340Y-65330410D01*
X111536202Y-65297158D01*
X111509469Y-65261112D01*
X111486397Y-65222620D01*
X111467210Y-65182051D01*
X111452091Y-65139797D01*
X111441187Y-65096265D01*
X111434602Y-65051873D01*
X111432400Y-65007050D01*
X111432400Y-64092450D01*
X111434602Y-64047627D01*
X111441187Y-64003235D01*
X111452091Y-63959703D01*
X111467210Y-63917449D01*
X111486397Y-63876880D01*
X111509469Y-63838388D01*
X111536202Y-63802342D01*
X111566340Y-63769090D01*
X111599592Y-63738952D01*
X111635638Y-63712219D01*
X111674130Y-63689147D01*
X111714699Y-63669960D01*
X111756953Y-63654841D01*
X111800485Y-63643937D01*
X111844877Y-63637352D01*
X111889700Y-63635150D01*
X112804300Y-63635150D01*
X112849123Y-63637352D01*
G37*
D14*
X114887000Y-64549750D03*
D13*
G36*
X112849123Y-66177352D02*
G01*
X112893515Y-66183937D01*
X112937047Y-66194841D01*
X112979301Y-66209960D01*
X113019870Y-66229147D01*
X113058362Y-66252219D01*
X113094408Y-66278952D01*
X113127660Y-66309090D01*
X113157798Y-66342342D01*
X113184531Y-66378388D01*
X113207603Y-66416880D01*
X113226790Y-66457449D01*
X113241909Y-66499703D01*
X113252813Y-66543235D01*
X113259398Y-66587627D01*
X113261600Y-66632450D01*
X113261600Y-67547050D01*
X113259398Y-67591873D01*
X113252813Y-67636265D01*
X113241909Y-67679797D01*
X113226790Y-67722051D01*
X113207603Y-67762620D01*
X113184531Y-67801112D01*
X113157798Y-67837158D01*
X113127660Y-67870410D01*
X113094408Y-67900548D01*
X113058362Y-67927281D01*
X113019870Y-67950353D01*
X112979301Y-67969540D01*
X112937047Y-67984659D01*
X112893515Y-67995563D01*
X112849123Y-68002148D01*
X112804300Y-68004350D01*
X111889700Y-68004350D01*
X111844877Y-68002148D01*
X111800485Y-67995563D01*
X111756953Y-67984659D01*
X111714699Y-67969540D01*
X111674130Y-67950353D01*
X111635638Y-67927281D01*
X111599592Y-67900548D01*
X111566340Y-67870410D01*
X111536202Y-67837158D01*
X111509469Y-67801112D01*
X111486397Y-67762620D01*
X111467210Y-67722051D01*
X111452091Y-67679797D01*
X111441187Y-67636265D01*
X111434602Y-67591873D01*
X111432400Y-67547050D01*
X111432400Y-66632450D01*
X111434602Y-66587627D01*
X111441187Y-66543235D01*
X111452091Y-66499703D01*
X111467210Y-66457449D01*
X111486397Y-66416880D01*
X111509469Y-66378388D01*
X111536202Y-66342342D01*
X111566340Y-66309090D01*
X111599592Y-66278952D01*
X111635638Y-66252219D01*
X111674130Y-66229147D01*
X111714699Y-66209960D01*
X111756953Y-66194841D01*
X111800485Y-66183937D01*
X111844877Y-66177352D01*
X111889700Y-66175150D01*
X112804300Y-66175150D01*
X112849123Y-66177352D01*
G37*
D14*
X114887000Y-67089750D03*
D13*
G36*
X112849123Y-68717352D02*
G01*
X112893515Y-68723937D01*
X112937047Y-68734841D01*
X112979301Y-68749960D01*
X113019870Y-68769147D01*
X113058362Y-68792219D01*
X113094408Y-68818952D01*
X113127660Y-68849090D01*
X113157798Y-68882342D01*
X113184531Y-68918388D01*
X113207603Y-68956880D01*
X113226790Y-68997449D01*
X113241909Y-69039703D01*
X113252813Y-69083235D01*
X113259398Y-69127627D01*
X113261600Y-69172450D01*
X113261600Y-70087050D01*
X113259398Y-70131873D01*
X113252813Y-70176265D01*
X113241909Y-70219797D01*
X113226790Y-70262051D01*
X113207603Y-70302620D01*
X113184531Y-70341112D01*
X113157798Y-70377158D01*
X113127660Y-70410410D01*
X113094408Y-70440548D01*
X113058362Y-70467281D01*
X113019870Y-70490353D01*
X112979301Y-70509540D01*
X112937047Y-70524659D01*
X112893515Y-70535563D01*
X112849123Y-70542148D01*
X112804300Y-70544350D01*
X111889700Y-70544350D01*
X111844877Y-70542148D01*
X111800485Y-70535563D01*
X111756953Y-70524659D01*
X111714699Y-70509540D01*
X111674130Y-70490353D01*
X111635638Y-70467281D01*
X111599592Y-70440548D01*
X111566340Y-70410410D01*
X111536202Y-70377158D01*
X111509469Y-70341112D01*
X111486397Y-70302620D01*
X111467210Y-70262051D01*
X111452091Y-70219797D01*
X111441187Y-70176265D01*
X111434602Y-70131873D01*
X111432400Y-70087050D01*
X111432400Y-69172450D01*
X111434602Y-69127627D01*
X111441187Y-69083235D01*
X111452091Y-69039703D01*
X111467210Y-68997449D01*
X111486397Y-68956880D01*
X111509469Y-68918388D01*
X111536202Y-68882342D01*
X111566340Y-68849090D01*
X111599592Y-68818952D01*
X111635638Y-68792219D01*
X111674130Y-68769147D01*
X111714699Y-68749960D01*
X111756953Y-68734841D01*
X111800485Y-68723937D01*
X111844877Y-68717352D01*
X111889700Y-68715150D01*
X112804300Y-68715150D01*
X112849123Y-68717352D01*
G37*
D14*
X114887000Y-69629750D03*
D13*
G36*
X112849123Y-71257352D02*
G01*
X112893515Y-71263937D01*
X112937047Y-71274841D01*
X112979301Y-71289960D01*
X113019870Y-71309147D01*
X113058362Y-71332219D01*
X113094408Y-71358952D01*
X113127660Y-71389090D01*
X113157798Y-71422342D01*
X113184531Y-71458388D01*
X113207603Y-71496880D01*
X113226790Y-71537449D01*
X113241909Y-71579703D01*
X113252813Y-71623235D01*
X113259398Y-71667627D01*
X113261600Y-71712450D01*
X113261600Y-72627050D01*
X113259398Y-72671873D01*
X113252813Y-72716265D01*
X113241909Y-72759797D01*
X113226790Y-72802051D01*
X113207603Y-72842620D01*
X113184531Y-72881112D01*
X113157798Y-72917158D01*
X113127660Y-72950410D01*
X113094408Y-72980548D01*
X113058362Y-73007281D01*
X113019870Y-73030353D01*
X112979301Y-73049540D01*
X112937047Y-73064659D01*
X112893515Y-73075563D01*
X112849123Y-73082148D01*
X112804300Y-73084350D01*
X111889700Y-73084350D01*
X111844877Y-73082148D01*
X111800485Y-73075563D01*
X111756953Y-73064659D01*
X111714699Y-73049540D01*
X111674130Y-73030353D01*
X111635638Y-73007281D01*
X111599592Y-72980548D01*
X111566340Y-72950410D01*
X111536202Y-72917158D01*
X111509469Y-72881112D01*
X111486397Y-72842620D01*
X111467210Y-72802051D01*
X111452091Y-72759797D01*
X111441187Y-72716265D01*
X111434602Y-72671873D01*
X111432400Y-72627050D01*
X111432400Y-71712450D01*
X111434602Y-71667627D01*
X111441187Y-71623235D01*
X111452091Y-71579703D01*
X111467210Y-71537449D01*
X111486397Y-71496880D01*
X111509469Y-71458388D01*
X111536202Y-71422342D01*
X111566340Y-71389090D01*
X111599592Y-71358952D01*
X111635638Y-71332219D01*
X111674130Y-71309147D01*
X111714699Y-71289960D01*
X111756953Y-71274841D01*
X111800485Y-71263937D01*
X111844877Y-71257352D01*
X111889700Y-71255150D01*
X112804300Y-71255150D01*
X112849123Y-71257352D01*
G37*
D14*
X114887000Y-72169750D03*
D13*
G36*
X112849123Y-73797352D02*
G01*
X112893515Y-73803937D01*
X112937047Y-73814841D01*
X112979301Y-73829960D01*
X113019870Y-73849147D01*
X113058362Y-73872219D01*
X113094408Y-73898952D01*
X113127660Y-73929090D01*
X113157798Y-73962342D01*
X113184531Y-73998388D01*
X113207603Y-74036880D01*
X113226790Y-74077449D01*
X113241909Y-74119703D01*
X113252813Y-74163235D01*
X113259398Y-74207627D01*
X113261600Y-74252450D01*
X113261600Y-75167050D01*
X113259398Y-75211873D01*
X113252813Y-75256265D01*
X113241909Y-75299797D01*
X113226790Y-75342051D01*
X113207603Y-75382620D01*
X113184531Y-75421112D01*
X113157798Y-75457158D01*
X113127660Y-75490410D01*
X113094408Y-75520548D01*
X113058362Y-75547281D01*
X113019870Y-75570353D01*
X112979301Y-75589540D01*
X112937047Y-75604659D01*
X112893515Y-75615563D01*
X112849123Y-75622148D01*
X112804300Y-75624350D01*
X111889700Y-75624350D01*
X111844877Y-75622148D01*
X111800485Y-75615563D01*
X111756953Y-75604659D01*
X111714699Y-75589540D01*
X111674130Y-75570353D01*
X111635638Y-75547281D01*
X111599592Y-75520548D01*
X111566340Y-75490410D01*
X111536202Y-75457158D01*
X111509469Y-75421112D01*
X111486397Y-75382620D01*
X111467210Y-75342051D01*
X111452091Y-75299797D01*
X111441187Y-75256265D01*
X111434602Y-75211873D01*
X111432400Y-75167050D01*
X111432400Y-74252450D01*
X111434602Y-74207627D01*
X111441187Y-74163235D01*
X111452091Y-74119703D01*
X111467210Y-74077449D01*
X111486397Y-74036880D01*
X111509469Y-73998388D01*
X111536202Y-73962342D01*
X111566340Y-73929090D01*
X111599592Y-73898952D01*
X111635638Y-73872219D01*
X111674130Y-73849147D01*
X111714699Y-73829960D01*
X111756953Y-73814841D01*
X111800485Y-73803937D01*
X111844877Y-73797352D01*
X111889700Y-73795150D01*
X112804300Y-73795150D01*
X112849123Y-73797352D01*
G37*
D14*
X114887000Y-74709750D03*
D13*
G36*
X112849123Y-76337352D02*
G01*
X112893515Y-76343937D01*
X112937047Y-76354841D01*
X112979301Y-76369960D01*
X113019870Y-76389147D01*
X113058362Y-76412219D01*
X113094408Y-76438952D01*
X113127660Y-76469090D01*
X113157798Y-76502342D01*
X113184531Y-76538388D01*
X113207603Y-76576880D01*
X113226790Y-76617449D01*
X113241909Y-76659703D01*
X113252813Y-76703235D01*
X113259398Y-76747627D01*
X113261600Y-76792450D01*
X113261600Y-77707050D01*
X113259398Y-77751873D01*
X113252813Y-77796265D01*
X113241909Y-77839797D01*
X113226790Y-77882051D01*
X113207603Y-77922620D01*
X113184531Y-77961112D01*
X113157798Y-77997158D01*
X113127660Y-78030410D01*
X113094408Y-78060548D01*
X113058362Y-78087281D01*
X113019870Y-78110353D01*
X112979301Y-78129540D01*
X112937047Y-78144659D01*
X112893515Y-78155563D01*
X112849123Y-78162148D01*
X112804300Y-78164350D01*
X111889700Y-78164350D01*
X111844877Y-78162148D01*
X111800485Y-78155563D01*
X111756953Y-78144659D01*
X111714699Y-78129540D01*
X111674130Y-78110353D01*
X111635638Y-78087281D01*
X111599592Y-78060548D01*
X111566340Y-78030410D01*
X111536202Y-77997158D01*
X111509469Y-77961112D01*
X111486397Y-77922620D01*
X111467210Y-77882051D01*
X111452091Y-77839797D01*
X111441187Y-77796265D01*
X111434602Y-77751873D01*
X111432400Y-77707050D01*
X111432400Y-76792450D01*
X111434602Y-76747627D01*
X111441187Y-76703235D01*
X111452091Y-76659703D01*
X111467210Y-76617449D01*
X111486397Y-76576880D01*
X111509469Y-76538388D01*
X111536202Y-76502342D01*
X111566340Y-76469090D01*
X111599592Y-76438952D01*
X111635638Y-76412219D01*
X111674130Y-76389147D01*
X111714699Y-76369960D01*
X111756953Y-76354841D01*
X111800485Y-76343937D01*
X111844877Y-76337352D01*
X111889700Y-76335150D01*
X112804300Y-76335150D01*
X112849123Y-76337352D01*
G37*
D14*
X114887000Y-77249750D03*
D13*
G36*
X112849123Y-78877352D02*
G01*
X112893515Y-78883937D01*
X112937047Y-78894841D01*
X112979301Y-78909960D01*
X113019870Y-78929147D01*
X113058362Y-78952219D01*
X113094408Y-78978952D01*
X113127660Y-79009090D01*
X113157798Y-79042342D01*
X113184531Y-79078388D01*
X113207603Y-79116880D01*
X113226790Y-79157449D01*
X113241909Y-79199703D01*
X113252813Y-79243235D01*
X113259398Y-79287627D01*
X113261600Y-79332450D01*
X113261600Y-80247050D01*
X113259398Y-80291873D01*
X113252813Y-80336265D01*
X113241909Y-80379797D01*
X113226790Y-80422051D01*
X113207603Y-80462620D01*
X113184531Y-80501112D01*
X113157798Y-80537158D01*
X113127660Y-80570410D01*
X113094408Y-80600548D01*
X113058362Y-80627281D01*
X113019870Y-80650353D01*
X112979301Y-80669540D01*
X112937047Y-80684659D01*
X112893515Y-80695563D01*
X112849123Y-80702148D01*
X112804300Y-80704350D01*
X111889700Y-80704350D01*
X111844877Y-80702148D01*
X111800485Y-80695563D01*
X111756953Y-80684659D01*
X111714699Y-80669540D01*
X111674130Y-80650353D01*
X111635638Y-80627281D01*
X111599592Y-80600548D01*
X111566340Y-80570410D01*
X111536202Y-80537158D01*
X111509469Y-80501112D01*
X111486397Y-80462620D01*
X111467210Y-80422051D01*
X111452091Y-80379797D01*
X111441187Y-80336265D01*
X111434602Y-80291873D01*
X111432400Y-80247050D01*
X111432400Y-79332450D01*
X111434602Y-79287627D01*
X111441187Y-79243235D01*
X111452091Y-79199703D01*
X111467210Y-79157449D01*
X111486397Y-79116880D01*
X111509469Y-79078388D01*
X111536202Y-79042342D01*
X111566340Y-79009090D01*
X111599592Y-78978952D01*
X111635638Y-78952219D01*
X111674130Y-78929147D01*
X111714699Y-78909960D01*
X111756953Y-78894841D01*
X111800485Y-78883937D01*
X111844877Y-78877352D01*
X111889700Y-78875150D01*
X112804300Y-78875150D01*
X112849123Y-78877352D01*
G37*
D14*
X114887000Y-79789750D03*
X112347000Y-82329750D03*
D15*
X114887000Y-82329750D03*
D16*
X88011000Y-68049750D03*
X88011000Y-68899750D03*
X88011000Y-69749750D03*
X88011000Y-70599750D03*
X88011000Y-71449750D03*
X88011000Y-72299750D03*
X88011000Y-73149750D03*
X88011000Y-73999750D03*
X86661000Y-68899750D03*
X86661000Y-70599750D03*
X86661000Y-69749750D03*
X86661000Y-68049750D03*
X86661000Y-72299750D03*
X86661000Y-73149750D03*
X86661000Y-73999750D03*
X86661000Y-71449750D03*
D17*
X87031000Y-66699750D03*
X87031000Y-75349750D03*
D18*
X83651000Y-66699750D03*
X83651000Y-75349750D03*
D13*
G36*
X102030363Y-82017040D02*
G01*
X102056369Y-82020898D01*
X102081871Y-82027285D01*
X102106624Y-82036142D01*
X102130390Y-82047383D01*
X102152939Y-82060898D01*
X102174056Y-82076559D01*
X102193535Y-82094215D01*
X102211191Y-82113694D01*
X102226852Y-82134811D01*
X102240367Y-82157360D01*
X102251608Y-82181126D01*
X102260465Y-82205879D01*
X102266852Y-82231381D01*
X102270710Y-82257387D01*
X102272000Y-82283645D01*
X102272000Y-83274855D01*
X102270710Y-83301113D01*
X102266852Y-83327119D01*
X102260465Y-83352621D01*
X102251608Y-83377374D01*
X102240367Y-83401140D01*
X102226852Y-83423689D01*
X102211191Y-83444806D01*
X102193535Y-83464285D01*
X102174056Y-83481941D01*
X102152939Y-83497602D01*
X102130390Y-83511117D01*
X102106624Y-83522358D01*
X102081871Y-83531215D01*
X102056369Y-83537602D01*
X102030363Y-83541460D01*
X102004105Y-83542750D01*
X100687895Y-83542750D01*
X100661637Y-83541460D01*
X100635631Y-83537602D01*
X100610129Y-83531215D01*
X100585376Y-83522358D01*
X100561610Y-83511117D01*
X100539061Y-83497602D01*
X100517944Y-83481941D01*
X100498465Y-83464285D01*
X100480809Y-83444806D01*
X100465148Y-83423689D01*
X100451633Y-83401140D01*
X100440392Y-83377374D01*
X100431535Y-83352621D01*
X100425148Y-83327119D01*
X100421290Y-83301113D01*
X100420000Y-83274855D01*
X100420000Y-82283645D01*
X100421290Y-82257387D01*
X100425148Y-82231381D01*
X100431535Y-82205879D01*
X100440392Y-82181126D01*
X100451633Y-82157360D01*
X100465148Y-82134811D01*
X100480809Y-82113694D01*
X100498465Y-82094215D01*
X100517944Y-82076559D01*
X100539061Y-82060898D01*
X100561610Y-82047383D01*
X100585376Y-82036142D01*
X100610129Y-82027285D01*
X100635631Y-82020898D01*
X100661637Y-82017040D01*
X100687895Y-82015750D01*
X102004105Y-82015750D01*
X102030363Y-82017040D01*
G37*
G36*
X102030363Y-79042040D02*
G01*
X102056369Y-79045898D01*
X102081871Y-79052285D01*
X102106624Y-79061142D01*
X102130390Y-79072383D01*
X102152939Y-79085898D01*
X102174056Y-79101559D01*
X102193535Y-79119215D01*
X102211191Y-79138694D01*
X102226852Y-79159811D01*
X102240367Y-79182360D01*
X102251608Y-79206126D01*
X102260465Y-79230879D01*
X102266852Y-79256381D01*
X102270710Y-79282387D01*
X102272000Y-79308645D01*
X102272000Y-80299855D01*
X102270710Y-80326113D01*
X102266852Y-80352119D01*
X102260465Y-80377621D01*
X102251608Y-80402374D01*
X102240367Y-80426140D01*
X102226852Y-80448689D01*
X102211191Y-80469806D01*
X102193535Y-80489285D01*
X102174056Y-80506941D01*
X102152939Y-80522602D01*
X102130390Y-80536117D01*
X102106624Y-80547358D01*
X102081871Y-80556215D01*
X102056369Y-80562602D01*
X102030363Y-80566460D01*
X102004105Y-80567750D01*
X100687895Y-80567750D01*
X100661637Y-80566460D01*
X100635631Y-80562602D01*
X100610129Y-80556215D01*
X100585376Y-80547358D01*
X100561610Y-80536117D01*
X100539061Y-80522602D01*
X100517944Y-80506941D01*
X100498465Y-80489285D01*
X100480809Y-80469806D01*
X100465148Y-80448689D01*
X100451633Y-80426140D01*
X100440392Y-80402374D01*
X100431535Y-80377621D01*
X100425148Y-80352119D01*
X100421290Y-80326113D01*
X100420000Y-80299855D01*
X100420000Y-79308645D01*
X100421290Y-79282387D01*
X100425148Y-79256381D01*
X100431535Y-79230879D01*
X100440392Y-79206126D01*
X100451633Y-79182360D01*
X100465148Y-79159811D01*
X100480809Y-79138694D01*
X100498465Y-79119215D01*
X100517944Y-79101559D01*
X100539061Y-79085898D01*
X100561610Y-79072383D01*
X100585376Y-79061142D01*
X100610129Y-79052285D01*
X100635631Y-79045898D01*
X100661637Y-79042040D01*
X100687895Y-79040750D01*
X102004105Y-79040750D01*
X102030363Y-79042040D01*
G37*
G36*
X95517863Y-65115290D02*
G01*
X95543869Y-65119148D01*
X95569371Y-65125535D01*
X95594124Y-65134392D01*
X95617890Y-65145633D01*
X95640439Y-65159148D01*
X95661556Y-65174809D01*
X95681035Y-65192465D01*
X95698691Y-65211944D01*
X95714352Y-65233061D01*
X95727867Y-65255610D01*
X95739108Y-65279376D01*
X95747965Y-65304129D01*
X95754352Y-65329631D01*
X95758210Y-65355637D01*
X95759500Y-65381895D01*
X95759500Y-66698105D01*
X95758210Y-66724363D01*
X95754352Y-66750369D01*
X95747965Y-66775871D01*
X95739108Y-66800624D01*
X95727867Y-66824390D01*
X95714352Y-66846939D01*
X95698691Y-66868056D01*
X95681035Y-66887535D01*
X95661556Y-66905191D01*
X95640439Y-66920852D01*
X95617890Y-66934367D01*
X95594124Y-66945608D01*
X95569371Y-66954465D01*
X95543869Y-66960852D01*
X95517863Y-66964710D01*
X95491605Y-66966000D01*
X94500395Y-66966000D01*
X94474137Y-66964710D01*
X94448131Y-66960852D01*
X94422629Y-66954465D01*
X94397876Y-66945608D01*
X94374110Y-66934367D01*
X94351561Y-66920852D01*
X94330444Y-66905191D01*
X94310965Y-66887535D01*
X94293309Y-66868056D01*
X94277648Y-66846939D01*
X94264133Y-66824390D01*
X94252892Y-66800624D01*
X94244035Y-66775871D01*
X94237648Y-66750369D01*
X94233790Y-66724363D01*
X94232500Y-66698105D01*
X94232500Y-65381895D01*
X94233790Y-65355637D01*
X94237648Y-65329631D01*
X94244035Y-65304129D01*
X94252892Y-65279376D01*
X94264133Y-65255610D01*
X94277648Y-65233061D01*
X94293309Y-65211944D01*
X94310965Y-65192465D01*
X94330444Y-65174809D01*
X94351561Y-65159148D01*
X94374110Y-65145633D01*
X94397876Y-65134392D01*
X94422629Y-65125535D01*
X94448131Y-65119148D01*
X94474137Y-65115290D01*
X94500395Y-65114000D01*
X95491605Y-65114000D01*
X95517863Y-65115290D01*
G37*
G36*
X92542863Y-65115290D02*
G01*
X92568869Y-65119148D01*
X92594371Y-65125535D01*
X92619124Y-65134392D01*
X92642890Y-65145633D01*
X92665439Y-65159148D01*
X92686556Y-65174809D01*
X92706035Y-65192465D01*
X92723691Y-65211944D01*
X92739352Y-65233061D01*
X92752867Y-65255610D01*
X92764108Y-65279376D01*
X92772965Y-65304129D01*
X92779352Y-65329631D01*
X92783210Y-65355637D01*
X92784500Y-65381895D01*
X92784500Y-66698105D01*
X92783210Y-66724363D01*
X92779352Y-66750369D01*
X92772965Y-66775871D01*
X92764108Y-66800624D01*
X92752867Y-66824390D01*
X92739352Y-66846939D01*
X92723691Y-66868056D01*
X92706035Y-66887535D01*
X92686556Y-66905191D01*
X92665439Y-66920852D01*
X92642890Y-66934367D01*
X92619124Y-66945608D01*
X92594371Y-66954465D01*
X92568869Y-66960852D01*
X92542863Y-66964710D01*
X92516605Y-66966000D01*
X91525395Y-66966000D01*
X91499137Y-66964710D01*
X91473131Y-66960852D01*
X91447629Y-66954465D01*
X91422876Y-66945608D01*
X91399110Y-66934367D01*
X91376561Y-66920852D01*
X91355444Y-66905191D01*
X91335965Y-66887535D01*
X91318309Y-66868056D01*
X91302648Y-66846939D01*
X91289133Y-66824390D01*
X91277892Y-66800624D01*
X91269035Y-66775871D01*
X91262648Y-66750369D01*
X91258790Y-66724363D01*
X91257500Y-66698105D01*
X91257500Y-65381895D01*
X91258790Y-65355637D01*
X91262648Y-65329631D01*
X91269035Y-65304129D01*
X91277892Y-65279376D01*
X91289133Y-65255610D01*
X91302648Y-65233061D01*
X91318309Y-65211944D01*
X91335965Y-65192465D01*
X91355444Y-65174809D01*
X91376561Y-65159148D01*
X91399110Y-65145633D01*
X91422876Y-65134392D01*
X91447629Y-65125535D01*
X91473131Y-65119148D01*
X91499137Y-65115290D01*
X91525395Y-65114000D01*
X92516605Y-65114000D01*
X92542863Y-65115290D01*
G37*
G36*
X137366183Y-85689290D02*
G01*
X137392189Y-85693148D01*
X137417691Y-85699535D01*
X137442444Y-85708392D01*
X137466210Y-85719633D01*
X137488759Y-85733148D01*
X137509876Y-85748809D01*
X137529355Y-85766465D01*
X137547011Y-85785944D01*
X137562672Y-85807061D01*
X137576187Y-85829610D01*
X137587428Y-85853376D01*
X137596285Y-85878129D01*
X137602672Y-85903631D01*
X137606530Y-85929637D01*
X137607820Y-85955895D01*
X137607820Y-87272105D01*
X137606530Y-87298363D01*
X137602672Y-87324369D01*
X137596285Y-87349871D01*
X137587428Y-87374624D01*
X137576187Y-87398390D01*
X137562672Y-87420939D01*
X137547011Y-87442056D01*
X137529355Y-87461535D01*
X137509876Y-87479191D01*
X137488759Y-87494852D01*
X137466210Y-87508367D01*
X137442444Y-87519608D01*
X137417691Y-87528465D01*
X137392189Y-87534852D01*
X137366183Y-87538710D01*
X137339925Y-87540000D01*
X136348715Y-87540000D01*
X136322457Y-87538710D01*
X136296451Y-87534852D01*
X136270949Y-87528465D01*
X136246196Y-87519608D01*
X136222430Y-87508367D01*
X136199881Y-87494852D01*
X136178764Y-87479191D01*
X136159285Y-87461535D01*
X136141629Y-87442056D01*
X136125968Y-87420939D01*
X136112453Y-87398390D01*
X136101212Y-87374624D01*
X136092355Y-87349871D01*
X136085968Y-87324369D01*
X136082110Y-87298363D01*
X136080820Y-87272105D01*
X136080820Y-85955895D01*
X136082110Y-85929637D01*
X136085968Y-85903631D01*
X136092355Y-85878129D01*
X136101212Y-85853376D01*
X136112453Y-85829610D01*
X136125968Y-85807061D01*
X136141629Y-85785944D01*
X136159285Y-85766465D01*
X136178764Y-85748809D01*
X136199881Y-85733148D01*
X136222430Y-85719633D01*
X136246196Y-85708392D01*
X136270949Y-85699535D01*
X136296451Y-85693148D01*
X136322457Y-85689290D01*
X136348715Y-85688000D01*
X137339925Y-85688000D01*
X137366183Y-85689290D01*
G37*
G36*
X140341183Y-85689290D02*
G01*
X140367189Y-85693148D01*
X140392691Y-85699535D01*
X140417444Y-85708392D01*
X140441210Y-85719633D01*
X140463759Y-85733148D01*
X140484876Y-85748809D01*
X140504355Y-85766465D01*
X140522011Y-85785944D01*
X140537672Y-85807061D01*
X140551187Y-85829610D01*
X140562428Y-85853376D01*
X140571285Y-85878129D01*
X140577672Y-85903631D01*
X140581530Y-85929637D01*
X140582820Y-85955895D01*
X140582820Y-87272105D01*
X140581530Y-87298363D01*
X140577672Y-87324369D01*
X140571285Y-87349871D01*
X140562428Y-87374624D01*
X140551187Y-87398390D01*
X140537672Y-87420939D01*
X140522011Y-87442056D01*
X140504355Y-87461535D01*
X140484876Y-87479191D01*
X140463759Y-87494852D01*
X140441210Y-87508367D01*
X140417444Y-87519608D01*
X140392691Y-87528465D01*
X140367189Y-87534852D01*
X140341183Y-87538710D01*
X140314925Y-87540000D01*
X139323715Y-87540000D01*
X139297457Y-87538710D01*
X139271451Y-87534852D01*
X139245949Y-87528465D01*
X139221196Y-87519608D01*
X139197430Y-87508367D01*
X139174881Y-87494852D01*
X139153764Y-87479191D01*
X139134285Y-87461535D01*
X139116629Y-87442056D01*
X139100968Y-87420939D01*
X139087453Y-87398390D01*
X139076212Y-87374624D01*
X139067355Y-87349871D01*
X139060968Y-87324369D01*
X139057110Y-87298363D01*
X139055820Y-87272105D01*
X139055820Y-85955895D01*
X139057110Y-85929637D01*
X139060968Y-85903631D01*
X139067355Y-85878129D01*
X139076212Y-85853376D01*
X139087453Y-85829610D01*
X139100968Y-85807061D01*
X139116629Y-85785944D01*
X139134285Y-85766465D01*
X139153764Y-85748809D01*
X139174881Y-85733148D01*
X139197430Y-85719633D01*
X139221196Y-85708392D01*
X139245949Y-85699535D01*
X139271451Y-85693148D01*
X139297457Y-85689290D01*
X139323715Y-85688000D01*
X140314925Y-85688000D01*
X140341183Y-85689290D01*
G37*
G36*
X92542863Y-57495290D02*
G01*
X92568869Y-57499148D01*
X92594371Y-57505535D01*
X92619124Y-57514392D01*
X92642890Y-57525633D01*
X92665439Y-57539148D01*
X92686556Y-57554809D01*
X92706035Y-57572465D01*
X92723691Y-57591944D01*
X92739352Y-57613061D01*
X92752867Y-57635610D01*
X92764108Y-57659376D01*
X92772965Y-57684129D01*
X92779352Y-57709631D01*
X92783210Y-57735637D01*
X92784500Y-57761895D01*
X92784500Y-59078105D01*
X92783210Y-59104363D01*
X92779352Y-59130369D01*
X92772965Y-59155871D01*
X92764108Y-59180624D01*
X92752867Y-59204390D01*
X92739352Y-59226939D01*
X92723691Y-59248056D01*
X92706035Y-59267535D01*
X92686556Y-59285191D01*
X92665439Y-59300852D01*
X92642890Y-59314367D01*
X92619124Y-59325608D01*
X92594371Y-59334465D01*
X92568869Y-59340852D01*
X92542863Y-59344710D01*
X92516605Y-59346000D01*
X91525395Y-59346000D01*
X91499137Y-59344710D01*
X91473131Y-59340852D01*
X91447629Y-59334465D01*
X91422876Y-59325608D01*
X91399110Y-59314367D01*
X91376561Y-59300852D01*
X91355444Y-59285191D01*
X91335965Y-59267535D01*
X91318309Y-59248056D01*
X91302648Y-59226939D01*
X91289133Y-59204390D01*
X91277892Y-59180624D01*
X91269035Y-59155871D01*
X91262648Y-59130369D01*
X91258790Y-59104363D01*
X91257500Y-59078105D01*
X91257500Y-57761895D01*
X91258790Y-57735637D01*
X91262648Y-57709631D01*
X91269035Y-57684129D01*
X91277892Y-57659376D01*
X91289133Y-57635610D01*
X91302648Y-57613061D01*
X91318309Y-57591944D01*
X91335965Y-57572465D01*
X91355444Y-57554809D01*
X91376561Y-57539148D01*
X91399110Y-57525633D01*
X91422876Y-57514392D01*
X91447629Y-57505535D01*
X91473131Y-57499148D01*
X91499137Y-57495290D01*
X91525395Y-57494000D01*
X92516605Y-57494000D01*
X92542863Y-57495290D01*
G37*
G36*
X95517863Y-57495290D02*
G01*
X95543869Y-57499148D01*
X95569371Y-57505535D01*
X95594124Y-57514392D01*
X95617890Y-57525633D01*
X95640439Y-57539148D01*
X95661556Y-57554809D01*
X95681035Y-57572465D01*
X95698691Y-57591944D01*
X95714352Y-57613061D01*
X95727867Y-57635610D01*
X95739108Y-57659376D01*
X95747965Y-57684129D01*
X95754352Y-57709631D01*
X95758210Y-57735637D01*
X95759500Y-57761895D01*
X95759500Y-59078105D01*
X95758210Y-59104363D01*
X95754352Y-59130369D01*
X95747965Y-59155871D01*
X95739108Y-59180624D01*
X95727867Y-59204390D01*
X95714352Y-59226939D01*
X95698691Y-59248056D01*
X95681035Y-59267535D01*
X95661556Y-59285191D01*
X95640439Y-59300852D01*
X95617890Y-59314367D01*
X95594124Y-59325608D01*
X95569371Y-59334465D01*
X95543869Y-59340852D01*
X95517863Y-59344710D01*
X95491605Y-59346000D01*
X94500395Y-59346000D01*
X94474137Y-59344710D01*
X94448131Y-59340852D01*
X94422629Y-59334465D01*
X94397876Y-59325608D01*
X94374110Y-59314367D01*
X94351561Y-59300852D01*
X94330444Y-59285191D01*
X94310965Y-59267535D01*
X94293309Y-59248056D01*
X94277648Y-59226939D01*
X94264133Y-59204390D01*
X94252892Y-59180624D01*
X94244035Y-59155871D01*
X94237648Y-59130369D01*
X94233790Y-59104363D01*
X94232500Y-59078105D01*
X94232500Y-57761895D01*
X94233790Y-57735637D01*
X94237648Y-57709631D01*
X94244035Y-57684129D01*
X94252892Y-57659376D01*
X94264133Y-57635610D01*
X94277648Y-57613061D01*
X94293309Y-57591944D01*
X94310965Y-57572465D01*
X94330444Y-57554809D01*
X94351561Y-57539148D01*
X94374110Y-57525633D01*
X94397876Y-57514392D01*
X94422629Y-57505535D01*
X94448131Y-57499148D01*
X94474137Y-57495290D01*
X94500395Y-57494000D01*
X95491605Y-57494000D01*
X95517863Y-57495290D01*
G37*
G36*
X147328963Y-56910040D02*
G01*
X147354969Y-56913898D01*
X147380471Y-56920285D01*
X147405224Y-56929142D01*
X147428990Y-56940383D01*
X147451539Y-56953898D01*
X147472656Y-56969559D01*
X147492135Y-56987215D01*
X147509791Y-57006694D01*
X147525452Y-57027811D01*
X147538967Y-57050360D01*
X147550208Y-57074126D01*
X147559065Y-57098879D01*
X147565452Y-57124381D01*
X147569310Y-57150387D01*
X147570600Y-57176645D01*
X147570600Y-58492855D01*
X147569310Y-58519113D01*
X147565452Y-58545119D01*
X147559065Y-58570621D01*
X147550208Y-58595374D01*
X147538967Y-58619140D01*
X147525452Y-58641689D01*
X147509791Y-58662806D01*
X147492135Y-58682285D01*
X147472656Y-58699941D01*
X147451539Y-58715602D01*
X147428990Y-58729117D01*
X147405224Y-58740358D01*
X147380471Y-58749215D01*
X147354969Y-58755602D01*
X147328963Y-58759460D01*
X147302705Y-58760750D01*
X146311495Y-58760750D01*
X146285237Y-58759460D01*
X146259231Y-58755602D01*
X146233729Y-58749215D01*
X146208976Y-58740358D01*
X146185210Y-58729117D01*
X146162661Y-58715602D01*
X146141544Y-58699941D01*
X146122065Y-58682285D01*
X146104409Y-58662806D01*
X146088748Y-58641689D01*
X146075233Y-58619140D01*
X146063992Y-58595374D01*
X146055135Y-58570621D01*
X146048748Y-58545119D01*
X146044890Y-58519113D01*
X146043600Y-58492855D01*
X146043600Y-57176645D01*
X146044890Y-57150387D01*
X146048748Y-57124381D01*
X146055135Y-57098879D01*
X146063992Y-57074126D01*
X146075233Y-57050360D01*
X146088748Y-57027811D01*
X146104409Y-57006694D01*
X146122065Y-56987215D01*
X146141544Y-56969559D01*
X146162661Y-56953898D01*
X146185210Y-56940383D01*
X146208976Y-56929142D01*
X146233729Y-56920285D01*
X146259231Y-56913898D01*
X146285237Y-56910040D01*
X146311495Y-56908750D01*
X147302705Y-56908750D01*
X147328963Y-56910040D01*
G37*
G36*
X144353963Y-56910040D02*
G01*
X144379969Y-56913898D01*
X144405471Y-56920285D01*
X144430224Y-56929142D01*
X144453990Y-56940383D01*
X144476539Y-56953898D01*
X144497656Y-56969559D01*
X144517135Y-56987215D01*
X144534791Y-57006694D01*
X144550452Y-57027811D01*
X144563967Y-57050360D01*
X144575208Y-57074126D01*
X144584065Y-57098879D01*
X144590452Y-57124381D01*
X144594310Y-57150387D01*
X144595600Y-57176645D01*
X144595600Y-58492855D01*
X144594310Y-58519113D01*
X144590452Y-58545119D01*
X144584065Y-58570621D01*
X144575208Y-58595374D01*
X144563967Y-58619140D01*
X144550452Y-58641689D01*
X144534791Y-58662806D01*
X144517135Y-58682285D01*
X144497656Y-58699941D01*
X144476539Y-58715602D01*
X144453990Y-58729117D01*
X144430224Y-58740358D01*
X144405471Y-58749215D01*
X144379969Y-58755602D01*
X144353963Y-58759460D01*
X144327705Y-58760750D01*
X143336495Y-58760750D01*
X143310237Y-58759460D01*
X143284231Y-58755602D01*
X143258729Y-58749215D01*
X143233976Y-58740358D01*
X143210210Y-58729117D01*
X143187661Y-58715602D01*
X143166544Y-58699941D01*
X143147065Y-58682285D01*
X143129409Y-58662806D01*
X143113748Y-58641689D01*
X143100233Y-58619140D01*
X143088992Y-58595374D01*
X143080135Y-58570621D01*
X143073748Y-58545119D01*
X143069890Y-58519113D01*
X143068600Y-58492855D01*
X143068600Y-57176645D01*
X143069890Y-57150387D01*
X143073748Y-57124381D01*
X143080135Y-57098879D01*
X143088992Y-57074126D01*
X143100233Y-57050360D01*
X143113748Y-57027811D01*
X143129409Y-57006694D01*
X143147065Y-56987215D01*
X143166544Y-56969559D01*
X143187661Y-56953898D01*
X143210210Y-56940383D01*
X143233976Y-56929142D01*
X143258729Y-56920285D01*
X143284231Y-56913898D01*
X143310237Y-56910040D01*
X143336495Y-56908750D01*
X144327705Y-56908750D01*
X144353963Y-56910040D01*
G37*
G36*
X147328963Y-83290040D02*
G01*
X147354969Y-83293898D01*
X147380471Y-83300285D01*
X147405224Y-83309142D01*
X147428990Y-83320383D01*
X147451539Y-83333898D01*
X147472656Y-83349559D01*
X147492135Y-83367215D01*
X147509791Y-83386694D01*
X147525452Y-83407811D01*
X147538967Y-83430360D01*
X147550208Y-83454126D01*
X147559065Y-83478879D01*
X147565452Y-83504381D01*
X147569310Y-83530387D01*
X147570600Y-83556645D01*
X147570600Y-84872855D01*
X147569310Y-84899113D01*
X147565452Y-84925119D01*
X147559065Y-84950621D01*
X147550208Y-84975374D01*
X147538967Y-84999140D01*
X147525452Y-85021689D01*
X147509791Y-85042806D01*
X147492135Y-85062285D01*
X147472656Y-85079941D01*
X147451539Y-85095602D01*
X147428990Y-85109117D01*
X147405224Y-85120358D01*
X147380471Y-85129215D01*
X147354969Y-85135602D01*
X147328963Y-85139460D01*
X147302705Y-85140750D01*
X146311495Y-85140750D01*
X146285237Y-85139460D01*
X146259231Y-85135602D01*
X146233729Y-85129215D01*
X146208976Y-85120358D01*
X146185210Y-85109117D01*
X146162661Y-85095602D01*
X146141544Y-85079941D01*
X146122065Y-85062285D01*
X146104409Y-85042806D01*
X146088748Y-85021689D01*
X146075233Y-84999140D01*
X146063992Y-84975374D01*
X146055135Y-84950621D01*
X146048748Y-84925119D01*
X146044890Y-84899113D01*
X146043600Y-84872855D01*
X146043600Y-83556645D01*
X146044890Y-83530387D01*
X146048748Y-83504381D01*
X146055135Y-83478879D01*
X146063992Y-83454126D01*
X146075233Y-83430360D01*
X146088748Y-83407811D01*
X146104409Y-83386694D01*
X146122065Y-83367215D01*
X146141544Y-83349559D01*
X146162661Y-83333898D01*
X146185210Y-83320383D01*
X146208976Y-83309142D01*
X146233729Y-83300285D01*
X146259231Y-83293898D01*
X146285237Y-83290040D01*
X146311495Y-83288750D01*
X147302705Y-83288750D01*
X147328963Y-83290040D01*
G37*
G36*
X144353963Y-83290040D02*
G01*
X144379969Y-83293898D01*
X144405471Y-83300285D01*
X144430224Y-83309142D01*
X144453990Y-83320383D01*
X144476539Y-83333898D01*
X144497656Y-83349559D01*
X144517135Y-83367215D01*
X144534791Y-83386694D01*
X144550452Y-83407811D01*
X144563967Y-83430360D01*
X144575208Y-83454126D01*
X144584065Y-83478879D01*
X144590452Y-83504381D01*
X144594310Y-83530387D01*
X144595600Y-83556645D01*
X144595600Y-84872855D01*
X144594310Y-84899113D01*
X144590452Y-84925119D01*
X144584065Y-84950621D01*
X144575208Y-84975374D01*
X144563967Y-84999140D01*
X144550452Y-85021689D01*
X144534791Y-85042806D01*
X144517135Y-85062285D01*
X144497656Y-85079941D01*
X144476539Y-85095602D01*
X144453990Y-85109117D01*
X144430224Y-85120358D01*
X144405471Y-85129215D01*
X144379969Y-85135602D01*
X144353963Y-85139460D01*
X144327705Y-85140750D01*
X143336495Y-85140750D01*
X143310237Y-85139460D01*
X143284231Y-85135602D01*
X143258729Y-85129215D01*
X143233976Y-85120358D01*
X143210210Y-85109117D01*
X143187661Y-85095602D01*
X143166544Y-85079941D01*
X143147065Y-85062285D01*
X143129409Y-85042806D01*
X143113748Y-85021689D01*
X143100233Y-84999140D01*
X143088992Y-84975374D01*
X143080135Y-84950621D01*
X143073748Y-84925119D01*
X143069890Y-84899113D01*
X143068600Y-84872855D01*
X143068600Y-83556645D01*
X143069890Y-83530387D01*
X143073748Y-83504381D01*
X143080135Y-83478879D01*
X143088992Y-83454126D01*
X143100233Y-83430360D01*
X143113748Y-83407811D01*
X143129409Y-83386694D01*
X143147065Y-83367215D01*
X143166544Y-83349559D01*
X143187661Y-83333898D01*
X143210210Y-83320383D01*
X143233976Y-83309142D01*
X143258729Y-83300285D01*
X143284231Y-83293898D01*
X143310237Y-83290040D01*
X143336495Y-83288750D01*
X144327705Y-83288750D01*
X144353963Y-83290040D01*
G37*
G36*
X90600363Y-82017040D02*
G01*
X90626369Y-82020898D01*
X90651871Y-82027285D01*
X90676624Y-82036142D01*
X90700390Y-82047383D01*
X90722939Y-82060898D01*
X90744056Y-82076559D01*
X90763535Y-82094215D01*
X90781191Y-82113694D01*
X90796852Y-82134811D01*
X90810367Y-82157360D01*
X90821608Y-82181126D01*
X90830465Y-82205879D01*
X90836852Y-82231381D01*
X90840710Y-82257387D01*
X90842000Y-82283645D01*
X90842000Y-83274855D01*
X90840710Y-83301113D01*
X90836852Y-83327119D01*
X90830465Y-83352621D01*
X90821608Y-83377374D01*
X90810367Y-83401140D01*
X90796852Y-83423689D01*
X90781191Y-83444806D01*
X90763535Y-83464285D01*
X90744056Y-83481941D01*
X90722939Y-83497602D01*
X90700390Y-83511117D01*
X90676624Y-83522358D01*
X90651871Y-83531215D01*
X90626369Y-83537602D01*
X90600363Y-83541460D01*
X90574105Y-83542750D01*
X89257895Y-83542750D01*
X89231637Y-83541460D01*
X89205631Y-83537602D01*
X89180129Y-83531215D01*
X89155376Y-83522358D01*
X89131610Y-83511117D01*
X89109061Y-83497602D01*
X89087944Y-83481941D01*
X89068465Y-83464285D01*
X89050809Y-83444806D01*
X89035148Y-83423689D01*
X89021633Y-83401140D01*
X89010392Y-83377374D01*
X89001535Y-83352621D01*
X88995148Y-83327119D01*
X88991290Y-83301113D01*
X88990000Y-83274855D01*
X88990000Y-82283645D01*
X88991290Y-82257387D01*
X88995148Y-82231381D01*
X89001535Y-82205879D01*
X89010392Y-82181126D01*
X89021633Y-82157360D01*
X89035148Y-82134811D01*
X89050809Y-82113694D01*
X89068465Y-82094215D01*
X89087944Y-82076559D01*
X89109061Y-82060898D01*
X89131610Y-82047383D01*
X89155376Y-82036142D01*
X89180129Y-82027285D01*
X89205631Y-82020898D01*
X89231637Y-82017040D01*
X89257895Y-82015750D01*
X90574105Y-82015750D01*
X90600363Y-82017040D01*
G37*
G36*
X90600363Y-79042040D02*
G01*
X90626369Y-79045898D01*
X90651871Y-79052285D01*
X90676624Y-79061142D01*
X90700390Y-79072383D01*
X90722939Y-79085898D01*
X90744056Y-79101559D01*
X90763535Y-79119215D01*
X90781191Y-79138694D01*
X90796852Y-79159811D01*
X90810367Y-79182360D01*
X90821608Y-79206126D01*
X90830465Y-79230879D01*
X90836852Y-79256381D01*
X90840710Y-79282387D01*
X90842000Y-79308645D01*
X90842000Y-80299855D01*
X90840710Y-80326113D01*
X90836852Y-80352119D01*
X90830465Y-80377621D01*
X90821608Y-80402374D01*
X90810367Y-80426140D01*
X90796852Y-80448689D01*
X90781191Y-80469806D01*
X90763535Y-80489285D01*
X90744056Y-80506941D01*
X90722939Y-80522602D01*
X90700390Y-80536117D01*
X90676624Y-80547358D01*
X90651871Y-80556215D01*
X90626369Y-80562602D01*
X90600363Y-80566460D01*
X90574105Y-80567750D01*
X89257895Y-80567750D01*
X89231637Y-80566460D01*
X89205631Y-80562602D01*
X89180129Y-80556215D01*
X89155376Y-80547358D01*
X89131610Y-80536117D01*
X89109061Y-80522602D01*
X89087944Y-80506941D01*
X89068465Y-80489285D01*
X89050809Y-80469806D01*
X89035148Y-80448689D01*
X89021633Y-80426140D01*
X89010392Y-80402374D01*
X89001535Y-80377621D01*
X88995148Y-80352119D01*
X88991290Y-80326113D01*
X88990000Y-80299855D01*
X88990000Y-79308645D01*
X88991290Y-79282387D01*
X88995148Y-79256381D01*
X89001535Y-79230879D01*
X89010392Y-79206126D01*
X89021633Y-79182360D01*
X89035148Y-79159811D01*
X89050809Y-79138694D01*
X89068465Y-79119215D01*
X89087944Y-79101559D01*
X89109061Y-79085898D01*
X89131610Y-79072383D01*
X89155376Y-79061142D01*
X89180129Y-79052285D01*
X89205631Y-79045898D01*
X89231637Y-79042040D01*
X89257895Y-79040750D01*
X90574105Y-79040750D01*
X90600363Y-79042040D01*
G37*
G36*
X94410363Y-82017040D02*
G01*
X94436369Y-82020898D01*
X94461871Y-82027285D01*
X94486624Y-82036142D01*
X94510390Y-82047383D01*
X94532939Y-82060898D01*
X94554056Y-82076559D01*
X94573535Y-82094215D01*
X94591191Y-82113694D01*
X94606852Y-82134811D01*
X94620367Y-82157360D01*
X94631608Y-82181126D01*
X94640465Y-82205879D01*
X94646852Y-82231381D01*
X94650710Y-82257387D01*
X94652000Y-82283645D01*
X94652000Y-83274855D01*
X94650710Y-83301113D01*
X94646852Y-83327119D01*
X94640465Y-83352621D01*
X94631608Y-83377374D01*
X94620367Y-83401140D01*
X94606852Y-83423689D01*
X94591191Y-83444806D01*
X94573535Y-83464285D01*
X94554056Y-83481941D01*
X94532939Y-83497602D01*
X94510390Y-83511117D01*
X94486624Y-83522358D01*
X94461871Y-83531215D01*
X94436369Y-83537602D01*
X94410363Y-83541460D01*
X94384105Y-83542750D01*
X93067895Y-83542750D01*
X93041637Y-83541460D01*
X93015631Y-83537602D01*
X92990129Y-83531215D01*
X92965376Y-83522358D01*
X92941610Y-83511117D01*
X92919061Y-83497602D01*
X92897944Y-83481941D01*
X92878465Y-83464285D01*
X92860809Y-83444806D01*
X92845148Y-83423689D01*
X92831633Y-83401140D01*
X92820392Y-83377374D01*
X92811535Y-83352621D01*
X92805148Y-83327119D01*
X92801290Y-83301113D01*
X92800000Y-83274855D01*
X92800000Y-82283645D01*
X92801290Y-82257387D01*
X92805148Y-82231381D01*
X92811535Y-82205879D01*
X92820392Y-82181126D01*
X92831633Y-82157360D01*
X92845148Y-82134811D01*
X92860809Y-82113694D01*
X92878465Y-82094215D01*
X92897944Y-82076559D01*
X92919061Y-82060898D01*
X92941610Y-82047383D01*
X92965376Y-82036142D01*
X92990129Y-82027285D01*
X93015631Y-82020898D01*
X93041637Y-82017040D01*
X93067895Y-82015750D01*
X94384105Y-82015750D01*
X94410363Y-82017040D01*
G37*
G36*
X94410363Y-79042040D02*
G01*
X94436369Y-79045898D01*
X94461871Y-79052285D01*
X94486624Y-79061142D01*
X94510390Y-79072383D01*
X94532939Y-79085898D01*
X94554056Y-79101559D01*
X94573535Y-79119215D01*
X94591191Y-79138694D01*
X94606852Y-79159811D01*
X94620367Y-79182360D01*
X94631608Y-79206126D01*
X94640465Y-79230879D01*
X94646852Y-79256381D01*
X94650710Y-79282387D01*
X94652000Y-79308645D01*
X94652000Y-80299855D01*
X94650710Y-80326113D01*
X94646852Y-80352119D01*
X94640465Y-80377621D01*
X94631608Y-80402374D01*
X94620367Y-80426140D01*
X94606852Y-80448689D01*
X94591191Y-80469806D01*
X94573535Y-80489285D01*
X94554056Y-80506941D01*
X94532939Y-80522602D01*
X94510390Y-80536117D01*
X94486624Y-80547358D01*
X94461871Y-80556215D01*
X94436369Y-80562602D01*
X94410363Y-80566460D01*
X94384105Y-80567750D01*
X93067895Y-80567750D01*
X93041637Y-80566460D01*
X93015631Y-80562602D01*
X92990129Y-80556215D01*
X92965376Y-80547358D01*
X92941610Y-80536117D01*
X92919061Y-80522602D01*
X92897944Y-80506941D01*
X92878465Y-80489285D01*
X92860809Y-80469806D01*
X92845148Y-80448689D01*
X92831633Y-80426140D01*
X92820392Y-80402374D01*
X92811535Y-80377621D01*
X92805148Y-80352119D01*
X92801290Y-80326113D01*
X92800000Y-80299855D01*
X92800000Y-79308645D01*
X92801290Y-79282387D01*
X92805148Y-79256381D01*
X92811535Y-79230879D01*
X92820392Y-79206126D01*
X92831633Y-79182360D01*
X92845148Y-79159811D01*
X92860809Y-79138694D01*
X92878465Y-79119215D01*
X92897944Y-79101559D01*
X92919061Y-79085898D01*
X92941610Y-79072383D01*
X92965376Y-79061142D01*
X92990129Y-79052285D01*
X93015631Y-79045898D01*
X93041637Y-79042040D01*
X93067895Y-79040750D01*
X94384105Y-79040750D01*
X94410363Y-79042040D01*
G37*
G36*
X95517863Y-61305290D02*
G01*
X95543869Y-61309148D01*
X95569371Y-61315535D01*
X95594124Y-61324392D01*
X95617890Y-61335633D01*
X95640439Y-61349148D01*
X95661556Y-61364809D01*
X95681035Y-61382465D01*
X95698691Y-61401944D01*
X95714352Y-61423061D01*
X95727867Y-61445610D01*
X95739108Y-61469376D01*
X95747965Y-61494129D01*
X95754352Y-61519631D01*
X95758210Y-61545637D01*
X95759500Y-61571895D01*
X95759500Y-62888105D01*
X95758210Y-62914363D01*
X95754352Y-62940369D01*
X95747965Y-62965871D01*
X95739108Y-62990624D01*
X95727867Y-63014390D01*
X95714352Y-63036939D01*
X95698691Y-63058056D01*
X95681035Y-63077535D01*
X95661556Y-63095191D01*
X95640439Y-63110852D01*
X95617890Y-63124367D01*
X95594124Y-63135608D01*
X95569371Y-63144465D01*
X95543869Y-63150852D01*
X95517863Y-63154710D01*
X95491605Y-63156000D01*
X94500395Y-63156000D01*
X94474137Y-63154710D01*
X94448131Y-63150852D01*
X94422629Y-63144465D01*
X94397876Y-63135608D01*
X94374110Y-63124367D01*
X94351561Y-63110852D01*
X94330444Y-63095191D01*
X94310965Y-63077535D01*
X94293309Y-63058056D01*
X94277648Y-63036939D01*
X94264133Y-63014390D01*
X94252892Y-62990624D01*
X94244035Y-62965871D01*
X94237648Y-62940369D01*
X94233790Y-62914363D01*
X94232500Y-62888105D01*
X94232500Y-61571895D01*
X94233790Y-61545637D01*
X94237648Y-61519631D01*
X94244035Y-61494129D01*
X94252892Y-61469376D01*
X94264133Y-61445610D01*
X94277648Y-61423061D01*
X94293309Y-61401944D01*
X94310965Y-61382465D01*
X94330444Y-61364809D01*
X94351561Y-61349148D01*
X94374110Y-61335633D01*
X94397876Y-61324392D01*
X94422629Y-61315535D01*
X94448131Y-61309148D01*
X94474137Y-61305290D01*
X94500395Y-61304000D01*
X95491605Y-61304000D01*
X95517863Y-61305290D01*
G37*
G36*
X92542863Y-61305290D02*
G01*
X92568869Y-61309148D01*
X92594371Y-61315535D01*
X92619124Y-61324392D01*
X92642890Y-61335633D01*
X92665439Y-61349148D01*
X92686556Y-61364809D01*
X92706035Y-61382465D01*
X92723691Y-61401944D01*
X92739352Y-61423061D01*
X92752867Y-61445610D01*
X92764108Y-61469376D01*
X92772965Y-61494129D01*
X92779352Y-61519631D01*
X92783210Y-61545637D01*
X92784500Y-61571895D01*
X92784500Y-62888105D01*
X92783210Y-62914363D01*
X92779352Y-62940369D01*
X92772965Y-62965871D01*
X92764108Y-62990624D01*
X92752867Y-63014390D01*
X92739352Y-63036939D01*
X92723691Y-63058056D01*
X92706035Y-63077535D01*
X92686556Y-63095191D01*
X92665439Y-63110852D01*
X92642890Y-63124367D01*
X92619124Y-63135608D01*
X92594371Y-63144465D01*
X92568869Y-63150852D01*
X92542863Y-63154710D01*
X92516605Y-63156000D01*
X91525395Y-63156000D01*
X91499137Y-63154710D01*
X91473131Y-63150852D01*
X91447629Y-63144465D01*
X91422876Y-63135608D01*
X91399110Y-63124367D01*
X91376561Y-63110852D01*
X91355444Y-63095191D01*
X91335965Y-63077535D01*
X91318309Y-63058056D01*
X91302648Y-63036939D01*
X91289133Y-63014390D01*
X91277892Y-62990624D01*
X91269035Y-62965871D01*
X91262648Y-62940369D01*
X91258790Y-62914363D01*
X91257500Y-62888105D01*
X91257500Y-61571895D01*
X91258790Y-61545637D01*
X91262648Y-61519631D01*
X91269035Y-61494129D01*
X91277892Y-61469376D01*
X91289133Y-61445610D01*
X91302648Y-61423061D01*
X91318309Y-61401944D01*
X91335965Y-61382465D01*
X91355444Y-61364809D01*
X91376561Y-61349148D01*
X91399110Y-61335633D01*
X91422876Y-61324392D01*
X91447629Y-61315535D01*
X91473131Y-61309148D01*
X91499137Y-61305290D01*
X91525395Y-61304000D01*
X92516605Y-61304000D01*
X92542863Y-61305290D01*
G37*
G36*
X98019468Y-73423045D02*
G01*
X98045569Y-73426917D01*
X98071166Y-73433328D01*
X98096011Y-73442218D01*
X98119865Y-73453500D01*
X98142498Y-73467066D01*
X98163693Y-73482785D01*
X98183245Y-73500505D01*
X98200965Y-73520057D01*
X98216684Y-73541252D01*
X98230250Y-73563885D01*
X98241532Y-73587739D01*
X98250422Y-73612584D01*
X98256833Y-73638181D01*
X98260705Y-73664282D01*
X98262000Y-73690638D01*
X98262000Y-74829862D01*
X98260705Y-74856218D01*
X98256833Y-74882319D01*
X98250422Y-74907916D01*
X98241532Y-74932761D01*
X98230250Y-74956615D01*
X98216684Y-74979248D01*
X98200965Y-75000443D01*
X98183245Y-75019995D01*
X98163693Y-75037715D01*
X98142498Y-75053434D01*
X98119865Y-75067000D01*
X98096011Y-75078282D01*
X98071166Y-75087172D01*
X98045569Y-75093583D01*
X98019468Y-75097455D01*
X97993112Y-75098750D01*
X97078888Y-75098750D01*
X97052532Y-75097455D01*
X97026431Y-75093583D01*
X97000834Y-75087172D01*
X96975989Y-75078282D01*
X96952135Y-75067000D01*
X96929502Y-75053434D01*
X96908307Y-75037715D01*
X96888755Y-75019995D01*
X96871035Y-75000443D01*
X96855316Y-74979248D01*
X96841750Y-74956615D01*
X96830468Y-74932761D01*
X96821578Y-74907916D01*
X96815167Y-74882319D01*
X96811295Y-74856218D01*
X96810000Y-74829862D01*
X96810000Y-73690638D01*
X96811295Y-73664282D01*
X96815167Y-73638181D01*
X96821578Y-73612584D01*
X96830468Y-73587739D01*
X96841750Y-73563885D01*
X96855316Y-73541252D01*
X96871035Y-73520057D01*
X96888755Y-73500505D01*
X96908307Y-73482785D01*
X96929502Y-73467066D01*
X96952135Y-73453500D01*
X96975989Y-73442218D01*
X97000834Y-73433328D01*
X97026431Y-73426917D01*
X97052532Y-73423045D01*
X97078888Y-73421750D01*
X97993112Y-73421750D01*
X98019468Y-73423045D01*
G37*
G36*
X98019468Y-70548045D02*
G01*
X98045569Y-70551917D01*
X98071166Y-70558328D01*
X98096011Y-70567218D01*
X98119865Y-70578500D01*
X98142498Y-70592066D01*
X98163693Y-70607785D01*
X98183245Y-70625505D01*
X98200965Y-70645057D01*
X98216684Y-70666252D01*
X98230250Y-70688885D01*
X98241532Y-70712739D01*
X98250422Y-70737584D01*
X98256833Y-70763181D01*
X98260705Y-70789282D01*
X98262000Y-70815638D01*
X98262000Y-71954862D01*
X98260705Y-71981218D01*
X98256833Y-72007319D01*
X98250422Y-72032916D01*
X98241532Y-72057761D01*
X98230250Y-72081615D01*
X98216684Y-72104248D01*
X98200965Y-72125443D01*
X98183245Y-72144995D01*
X98163693Y-72162715D01*
X98142498Y-72178434D01*
X98119865Y-72192000D01*
X98096011Y-72203282D01*
X98071166Y-72212172D01*
X98045569Y-72218583D01*
X98019468Y-72222455D01*
X97993112Y-72223750D01*
X97078888Y-72223750D01*
X97052532Y-72222455D01*
X97026431Y-72218583D01*
X97000834Y-72212172D01*
X96975989Y-72203282D01*
X96952135Y-72192000D01*
X96929502Y-72178434D01*
X96908307Y-72162715D01*
X96888755Y-72144995D01*
X96871035Y-72125443D01*
X96855316Y-72104248D01*
X96841750Y-72081615D01*
X96830468Y-72057761D01*
X96821578Y-72032916D01*
X96815167Y-72007319D01*
X96811295Y-71981218D01*
X96810000Y-71954862D01*
X96810000Y-70815638D01*
X96811295Y-70789282D01*
X96815167Y-70763181D01*
X96821578Y-70737584D01*
X96830468Y-70712739D01*
X96841750Y-70688885D01*
X96855316Y-70666252D01*
X96871035Y-70645057D01*
X96888755Y-70625505D01*
X96908307Y-70607785D01*
X96929502Y-70592066D01*
X96952135Y-70578500D01*
X96975989Y-70567218D01*
X97000834Y-70558328D01*
X97026431Y-70551917D01*
X97052532Y-70548045D01*
X97078888Y-70546750D01*
X97993112Y-70546750D01*
X98019468Y-70548045D01*
G37*
G36*
X101829468Y-73423045D02*
G01*
X101855569Y-73426917D01*
X101881166Y-73433328D01*
X101906011Y-73442218D01*
X101929865Y-73453500D01*
X101952498Y-73467066D01*
X101973693Y-73482785D01*
X101993245Y-73500505D01*
X102010965Y-73520057D01*
X102026684Y-73541252D01*
X102040250Y-73563885D01*
X102051532Y-73587739D01*
X102060422Y-73612584D01*
X102066833Y-73638181D01*
X102070705Y-73664282D01*
X102072000Y-73690638D01*
X102072000Y-74829862D01*
X102070705Y-74856218D01*
X102066833Y-74882319D01*
X102060422Y-74907916D01*
X102051532Y-74932761D01*
X102040250Y-74956615D01*
X102026684Y-74979248D01*
X102010965Y-75000443D01*
X101993245Y-75019995D01*
X101973693Y-75037715D01*
X101952498Y-75053434D01*
X101929865Y-75067000D01*
X101906011Y-75078282D01*
X101881166Y-75087172D01*
X101855569Y-75093583D01*
X101829468Y-75097455D01*
X101803112Y-75098750D01*
X100888888Y-75098750D01*
X100862532Y-75097455D01*
X100836431Y-75093583D01*
X100810834Y-75087172D01*
X100785989Y-75078282D01*
X100762135Y-75067000D01*
X100739502Y-75053434D01*
X100718307Y-75037715D01*
X100698755Y-75019995D01*
X100681035Y-75000443D01*
X100665316Y-74979248D01*
X100651750Y-74956615D01*
X100640468Y-74932761D01*
X100631578Y-74907916D01*
X100625167Y-74882319D01*
X100621295Y-74856218D01*
X100620000Y-74829862D01*
X100620000Y-73690638D01*
X100621295Y-73664282D01*
X100625167Y-73638181D01*
X100631578Y-73612584D01*
X100640468Y-73587739D01*
X100651750Y-73563885D01*
X100665316Y-73541252D01*
X100681035Y-73520057D01*
X100698755Y-73500505D01*
X100718307Y-73482785D01*
X100739502Y-73467066D01*
X100762135Y-73453500D01*
X100785989Y-73442218D01*
X100810834Y-73433328D01*
X100836431Y-73426917D01*
X100862532Y-73423045D01*
X100888888Y-73421750D01*
X101803112Y-73421750D01*
X101829468Y-73423045D01*
G37*
G36*
X101829468Y-70548045D02*
G01*
X101855569Y-70551917D01*
X101881166Y-70558328D01*
X101906011Y-70567218D01*
X101929865Y-70578500D01*
X101952498Y-70592066D01*
X101973693Y-70607785D01*
X101993245Y-70625505D01*
X102010965Y-70645057D01*
X102026684Y-70666252D01*
X102040250Y-70688885D01*
X102051532Y-70712739D01*
X102060422Y-70737584D01*
X102066833Y-70763181D01*
X102070705Y-70789282D01*
X102072000Y-70815638D01*
X102072000Y-71954862D01*
X102070705Y-71981218D01*
X102066833Y-72007319D01*
X102060422Y-72032916D01*
X102051532Y-72057761D01*
X102040250Y-72081615D01*
X102026684Y-72104248D01*
X102010965Y-72125443D01*
X101993245Y-72144995D01*
X101973693Y-72162715D01*
X101952498Y-72178434D01*
X101929865Y-72192000D01*
X101906011Y-72203282D01*
X101881166Y-72212172D01*
X101855569Y-72218583D01*
X101829468Y-72222455D01*
X101803112Y-72223750D01*
X100888888Y-72223750D01*
X100862532Y-72222455D01*
X100836431Y-72218583D01*
X100810834Y-72212172D01*
X100785989Y-72203282D01*
X100762135Y-72192000D01*
X100739502Y-72178434D01*
X100718307Y-72162715D01*
X100698755Y-72144995D01*
X100681035Y-72125443D01*
X100665316Y-72104248D01*
X100651750Y-72081615D01*
X100640468Y-72057761D01*
X100631578Y-72032916D01*
X100625167Y-72007319D01*
X100621295Y-71981218D01*
X100620000Y-71954862D01*
X100620000Y-70815638D01*
X100621295Y-70789282D01*
X100625167Y-70763181D01*
X100631578Y-70737584D01*
X100640468Y-70712739D01*
X100651750Y-70688885D01*
X100665316Y-70666252D01*
X100681035Y-70645057D01*
X100698755Y-70625505D01*
X100718307Y-70607785D01*
X100739502Y-70592066D01*
X100762135Y-70578500D01*
X100785989Y-70567218D01*
X100810834Y-70558328D01*
X100836431Y-70551917D01*
X100862532Y-70548045D01*
X100888888Y-70546750D01*
X101803112Y-70546750D01*
X101829468Y-70548045D01*
G37*
G36*
X105840363Y-73528040D02*
G01*
X105866369Y-73531898D01*
X105891871Y-73538285D01*
X105916624Y-73547142D01*
X105940390Y-73558383D01*
X105962939Y-73571898D01*
X105984056Y-73587559D01*
X106003535Y-73605215D01*
X106021191Y-73624694D01*
X106036852Y-73645811D01*
X106050367Y-73668360D01*
X106061608Y-73692126D01*
X106070465Y-73716879D01*
X106076852Y-73742381D01*
X106080710Y-73768387D01*
X106082000Y-73794645D01*
X106082000Y-74785855D01*
X106080710Y-74812113D01*
X106076852Y-74838119D01*
X106070465Y-74863621D01*
X106061608Y-74888374D01*
X106050367Y-74912140D01*
X106036852Y-74934689D01*
X106021191Y-74955806D01*
X106003535Y-74975285D01*
X105984056Y-74992941D01*
X105962939Y-75008602D01*
X105940390Y-75022117D01*
X105916624Y-75033358D01*
X105891871Y-75042215D01*
X105866369Y-75048602D01*
X105840363Y-75052460D01*
X105814105Y-75053750D01*
X104497895Y-75053750D01*
X104471637Y-75052460D01*
X104445631Y-75048602D01*
X104420129Y-75042215D01*
X104395376Y-75033358D01*
X104371610Y-75022117D01*
X104349061Y-75008602D01*
X104327944Y-74992941D01*
X104308465Y-74975285D01*
X104290809Y-74955806D01*
X104275148Y-74934689D01*
X104261633Y-74912140D01*
X104250392Y-74888374D01*
X104241535Y-74863621D01*
X104235148Y-74838119D01*
X104231290Y-74812113D01*
X104230000Y-74785855D01*
X104230000Y-73794645D01*
X104231290Y-73768387D01*
X104235148Y-73742381D01*
X104241535Y-73716879D01*
X104250392Y-73692126D01*
X104261633Y-73668360D01*
X104275148Y-73645811D01*
X104290809Y-73624694D01*
X104308465Y-73605215D01*
X104327944Y-73587559D01*
X104349061Y-73571898D01*
X104371610Y-73558383D01*
X104395376Y-73547142D01*
X104420129Y-73538285D01*
X104445631Y-73531898D01*
X104471637Y-73528040D01*
X104497895Y-73526750D01*
X105814105Y-73526750D01*
X105840363Y-73528040D01*
G37*
G36*
X105840363Y-70553040D02*
G01*
X105866369Y-70556898D01*
X105891871Y-70563285D01*
X105916624Y-70572142D01*
X105940390Y-70583383D01*
X105962939Y-70596898D01*
X105984056Y-70612559D01*
X106003535Y-70630215D01*
X106021191Y-70649694D01*
X106036852Y-70670811D01*
X106050367Y-70693360D01*
X106061608Y-70717126D01*
X106070465Y-70741879D01*
X106076852Y-70767381D01*
X106080710Y-70793387D01*
X106082000Y-70819645D01*
X106082000Y-71810855D01*
X106080710Y-71837113D01*
X106076852Y-71863119D01*
X106070465Y-71888621D01*
X106061608Y-71913374D01*
X106050367Y-71937140D01*
X106036852Y-71959689D01*
X106021191Y-71980806D01*
X106003535Y-72000285D01*
X105984056Y-72017941D01*
X105962939Y-72033602D01*
X105940390Y-72047117D01*
X105916624Y-72058358D01*
X105891871Y-72067215D01*
X105866369Y-72073602D01*
X105840363Y-72077460D01*
X105814105Y-72078750D01*
X104497895Y-72078750D01*
X104471637Y-72077460D01*
X104445631Y-72073602D01*
X104420129Y-72067215D01*
X104395376Y-72058358D01*
X104371610Y-72047117D01*
X104349061Y-72033602D01*
X104327944Y-72017941D01*
X104308465Y-72000285D01*
X104290809Y-71980806D01*
X104275148Y-71959689D01*
X104261633Y-71937140D01*
X104250392Y-71913374D01*
X104241535Y-71888621D01*
X104235148Y-71863119D01*
X104231290Y-71837113D01*
X104230000Y-71810855D01*
X104230000Y-70819645D01*
X104231290Y-70793387D01*
X104235148Y-70767381D01*
X104241535Y-70741879D01*
X104250392Y-70717126D01*
X104261633Y-70693360D01*
X104275148Y-70670811D01*
X104290809Y-70649694D01*
X104308465Y-70630215D01*
X104327944Y-70612559D01*
X104349061Y-70596898D01*
X104371610Y-70583383D01*
X104395376Y-70572142D01*
X104420129Y-70563285D01*
X104445631Y-70556898D01*
X104471637Y-70553040D01*
X104497895Y-70551750D01*
X105814105Y-70551750D01*
X105840363Y-70553040D01*
G37*
G36*
X94410363Y-73528040D02*
G01*
X94436369Y-73531898D01*
X94461871Y-73538285D01*
X94486624Y-73547142D01*
X94510390Y-73558383D01*
X94532939Y-73571898D01*
X94554056Y-73587559D01*
X94573535Y-73605215D01*
X94591191Y-73624694D01*
X94606852Y-73645811D01*
X94620367Y-73668360D01*
X94631608Y-73692126D01*
X94640465Y-73716879D01*
X94646852Y-73742381D01*
X94650710Y-73768387D01*
X94652000Y-73794645D01*
X94652000Y-74785855D01*
X94650710Y-74812113D01*
X94646852Y-74838119D01*
X94640465Y-74863621D01*
X94631608Y-74888374D01*
X94620367Y-74912140D01*
X94606852Y-74934689D01*
X94591191Y-74955806D01*
X94573535Y-74975285D01*
X94554056Y-74992941D01*
X94532939Y-75008602D01*
X94510390Y-75022117D01*
X94486624Y-75033358D01*
X94461871Y-75042215D01*
X94436369Y-75048602D01*
X94410363Y-75052460D01*
X94384105Y-75053750D01*
X93067895Y-75053750D01*
X93041637Y-75052460D01*
X93015631Y-75048602D01*
X92990129Y-75042215D01*
X92965376Y-75033358D01*
X92941610Y-75022117D01*
X92919061Y-75008602D01*
X92897944Y-74992941D01*
X92878465Y-74975285D01*
X92860809Y-74955806D01*
X92845148Y-74934689D01*
X92831633Y-74912140D01*
X92820392Y-74888374D01*
X92811535Y-74863621D01*
X92805148Y-74838119D01*
X92801290Y-74812113D01*
X92800000Y-74785855D01*
X92800000Y-73794645D01*
X92801290Y-73768387D01*
X92805148Y-73742381D01*
X92811535Y-73716879D01*
X92820392Y-73692126D01*
X92831633Y-73668360D01*
X92845148Y-73645811D01*
X92860809Y-73624694D01*
X92878465Y-73605215D01*
X92897944Y-73587559D01*
X92919061Y-73571898D01*
X92941610Y-73558383D01*
X92965376Y-73547142D01*
X92990129Y-73538285D01*
X93015631Y-73531898D01*
X93041637Y-73528040D01*
X93067895Y-73526750D01*
X94384105Y-73526750D01*
X94410363Y-73528040D01*
G37*
G36*
X94410363Y-70553040D02*
G01*
X94436369Y-70556898D01*
X94461871Y-70563285D01*
X94486624Y-70572142D01*
X94510390Y-70583383D01*
X94532939Y-70596898D01*
X94554056Y-70612559D01*
X94573535Y-70630215D01*
X94591191Y-70649694D01*
X94606852Y-70670811D01*
X94620367Y-70693360D01*
X94631608Y-70717126D01*
X94640465Y-70741879D01*
X94646852Y-70767381D01*
X94650710Y-70793387D01*
X94652000Y-70819645D01*
X94652000Y-71810855D01*
X94650710Y-71837113D01*
X94646852Y-71863119D01*
X94640465Y-71888621D01*
X94631608Y-71913374D01*
X94620367Y-71937140D01*
X94606852Y-71959689D01*
X94591191Y-71980806D01*
X94573535Y-72000285D01*
X94554056Y-72017941D01*
X94532939Y-72033602D01*
X94510390Y-72047117D01*
X94486624Y-72058358D01*
X94461871Y-72067215D01*
X94436369Y-72073602D01*
X94410363Y-72077460D01*
X94384105Y-72078750D01*
X93067895Y-72078750D01*
X93041637Y-72077460D01*
X93015631Y-72073602D01*
X92990129Y-72067215D01*
X92965376Y-72058358D01*
X92941610Y-72047117D01*
X92919061Y-72033602D01*
X92897944Y-72017941D01*
X92878465Y-72000285D01*
X92860809Y-71980806D01*
X92845148Y-71959689D01*
X92831633Y-71937140D01*
X92820392Y-71913374D01*
X92811535Y-71888621D01*
X92805148Y-71863119D01*
X92801290Y-71837113D01*
X92800000Y-71810855D01*
X92800000Y-70819645D01*
X92801290Y-70793387D01*
X92805148Y-70767381D01*
X92811535Y-70741879D01*
X92820392Y-70717126D01*
X92831633Y-70693360D01*
X92845148Y-70670811D01*
X92860809Y-70649694D01*
X92878465Y-70630215D01*
X92897944Y-70612559D01*
X92919061Y-70596898D01*
X92941610Y-70583383D01*
X92965376Y-70572142D01*
X92990129Y-70563285D01*
X93015631Y-70556898D01*
X93041637Y-70553040D01*
X93067895Y-70551750D01*
X94384105Y-70551750D01*
X94410363Y-70553040D01*
G37*
G36*
X98220363Y-79042040D02*
G01*
X98246369Y-79045898D01*
X98271871Y-79052285D01*
X98296624Y-79061142D01*
X98320390Y-79072383D01*
X98342939Y-79085898D01*
X98364056Y-79101559D01*
X98383535Y-79119215D01*
X98401191Y-79138694D01*
X98416852Y-79159811D01*
X98430367Y-79182360D01*
X98441608Y-79206126D01*
X98450465Y-79230879D01*
X98456852Y-79256381D01*
X98460710Y-79282387D01*
X98462000Y-79308645D01*
X98462000Y-80299855D01*
X98460710Y-80326113D01*
X98456852Y-80352119D01*
X98450465Y-80377621D01*
X98441608Y-80402374D01*
X98430367Y-80426140D01*
X98416852Y-80448689D01*
X98401191Y-80469806D01*
X98383535Y-80489285D01*
X98364056Y-80506941D01*
X98342939Y-80522602D01*
X98320390Y-80536117D01*
X98296624Y-80547358D01*
X98271871Y-80556215D01*
X98246369Y-80562602D01*
X98220363Y-80566460D01*
X98194105Y-80567750D01*
X96877895Y-80567750D01*
X96851637Y-80566460D01*
X96825631Y-80562602D01*
X96800129Y-80556215D01*
X96775376Y-80547358D01*
X96751610Y-80536117D01*
X96729061Y-80522602D01*
X96707944Y-80506941D01*
X96688465Y-80489285D01*
X96670809Y-80469806D01*
X96655148Y-80448689D01*
X96641633Y-80426140D01*
X96630392Y-80402374D01*
X96621535Y-80377621D01*
X96615148Y-80352119D01*
X96611290Y-80326113D01*
X96610000Y-80299855D01*
X96610000Y-79308645D01*
X96611290Y-79282387D01*
X96615148Y-79256381D01*
X96621535Y-79230879D01*
X96630392Y-79206126D01*
X96641633Y-79182360D01*
X96655148Y-79159811D01*
X96670809Y-79138694D01*
X96688465Y-79119215D01*
X96707944Y-79101559D01*
X96729061Y-79085898D01*
X96751610Y-79072383D01*
X96775376Y-79061142D01*
X96800129Y-79052285D01*
X96825631Y-79045898D01*
X96851637Y-79042040D01*
X96877895Y-79040750D01*
X98194105Y-79040750D01*
X98220363Y-79042040D01*
G37*
G36*
X98220363Y-82017040D02*
G01*
X98246369Y-82020898D01*
X98271871Y-82027285D01*
X98296624Y-82036142D01*
X98320390Y-82047383D01*
X98342939Y-82060898D01*
X98364056Y-82076559D01*
X98383535Y-82094215D01*
X98401191Y-82113694D01*
X98416852Y-82134811D01*
X98430367Y-82157360D01*
X98441608Y-82181126D01*
X98450465Y-82205879D01*
X98456852Y-82231381D01*
X98460710Y-82257387D01*
X98462000Y-82283645D01*
X98462000Y-83274855D01*
X98460710Y-83301113D01*
X98456852Y-83327119D01*
X98450465Y-83352621D01*
X98441608Y-83377374D01*
X98430367Y-83401140D01*
X98416852Y-83423689D01*
X98401191Y-83444806D01*
X98383535Y-83464285D01*
X98364056Y-83481941D01*
X98342939Y-83497602D01*
X98320390Y-83511117D01*
X98296624Y-83522358D01*
X98271871Y-83531215D01*
X98246369Y-83537602D01*
X98220363Y-83541460D01*
X98194105Y-83542750D01*
X96877895Y-83542750D01*
X96851637Y-83541460D01*
X96825631Y-83537602D01*
X96800129Y-83531215D01*
X96775376Y-83522358D01*
X96751610Y-83511117D01*
X96729061Y-83497602D01*
X96707944Y-83481941D01*
X96688465Y-83464285D01*
X96670809Y-83444806D01*
X96655148Y-83423689D01*
X96641633Y-83401140D01*
X96630392Y-83377374D01*
X96621535Y-83352621D01*
X96615148Y-83327119D01*
X96611290Y-83301113D01*
X96610000Y-83274855D01*
X96610000Y-82283645D01*
X96611290Y-82257387D01*
X96615148Y-82231381D01*
X96621535Y-82205879D01*
X96630392Y-82181126D01*
X96641633Y-82157360D01*
X96655148Y-82134811D01*
X96670809Y-82113694D01*
X96688465Y-82094215D01*
X96707944Y-82076559D01*
X96729061Y-82060898D01*
X96751610Y-82047383D01*
X96775376Y-82036142D01*
X96800129Y-82027285D01*
X96825631Y-82020898D01*
X96851637Y-82017040D01*
X96877895Y-82015750D01*
X98194105Y-82015750D01*
X98220363Y-82017040D01*
G37*
G36*
X105840363Y-82017040D02*
G01*
X105866369Y-82020898D01*
X105891871Y-82027285D01*
X105916624Y-82036142D01*
X105940390Y-82047383D01*
X105962939Y-82060898D01*
X105984056Y-82076559D01*
X106003535Y-82094215D01*
X106021191Y-82113694D01*
X106036852Y-82134811D01*
X106050367Y-82157360D01*
X106061608Y-82181126D01*
X106070465Y-82205879D01*
X106076852Y-82231381D01*
X106080710Y-82257387D01*
X106082000Y-82283645D01*
X106082000Y-83274855D01*
X106080710Y-83301113D01*
X106076852Y-83327119D01*
X106070465Y-83352621D01*
X106061608Y-83377374D01*
X106050367Y-83401140D01*
X106036852Y-83423689D01*
X106021191Y-83444806D01*
X106003535Y-83464285D01*
X105984056Y-83481941D01*
X105962939Y-83497602D01*
X105940390Y-83511117D01*
X105916624Y-83522358D01*
X105891871Y-83531215D01*
X105866369Y-83537602D01*
X105840363Y-83541460D01*
X105814105Y-83542750D01*
X104497895Y-83542750D01*
X104471637Y-83541460D01*
X104445631Y-83537602D01*
X104420129Y-83531215D01*
X104395376Y-83522358D01*
X104371610Y-83511117D01*
X104349061Y-83497602D01*
X104327944Y-83481941D01*
X104308465Y-83464285D01*
X104290809Y-83444806D01*
X104275148Y-83423689D01*
X104261633Y-83401140D01*
X104250392Y-83377374D01*
X104241535Y-83352621D01*
X104235148Y-83327119D01*
X104231290Y-83301113D01*
X104230000Y-83274855D01*
X104230000Y-82283645D01*
X104231290Y-82257387D01*
X104235148Y-82231381D01*
X104241535Y-82205879D01*
X104250392Y-82181126D01*
X104261633Y-82157360D01*
X104275148Y-82134811D01*
X104290809Y-82113694D01*
X104308465Y-82094215D01*
X104327944Y-82076559D01*
X104349061Y-82060898D01*
X104371610Y-82047383D01*
X104395376Y-82036142D01*
X104420129Y-82027285D01*
X104445631Y-82020898D01*
X104471637Y-82017040D01*
X104497895Y-82015750D01*
X105814105Y-82015750D01*
X105840363Y-82017040D01*
G37*
G36*
X105840363Y-79042040D02*
G01*
X105866369Y-79045898D01*
X105891871Y-79052285D01*
X105916624Y-79061142D01*
X105940390Y-79072383D01*
X105962939Y-79085898D01*
X105984056Y-79101559D01*
X106003535Y-79119215D01*
X106021191Y-79138694D01*
X106036852Y-79159811D01*
X106050367Y-79182360D01*
X106061608Y-79206126D01*
X106070465Y-79230879D01*
X106076852Y-79256381D01*
X106080710Y-79282387D01*
X106082000Y-79308645D01*
X106082000Y-80299855D01*
X106080710Y-80326113D01*
X106076852Y-80352119D01*
X106070465Y-80377621D01*
X106061608Y-80402374D01*
X106050367Y-80426140D01*
X106036852Y-80448689D01*
X106021191Y-80469806D01*
X106003535Y-80489285D01*
X105984056Y-80506941D01*
X105962939Y-80522602D01*
X105940390Y-80536117D01*
X105916624Y-80547358D01*
X105891871Y-80556215D01*
X105866369Y-80562602D01*
X105840363Y-80566460D01*
X105814105Y-80567750D01*
X104497895Y-80567750D01*
X104471637Y-80566460D01*
X104445631Y-80562602D01*
X104420129Y-80556215D01*
X104395376Y-80547358D01*
X104371610Y-80536117D01*
X104349061Y-80522602D01*
X104327944Y-80506941D01*
X104308465Y-80489285D01*
X104290809Y-80469806D01*
X104275148Y-80448689D01*
X104261633Y-80426140D01*
X104250392Y-80402374D01*
X104241535Y-80377621D01*
X104235148Y-80352119D01*
X104231290Y-80326113D01*
X104230000Y-80299855D01*
X104230000Y-79308645D01*
X104231290Y-79282387D01*
X104235148Y-79256381D01*
X104241535Y-79230879D01*
X104250392Y-79206126D01*
X104261633Y-79182360D01*
X104275148Y-79159811D01*
X104290809Y-79138694D01*
X104308465Y-79119215D01*
X104327944Y-79101559D01*
X104349061Y-79085898D01*
X104371610Y-79072383D01*
X104395376Y-79061142D01*
X104420129Y-79052285D01*
X104445631Y-79045898D01*
X104471637Y-79042040D01*
X104497895Y-79040750D01*
X105814105Y-79040750D01*
X105840363Y-79042040D01*
G37*
D19*
X100570000Y-65431750D03*
X105170000Y-65431750D03*
X102870000Y-65431750D03*
D20*
X102870000Y-59131750D03*
D21*
X85852000Y-57785000D03*
D13*
G36*
X86374107Y-59376290D02*
G01*
X86420265Y-59383137D01*
X86465530Y-59394475D01*
X86509466Y-59410195D01*
X86551649Y-59430146D01*
X86591674Y-59454136D01*
X86629154Y-59481934D01*
X86663729Y-59513271D01*
X86695066Y-59547846D01*
X86722864Y-59585326D01*
X86746854Y-59625351D01*
X86766805Y-59667534D01*
X86782525Y-59711470D01*
X86793863Y-59756735D01*
X86800710Y-59802893D01*
X86803000Y-59849500D01*
X86803000Y-60800500D01*
X86800710Y-60847107D01*
X86793863Y-60893265D01*
X86782525Y-60938530D01*
X86766805Y-60982466D01*
X86746854Y-61024649D01*
X86722864Y-61064674D01*
X86695066Y-61102154D01*
X86663729Y-61136729D01*
X86629154Y-61168066D01*
X86591674Y-61195864D01*
X86551649Y-61219854D01*
X86509466Y-61239805D01*
X86465530Y-61255525D01*
X86420265Y-61266863D01*
X86374107Y-61273710D01*
X86327500Y-61276000D01*
X85376500Y-61276000D01*
X85329893Y-61273710D01*
X85283735Y-61266863D01*
X85238470Y-61255525D01*
X85194534Y-61239805D01*
X85152351Y-61219854D01*
X85112326Y-61195864D01*
X85074846Y-61168066D01*
X85040271Y-61136729D01*
X85008934Y-61102154D01*
X84981136Y-61064674D01*
X84957146Y-61024649D01*
X84937195Y-60982466D01*
X84921475Y-60938530D01*
X84910137Y-60893265D01*
X84903290Y-60847107D01*
X84901000Y-60800500D01*
X84901000Y-59849500D01*
X84903290Y-59802893D01*
X84910137Y-59756735D01*
X84921475Y-59711470D01*
X84937195Y-59667534D01*
X84957146Y-59625351D01*
X84981136Y-59585326D01*
X85008934Y-59547846D01*
X85040271Y-59513271D01*
X85074846Y-59481934D01*
X85112326Y-59454136D01*
X85152351Y-59430146D01*
X85194534Y-59410195D01*
X85238470Y-59394475D01*
X85283735Y-59383137D01*
X85329893Y-59376290D01*
X85376500Y-59374000D01*
X86327500Y-59374000D01*
X86374107Y-59376290D01*
G37*
D21*
X155094320Y-54724750D03*
D13*
G36*
X155616427Y-56316040D02*
G01*
X155662585Y-56322887D01*
X155707850Y-56334225D01*
X155751786Y-56349945D01*
X155793969Y-56369896D01*
X155833994Y-56393886D01*
X155871474Y-56421684D01*
X155906049Y-56453021D01*
X155937386Y-56487596D01*
X155965184Y-56525076D01*
X155989174Y-56565101D01*
X156009125Y-56607284D01*
X156024845Y-56651220D01*
X156036183Y-56696485D01*
X156043030Y-56742643D01*
X156045320Y-56789250D01*
X156045320Y-57740250D01*
X156043030Y-57786857D01*
X156036183Y-57833015D01*
X156024845Y-57878280D01*
X156009125Y-57922216D01*
X155989174Y-57964399D01*
X155965184Y-58004424D01*
X155937386Y-58041904D01*
X155906049Y-58076479D01*
X155871474Y-58107816D01*
X155833994Y-58135614D01*
X155793969Y-58159604D01*
X155751786Y-58179555D01*
X155707850Y-58195275D01*
X155662585Y-58206613D01*
X155616427Y-58213460D01*
X155569820Y-58215750D01*
X154618820Y-58215750D01*
X154572213Y-58213460D01*
X154526055Y-58206613D01*
X154480790Y-58195275D01*
X154436854Y-58179555D01*
X154394671Y-58159604D01*
X154354646Y-58135614D01*
X154317166Y-58107816D01*
X154282591Y-58076479D01*
X154251254Y-58041904D01*
X154223456Y-58004424D01*
X154199466Y-57964399D01*
X154179515Y-57922216D01*
X154163795Y-57878280D01*
X154152457Y-57833015D01*
X154145610Y-57786857D01*
X154143320Y-57740250D01*
X154143320Y-56789250D01*
X154145610Y-56742643D01*
X154152457Y-56696485D01*
X154163795Y-56651220D01*
X154179515Y-56607284D01*
X154199466Y-56565101D01*
X154223456Y-56525076D01*
X154251254Y-56487596D01*
X154282591Y-56453021D01*
X154317166Y-56421684D01*
X154354646Y-56393886D01*
X154394671Y-56369896D01*
X154436854Y-56349945D01*
X154480790Y-56334225D01*
X154526055Y-56322887D01*
X154572213Y-56316040D01*
X154618820Y-56313750D01*
X155569820Y-56313750D01*
X155616427Y-56316040D01*
G37*
D21*
X155094320Y-87324750D03*
D13*
G36*
X155616427Y-83836040D02*
G01*
X155662585Y-83842887D01*
X155707850Y-83854225D01*
X155751786Y-83869945D01*
X155793969Y-83889896D01*
X155833994Y-83913886D01*
X155871474Y-83941684D01*
X155906049Y-83973021D01*
X155937386Y-84007596D01*
X155965184Y-84045076D01*
X155989174Y-84085101D01*
X156009125Y-84127284D01*
X156024845Y-84171220D01*
X156036183Y-84216485D01*
X156043030Y-84262643D01*
X156045320Y-84309250D01*
X156045320Y-85260250D01*
X156043030Y-85306857D01*
X156036183Y-85353015D01*
X156024845Y-85398280D01*
X156009125Y-85442216D01*
X155989174Y-85484399D01*
X155965184Y-85524424D01*
X155937386Y-85561904D01*
X155906049Y-85596479D01*
X155871474Y-85627816D01*
X155833994Y-85655614D01*
X155793969Y-85679604D01*
X155751786Y-85699555D01*
X155707850Y-85715275D01*
X155662585Y-85726613D01*
X155616427Y-85733460D01*
X155569820Y-85735750D01*
X154618820Y-85735750D01*
X154572213Y-85733460D01*
X154526055Y-85726613D01*
X154480790Y-85715275D01*
X154436854Y-85699555D01*
X154394671Y-85679604D01*
X154354646Y-85655614D01*
X154317166Y-85627816D01*
X154282591Y-85596479D01*
X154251254Y-85561904D01*
X154223456Y-85524424D01*
X154199466Y-85484399D01*
X154179515Y-85442216D01*
X154163795Y-85398280D01*
X154152457Y-85353015D01*
X154145610Y-85306857D01*
X154143320Y-85260250D01*
X154143320Y-84309250D01*
X154145610Y-84262643D01*
X154152457Y-84216485D01*
X154163795Y-84171220D01*
X154179515Y-84127284D01*
X154199466Y-84085101D01*
X154223456Y-84045076D01*
X154251254Y-84007596D01*
X154282591Y-83973021D01*
X154317166Y-83941684D01*
X154354646Y-83913886D01*
X154394671Y-83889896D01*
X154436854Y-83869945D01*
X154480790Y-83854225D01*
X154526055Y-83842887D01*
X154572213Y-83836040D01*
X154618820Y-83833750D01*
X155569820Y-83833750D01*
X155616427Y-83836040D01*
G37*
D22*
X132199320Y-86614000D03*
X129659320Y-86614000D03*
X127119320Y-86614000D03*
D23*
X124579320Y-86614000D03*
D24*
X125849320Y-60774750D03*
X125849320Y-81274750D03*
D25*
X123309320Y-71024750D03*
D24*
X127119320Y-60774750D03*
X128389320Y-60774750D03*
X129659320Y-60774750D03*
X130929320Y-60774750D03*
X132199320Y-60774750D03*
X133469320Y-60774750D03*
X134739320Y-60774750D03*
X136009320Y-60774750D03*
X137279320Y-60774750D03*
X138549320Y-60774750D03*
X139819320Y-60774750D03*
X127119320Y-81274750D03*
X128389320Y-81274750D03*
X129659320Y-81274750D03*
X130929320Y-81274750D03*
X132199320Y-81274750D03*
X133469320Y-81274750D03*
X134739320Y-81274750D03*
X136009320Y-81274750D03*
X137279320Y-81274750D03*
X138549320Y-81274750D03*
X139819320Y-81274750D03*
D25*
X123309320Y-72294750D03*
X123309320Y-73564750D03*
X123309320Y-74834750D03*
X123309320Y-76104750D03*
X123309320Y-69754750D03*
X123309320Y-68484750D03*
X123309320Y-67214750D03*
X123309320Y-65944750D03*
D21*
X84328000Y-81582000D03*
X84328000Y-84582000D03*
D13*
G36*
X83000107Y-82133290D02*
G01*
X83046265Y-82140137D01*
X83091530Y-82151475D01*
X83135466Y-82167195D01*
X83177649Y-82187146D01*
X83217674Y-82211136D01*
X83255154Y-82238934D01*
X83289729Y-82270271D01*
X83321066Y-82304846D01*
X83348864Y-82342326D01*
X83372854Y-82382351D01*
X83392805Y-82424534D01*
X83408525Y-82468470D01*
X83419863Y-82513735D01*
X83426710Y-82559893D01*
X83429000Y-82606500D01*
X83429000Y-83557500D01*
X83426710Y-83604107D01*
X83419863Y-83650265D01*
X83408525Y-83695530D01*
X83392805Y-83739466D01*
X83372854Y-83781649D01*
X83348864Y-83821674D01*
X83321066Y-83859154D01*
X83289729Y-83893729D01*
X83255154Y-83925066D01*
X83217674Y-83952864D01*
X83177649Y-83976854D01*
X83135466Y-83996805D01*
X83091530Y-84012525D01*
X83046265Y-84023863D01*
X83000107Y-84030710D01*
X82953500Y-84033000D01*
X82002500Y-84033000D01*
X81955893Y-84030710D01*
X81909735Y-84023863D01*
X81864470Y-84012525D01*
X81820534Y-83996805D01*
X81778351Y-83976854D01*
X81738326Y-83952864D01*
X81700846Y-83925066D01*
X81666271Y-83893729D01*
X81634934Y-83859154D01*
X81607136Y-83821674D01*
X81583146Y-83781649D01*
X81563195Y-83739466D01*
X81547475Y-83695530D01*
X81536137Y-83650265D01*
X81529290Y-83604107D01*
X81527000Y-83557500D01*
X81527000Y-82606500D01*
X81529290Y-82559893D01*
X81536137Y-82513735D01*
X81547475Y-82468470D01*
X81563195Y-82424534D01*
X81583146Y-82382351D01*
X81607136Y-82342326D01*
X81634934Y-82304846D01*
X81666271Y-82270271D01*
X81700846Y-82238934D01*
X81738326Y-82211136D01*
X81778351Y-82187146D01*
X81820534Y-82167195D01*
X81864470Y-82151475D01*
X81909735Y-82140137D01*
X81955893Y-82133290D01*
X82002500Y-82131000D01*
X82953500Y-82131000D01*
X83000107Y-82133290D01*
G37*
D26*
X145319600Y-90037920D03*
X145319600Y-52014120D03*
X95619600Y-90037920D03*
X95619600Y-52014120D03*
M02*
